; NON-PLATED HOLES START AT T1
; THROUGH (PLATED) HOLES START AT T100
M48
INCH
T1C0.044000
T2C0.165354
T100C0.015748
T101C0.040000
T102C0.030000
T103C0.038000
T104C0.060350
T105C0.035433
T106C0.035000
%
T1
X001803Y007470
X000819Y011405
X000819Y007470
X003771Y009437
X001803Y011405
T2
X001893Y132024
X001891Y001970
X131973Y001967
X131970Y132022
T100
X132995Y077413
X120449Y119876
X120449Y023180
X130625Y020885
X131810Y042931
X120449Y073830
X104162Y059024
X120449Y086830
X107162Y060795
X120449Y020885
X131810Y097811
X120449Y058005
X130032Y009885
X120449Y133154
X120449Y067208
X113162Y038320
X130032Y130858
X120449Y009885
X120449Y111172
X120449Y045227
X120449Y130858
X132402Y053931
X120449Y122172
X120449Y100108
X108162Y040320
X120449Y064912
X120449Y078126
X112162Y039320
X132995Y056357
X120449Y042931
X132402Y086830
X120449Y034162
X120449Y089126
X120449Y108876
X120449Y097811
X120449Y012180
X130625Y119876
X120449Y053931
X131217Y108876
X120449Y031865
X114162Y037320
X131217Y031865
T101
X002528Y066106
X002528Y064729
T102
X005402Y011408
X005398Y008465
X005402Y010406
X005398Y007463
T103
X116425Y077008
X017428Y033004
X128171Y072385
X004819Y070098
X077421Y011007
X038425Y055008
X105162Y056376
X118425Y088008
X058425Y022007
X077425Y077008
X129171Y066385
X100532Y075385
X097425Y044008
X036425Y022007
X055425Y077008
X075425Y044008
X118421Y011007
X016428Y099004
X012800Y010950
X008967Y040320
X128171Y064385
X116425Y044008
X015427Y121006
X107162Y056376
X129171Y058385
X057421Y011007
X038425Y022007
X057425Y077008
X118425Y055008
X077425Y044008
X018428Y099004
X035425Y077008
X055425Y044008
X129171Y073385
X016428Y066003
X005819Y071098
X017427Y121006
X109162Y056376
X015428Y110003
X096425Y077008
X128171Y071385
X037421Y011007
X129171Y065385
X037425Y077008
X057425Y044008
X118425Y022007
X018428Y066003
X035425Y044008
X115425Y077008
X017428Y110003
X016428Y033004
X128171Y063385
X098425Y077008
X104162Y056376
X129171Y057385
X076425Y077008
X096425Y044008
X037425Y044008
X117425Y077008
X018428Y033004
X129171Y072385
X005819Y070098
X115425Y044008
X015428Y088003
X106162Y056376
X009967Y039320
X078425Y077008
X101532Y075385
X098425Y044008
X128171Y070385
X056425Y077008
X095425Y099008
X076425Y044008
X129171Y064385
X117425Y044008
X017428Y088003
X108162Y056376
X015425Y011003
X128171Y062385
X015428Y055003
X058425Y077008
X097425Y099008
X078425Y044008
X112162Y056376
X036425Y077008
X075425Y099008
X056425Y044008
X011805Y009945
X095425Y066008
X018427Y121006
X017425Y011003
X016428Y110003
X116425Y099008
X129171Y071385
X017428Y055003
X009967Y038320
X038425Y077008
X015428Y022003
X077425Y099008
X058425Y044008
X097425Y066008
X055425Y099008
X036425Y044008
X075425Y066008
X018428Y110003
X095425Y033007
X129171Y063385
X012800Y009950
X008967Y039320
X116425Y066008
X017428Y022003
X128171Y061385
X057425Y099008
X038425Y044008
X118425Y077008
X077425Y066008
X097425Y033007
X011805Y008945
X035425Y099008
X055425Y066008
X075425Y033007
X016428Y088003
X129171Y070385
X116425Y033007
X096425Y099008
X111162Y056376
X009967Y037320
X095423Y121010
X037425Y099008
X057425Y066008
X118425Y044008
X077425Y033007
X018428Y088003
X016425Y011003
X035425Y066008
X115425Y099008
X055425Y033007
X129171Y062385
X016428Y055003
X012800Y008950
X098425Y099008
X113162Y056376
X008967Y038320
X056427Y132006
X076425Y099008
X096425Y066008
X128171Y060385
X018425Y011003
X075423Y121010
X095425Y110008
X037425Y066008
X117425Y099008
X057425Y033007
X011805Y007945
X018428Y055003
X095427Y132006
X035425Y033007
X115425Y066008
X016428Y022003
X078425Y099008
X098425Y066008
X036427Y132006
X056425Y099008
X077423Y121010
X097425Y110008
X076425Y066008
X096425Y033007
X128171Y069385
X055423Y121010
X075425Y110008
X003221Y012560
X097427Y132006
X037425Y033007
X117425Y066008
X018428Y022003
X129171Y061385
X075427Y132006
X116425Y110008
X115425Y033007
X012800Y007950
X015428Y077003
X058425Y099008
X078425Y066008
X008967Y037320
X098425Y033007
X116427Y132006
X036425Y099008
X057423Y121010
X077425Y110008
X056425Y066008
X076425Y033007
X095425Y088008
X016430Y132001
X035423Y121010
X055425Y110008
X077427Y132006
X128171Y076385
X117425Y033007
X017428Y077003
X055427Y132006
X118427Y132006
X096423Y121010
X038425Y099008
X015428Y044003
X058425Y066008
X078425Y033007
X097425Y088008
X018430Y132001
X037423Y121010
X057425Y110008
X036425Y066008
X056425Y033007
X128171Y068385
X075425Y088008
X095425Y055008
X035425Y110008
X114162Y056376
X115423Y121010
X057427Y132006
X116425Y088008
X098423Y121010
X129171Y060385
X017428Y044003
X035427Y132006
X076423Y121010
X096425Y110008
X038425Y066008
X118425Y099008
X058425Y033007
X077425Y088008
X097425Y055008
X002221Y012560
X002526Y077361
X037425Y110008
X096427Y132006
X036425Y033007
X055425Y088008
X117423Y121010
X075425Y055008
X095425Y022007
X115425Y110008
X128171Y075385
X037427Y132006
X055421Y011007
X116425Y055008
X078423Y121010
X098425Y110008
X129171Y069385
X115427Y132006
X056423Y121010
X076425Y110008
X004221Y012560
X098427Y132006
X038425Y033007
X057425Y088008
X015430Y132001
X118425Y066008
X077425Y055008
X097425Y022007
X128171Y067385
X076427Y132006
X035425Y088008
X117425Y110008
X055425Y055008
X075425Y022007
X016428Y077003
X035421Y011007
X117427Y132006
X058423Y121010
X078425Y110008
X116425Y022007
X096425Y088008
X017430Y132001
X036423Y121010
X056425Y110008
X128171Y059385
X078427Y132006
X129171Y076385
X037425Y088008
X096421Y011007
X057425Y055008
X118425Y033007
X077425Y022007
X002526Y076361
X018428Y077003
X035425Y055008
X115425Y088008
X055425Y022007
X097423Y121010
X016428Y044003
X128171Y074385
X098425Y088008
X115421Y011007
X038423Y121010
X058425Y110008
X129171Y068385
X076425Y088008
X096425Y055008
X098421Y011007
X036425Y110008
X116423Y121010
X058427Y132006
X076421Y011007
X037425Y055008
X117425Y088008
X057425Y022007
X128171Y066385
X018428Y044003
X035425Y022007
X115425Y055008
X117421Y011007
X015428Y099004
X078425Y088008
X098425Y055008
X038425Y110008
X056425Y088008
X118423Y121010
X076425Y055008
X096425Y022007
X078421Y011007
X128171Y058385
X129171Y075385
X038427Y132006
X056421Y011007
X002526Y075361
X037425Y022007
X117425Y055008
X017428Y099004
X009967Y040320
X115425Y022007
X128171Y073385
X015428Y066003
X004819Y071098
X058425Y088008
X078425Y055008
X098425Y022007
X016427Y121006
X129171Y067385
X036425Y088008
X118425Y110008
X095421Y011007
X056425Y055008
X076425Y022007
X058421Y011007
X095425Y077008
X036421Y011007
X128171Y065385
X117425Y022007
X017428Y066003
X129171Y059385
X038425Y088008
X097421Y011007
X015428Y033004
X058425Y055008
X078425Y022007
X097425Y077008
X011805Y010945
X075421Y011007
X036425Y055008
X056425Y022007
X038421Y011007
X128171Y057385
X075425Y077008
X095425Y044008
X129171Y074385
X116421Y011007
T104
X001803Y009437
X003771Y010421
X003771Y011405
X003771Y008453
X003771Y007470
T105
X109161Y071098
X085991Y126444
X045991Y126444
X105161Y048932
X100532Y050154
X107161Y007950
X120498Y016530
X106017Y016530
X002526Y126444
X026035Y016530
X120510Y126444
X105991Y126444
X026010Y126444
X086017Y016530
X002528Y016530
X046017Y016530
X066039Y016530
X012800Y050154
X128226Y016525
X066013Y126444
X108161Y070098
X111161Y008950
X014059Y048932
X128201Y126438
T106
X003602Y039725
X010395Y008470
X006395Y008470
X006398Y010451
X006161Y039725
X006155Y042957
X010399Y010451
X006402Y009451
X006155Y044728
X003599Y060795
X006158Y060795
X010395Y007473
X006395Y007473
X003596Y042957
X003602Y032954
X003599Y059024
X006158Y059024
X006161Y032954
X003602Y037953
X003596Y044728
X010402Y009451
X003602Y034725
X006161Y037953
X010406Y011395
X006406Y011395
X006161Y034725
T00
M30
