G04 MADE WITH FRITZING*
G04 WWW.FRITZING.ORG*
G04 DOUBLE SIDED*
G04 HOLES PLATED*
G04 CONTOUR ON CENTER OF CONTOUR VECTOR*
%ASAXBY*%
%FSLAX23Y23*%
%MOIN*%
%OFA0B0*%
%SFA1.0B1.0*%
%ADD10C,0.078000*%
%ADD11C,0.080000*%
%ADD12C,0.039370*%
%ADD13C,0.075433*%
%ADD14C,0.080350*%
%ADD15C,0.070000*%
%ADD16C,0.075000*%
%ADD17R,0.080000X0.080000*%
%ADD18R,0.078000X0.078000*%
%ADD19C,0.024000*%
%ADD20C,0.048000*%
%ADD21C,0.012000*%
%ADD22R,0.001000X0.001000*%
%LNCOPPER0*%
G90*
G70*
G54D10*
X5542Y1101D03*
X5642Y1101D03*
X5742Y1101D03*
X5842Y1101D03*
X9542Y1101D03*
X9642Y1101D03*
X9742Y1101D03*
X9842Y1101D03*
X1543Y1100D03*
X1643Y1100D03*
X1743Y1100D03*
X1843Y1100D03*
X7542Y1101D03*
X7642Y1101D03*
X7742Y1101D03*
X7842Y1101D03*
X11542Y1101D03*
X11642Y1101D03*
X11742Y1101D03*
X11842Y1101D03*
X3542Y1101D03*
X3642Y1101D03*
X3742Y1101D03*
X3842Y1101D03*
X1543Y2200D03*
X1643Y2200D03*
X1743Y2200D03*
X1843Y2200D03*
X5543Y2201D03*
X5643Y2201D03*
X5743Y2201D03*
X5843Y2201D03*
X7543Y2201D03*
X7643Y2201D03*
X7743Y2201D03*
X7843Y2201D03*
X3543Y2201D03*
X3643Y2201D03*
X3743Y2201D03*
X3843Y2201D03*
X9543Y2201D03*
X9643Y2201D03*
X9743Y2201D03*
X9843Y2201D03*
X11543Y2201D03*
X11643Y2201D03*
X11743Y2201D03*
X11843Y2201D03*
X9543Y3301D03*
X9643Y3301D03*
X9743Y3301D03*
X9843Y3301D03*
X11543Y3301D03*
X11643Y3301D03*
X11743Y3301D03*
X11843Y3301D03*
X1543Y3300D03*
X1643Y3300D03*
X1743Y3300D03*
X1843Y3300D03*
X7543Y3301D03*
X7643Y3301D03*
X7743Y3301D03*
X7843Y3301D03*
X3543Y3301D03*
X3643Y3301D03*
X3743Y3301D03*
X3843Y3301D03*
X5543Y3301D03*
X5643Y3301D03*
X5743Y3301D03*
X5843Y3301D03*
X3543Y4401D03*
X3643Y4401D03*
X3743Y4401D03*
X3843Y4401D03*
X11543Y4401D03*
X11643Y4401D03*
X11743Y4401D03*
X11843Y4401D03*
X9543Y4401D03*
X9643Y4401D03*
X9743Y4401D03*
X9843Y4401D03*
X5543Y4401D03*
X5643Y4401D03*
X5743Y4401D03*
X5843Y4401D03*
X1543Y4400D03*
X1643Y4400D03*
X1743Y4400D03*
X1843Y4400D03*
X7543Y4401D03*
X7643Y4401D03*
X7743Y4401D03*
X7843Y4401D03*
X9543Y5501D03*
X9643Y5501D03*
X9743Y5501D03*
X9843Y5501D03*
X3543Y5501D03*
X3643Y5501D03*
X3743Y5501D03*
X3843Y5501D03*
X5543Y5501D03*
X5643Y5501D03*
X5743Y5501D03*
X5843Y5501D03*
X11543Y5501D03*
X11643Y5501D03*
X11743Y5501D03*
X11843Y5501D03*
X7543Y5501D03*
X7643Y5501D03*
X7743Y5501D03*
X7843Y5501D03*
X1543Y5500D03*
X1643Y5500D03*
X1743Y5500D03*
X1843Y5500D03*
X9543Y6601D03*
X9643Y6601D03*
X9743Y6601D03*
X9843Y6601D03*
X3543Y6601D03*
X3643Y6601D03*
X3743Y6601D03*
X3843Y6601D03*
X5543Y6601D03*
X5643Y6601D03*
X5743Y6601D03*
X5843Y6601D03*
X1543Y6600D03*
X1643Y6600D03*
X1743Y6600D03*
X1843Y6600D03*
X7543Y6601D03*
X7643Y6601D03*
X7743Y6601D03*
X7843Y6601D03*
X11543Y6601D03*
X11643Y6601D03*
X11743Y6601D03*
X11843Y6601D03*
X11543Y7701D03*
X11643Y7701D03*
X11743Y7701D03*
X11843Y7701D03*
X7543Y7701D03*
X7643Y7701D03*
X7743Y7701D03*
X7843Y7701D03*
X3543Y7701D03*
X3643Y7701D03*
X3743Y7701D03*
X3843Y7701D03*
X9543Y7701D03*
X9643Y7701D03*
X9743Y7701D03*
X9843Y7701D03*
X5543Y7701D03*
X5643Y7701D03*
X5743Y7701D03*
X5843Y7701D03*
X1543Y7700D03*
X1643Y7700D03*
X1743Y7700D03*
X1843Y7700D03*
X11543Y8801D03*
X11643Y8801D03*
X11743Y8801D03*
X11843Y8801D03*
X5543Y8801D03*
X5643Y8801D03*
X5743Y8801D03*
X5843Y8801D03*
X1543Y8800D03*
X1643Y8800D03*
X1743Y8800D03*
X1843Y8800D03*
X3543Y8801D03*
X3643Y8801D03*
X3743Y8801D03*
X3843Y8801D03*
X9543Y8801D03*
X9643Y8801D03*
X9743Y8801D03*
X9843Y8801D03*
X7543Y8801D03*
X7643Y8801D03*
X7743Y8801D03*
X7843Y8801D03*
X11543Y9901D03*
X11643Y9901D03*
X11743Y9901D03*
X11843Y9901D03*
X1543Y9900D03*
X1643Y9900D03*
X1743Y9900D03*
X1843Y9900D03*
X5543Y9901D03*
X5643Y9901D03*
X5743Y9901D03*
X5843Y9901D03*
X3543Y9901D03*
X3643Y9901D03*
X3743Y9901D03*
X3843Y9901D03*
X7543Y9901D03*
X7643Y9901D03*
X7743Y9901D03*
X7843Y9901D03*
X9543Y9901D03*
X9643Y9901D03*
X9743Y9901D03*
X9843Y9901D03*
X3543Y11001D03*
X3643Y11001D03*
X3743Y11001D03*
X3843Y11001D03*
X1543Y11000D03*
X1643Y11000D03*
X1743Y11000D03*
X1843Y11000D03*
X7543Y11001D03*
X7643Y11001D03*
X7743Y11001D03*
X7843Y11001D03*
X9543Y11001D03*
X9643Y11001D03*
X9743Y11001D03*
X9843Y11001D03*
X5543Y11001D03*
X5643Y11001D03*
X5743Y11001D03*
X5843Y11001D03*
X11543Y11001D03*
X11643Y11001D03*
X11743Y11001D03*
X11843Y11001D03*
X3542Y12101D03*
X3642Y12101D03*
X3742Y12101D03*
X3842Y12101D03*
X5542Y12101D03*
X5642Y12101D03*
X5742Y12101D03*
X5842Y12101D03*
X9542Y12101D03*
X9642Y12101D03*
X9742Y12101D03*
X9842Y12101D03*
X1543Y12101D03*
X1643Y12101D03*
X1743Y12101D03*
X1843Y12101D03*
X11542Y12101D03*
X11642Y12101D03*
X11742Y12101D03*
X11842Y12101D03*
X7542Y12101D03*
X7642Y12101D03*
X7742Y12101D03*
X7842Y12101D03*
X11543Y13201D03*
X11643Y13201D03*
X11743Y13201D03*
X11843Y13201D03*
X9543Y13201D03*
X9643Y13201D03*
X9743Y13201D03*
X9843Y13201D03*
X7543Y13201D03*
X7643Y13201D03*
X7743Y13201D03*
X7843Y13201D03*
X5543Y13201D03*
X5643Y13201D03*
X5743Y13201D03*
X5843Y13201D03*
X3543Y13201D03*
X3643Y13201D03*
X3743Y13201D03*
X3843Y13201D03*
X1543Y13200D03*
X1643Y13200D03*
X1743Y13200D03*
X1843Y13200D03*
X12817Y7639D03*
X12817Y7539D03*
X12817Y7439D03*
X12817Y7339D03*
X12817Y7239D03*
X12817Y7139D03*
X12817Y7039D03*
X12817Y6939D03*
X12817Y6839D03*
X12817Y6739D03*
X12817Y6639D03*
X12817Y6539D03*
X12817Y6439D03*
X12817Y6339D03*
X12817Y6239D03*
X12817Y6139D03*
X12817Y6039D03*
X12817Y5939D03*
X12817Y5839D03*
X12817Y5739D03*
X12817Y7639D03*
X12817Y7539D03*
X12817Y7439D03*
X12817Y7339D03*
X12817Y7239D03*
X12817Y7139D03*
X12817Y7039D03*
X12817Y6939D03*
X12817Y6839D03*
X12817Y6739D03*
X12817Y6639D03*
X12817Y6539D03*
X12817Y6439D03*
X12817Y6339D03*
X12817Y6239D03*
X12817Y6139D03*
X12817Y6039D03*
X12817Y5939D03*
X12817Y5839D03*
X12817Y5739D03*
X12917Y5739D03*
X12917Y5839D03*
X12917Y5939D03*
X12917Y6039D03*
X12917Y6139D03*
X12917Y6239D03*
X12917Y6339D03*
X12917Y6439D03*
X12917Y6539D03*
X12917Y6639D03*
X12917Y6739D03*
X12917Y6839D03*
X12917Y6939D03*
X12917Y7039D03*
X12917Y7139D03*
X12917Y7239D03*
X12917Y7339D03*
X12917Y7439D03*
X12917Y7539D03*
X12917Y7639D03*
G54D11*
X253Y6611D03*
X253Y6473D03*
G54D12*
X12045Y4293D03*
X12045Y5393D03*
X12045Y6721D03*
X12045Y3187D03*
X12045Y989D03*
X12045Y5801D03*
X12045Y3416D03*
X12045Y6491D03*
X12045Y2089D03*
X12045Y2318D03*
X12045Y1218D03*
X12045Y4523D03*
X12045Y9781D03*
X12045Y10011D03*
X12045Y8913D03*
X12045Y7383D03*
X12045Y7813D03*
X12045Y8683D03*
X12045Y10888D03*
X12045Y11117D03*
X12045Y11988D03*
X12045Y12217D03*
X12045Y13086D03*
X12045Y13315D03*
G54D10*
X253Y7736D03*
X253Y7636D03*
X253Y7536D03*
G54D12*
X13003Y13086D03*
X13063Y11988D03*
X13122Y10888D03*
X13181Y9781D03*
X13240Y8683D03*
X13300Y7741D03*
X13300Y5636D03*
X13240Y5393D03*
X13181Y4293D03*
X13122Y3187D03*
X13063Y2089D03*
X13003Y989D03*
G54D13*
X12820Y12644D03*
X2601Y12644D03*
X4599Y12644D03*
X6601Y12644D03*
X8599Y12644D03*
X10599Y12644D03*
X12051Y12644D03*
X12823Y1653D03*
X4602Y1653D03*
X2604Y1653D03*
X6604Y1653D03*
X10602Y1653D03*
X8602Y1653D03*
X12050Y1653D03*
X253Y12644D03*
X253Y1653D03*
G54D14*
X180Y944D03*
X377Y1141D03*
X377Y1042D03*
X377Y845D03*
X377Y747D03*
G54D15*
X540Y1141D03*
X540Y1041D03*
X540Y746D03*
X540Y847D03*
G54D16*
X641Y1140D03*
X1041Y1140D03*
X640Y1045D03*
X1040Y1045D03*
X640Y945D03*
X1040Y945D03*
X640Y847D03*
X1040Y847D03*
X640Y747D03*
X1040Y747D03*
G54D10*
X222Y1256D03*
X322Y1256D03*
X422Y1256D03*
X1181Y1095D03*
X1181Y995D03*
X1181Y895D03*
X1181Y795D03*
X11116Y5638D03*
X11216Y5638D03*
X11316Y5638D03*
X11416Y5638D03*
X10416Y5638D03*
X10516Y5638D03*
X10616Y5638D03*
X10716Y5638D03*
X10816Y5638D03*
X10916Y5638D03*
X10053Y7539D03*
X10153Y7539D03*
X1280Y1095D03*
X1280Y995D03*
X1280Y895D03*
X1280Y795D03*
G54D13*
X1280Y5015D03*
X10053Y5015D03*
X1406Y4893D03*
X10516Y4893D03*
X10716Y795D03*
G54D10*
X482Y7110D03*
X482Y7010D03*
X482Y7110D03*
X482Y7010D03*
X582Y7010D03*
X582Y7110D03*
G54D13*
X10816Y7010D03*
X10916Y7110D03*
G54D16*
X616Y5902D03*
X360Y5902D03*
X616Y6080D03*
X360Y6080D03*
X616Y3295D03*
X360Y3295D03*
X616Y3473D03*
X360Y3473D03*
X616Y3795D03*
X360Y3795D03*
X616Y3973D03*
X360Y3973D03*
X616Y4296D03*
X360Y4296D03*
X616Y4473D03*
X360Y4473D03*
G54D12*
X10716Y6080D03*
X10416Y5902D03*
G54D13*
X11116Y895D03*
G54D10*
X897Y4032D03*
X897Y3932D03*
X897Y3832D03*
X897Y3732D03*
X897Y4032D03*
X897Y3932D03*
X897Y3832D03*
X897Y3732D03*
X997Y3732D03*
X997Y3832D03*
X997Y3932D03*
X997Y4032D03*
G54D12*
X10816Y4032D03*
X11216Y3932D03*
X11316Y3832D03*
X11416Y3732D03*
G54D17*
X253Y6611D03*
G54D18*
X253Y7736D03*
G54D19*
X12064Y13086D02*
X12984Y13086D01*
D02*
X12064Y11988D02*
X13044Y11988D01*
D02*
X12064Y10888D02*
X13103Y10888D01*
D02*
X12064Y9781D02*
X13162Y9781D01*
D02*
X12064Y8683D02*
X13221Y8683D01*
D02*
X12715Y7741D02*
X13281Y7741D01*
D02*
X12715Y7383D02*
X12715Y7741D01*
D02*
X12064Y7383D02*
X12715Y7383D01*
D02*
X12064Y6491D02*
X12715Y6491D01*
D02*
X12715Y6491D02*
X12715Y5636D01*
D02*
X12715Y5636D02*
X13281Y5636D01*
D02*
X12064Y5393D02*
X13221Y5393D01*
D02*
X12064Y4293D02*
X13162Y4293D01*
D02*
X12064Y3187D02*
X13103Y3187D01*
D02*
X12064Y2088D02*
X13044Y2088D01*
D02*
X12064Y988D02*
X12984Y988D01*
G54D20*
D02*
X1543Y12131D02*
X1543Y13170D01*
D02*
X1643Y12131D02*
X1643Y13170D01*
D02*
X1643Y12071D02*
X1643Y11031D01*
D02*
X1543Y12071D02*
X1543Y11031D01*
D02*
X1643Y10970D02*
X1643Y9931D01*
D02*
X1543Y10970D02*
X1543Y9931D01*
D02*
X1643Y9870D02*
X1643Y8831D01*
D02*
X1543Y9870D02*
X1543Y8831D01*
D02*
X1643Y8770D02*
X1643Y7730D01*
D02*
X1543Y8770D02*
X1543Y7730D01*
D02*
X1643Y7670D02*
X1643Y6630D01*
D02*
X1543Y7670D02*
X1543Y6630D01*
D02*
X1643Y6570D02*
X1643Y5530D01*
D02*
X1543Y6570D02*
X1543Y5530D01*
D02*
X1643Y5470D02*
X1643Y4431D01*
D02*
X1543Y5470D02*
X1543Y4431D01*
D02*
X1643Y4370D02*
X1643Y3331D01*
D02*
X1543Y4370D02*
X1543Y3331D01*
D02*
X1643Y3270D02*
X1643Y2231D01*
D02*
X1543Y3270D02*
X1543Y2231D01*
D02*
X1643Y2170D02*
X1643Y1131D01*
D02*
X1543Y2170D02*
X1543Y1131D01*
D02*
X3542Y12131D02*
X3543Y13171D01*
D02*
X3642Y12131D02*
X3643Y13171D01*
D02*
X3642Y12071D02*
X3643Y11031D01*
D02*
X3542Y12071D02*
X3543Y11031D01*
D02*
X3643Y10971D02*
X3643Y9931D01*
D02*
X3543Y10971D02*
X3543Y9931D01*
D02*
X3643Y9871D02*
X3643Y8831D01*
D02*
X3543Y9871D02*
X3543Y8831D01*
D02*
X3643Y8771D02*
X3643Y7731D01*
D02*
X3543Y8771D02*
X3543Y7731D01*
D02*
X3643Y7671D02*
X3643Y6631D01*
D02*
X3543Y7671D02*
X3543Y6631D01*
D02*
X3643Y6571D02*
X3643Y5531D01*
D02*
X3543Y6571D02*
X3543Y5531D01*
D02*
X3643Y5471D02*
X3643Y4431D01*
D02*
X3543Y5471D02*
X3543Y4431D01*
D02*
X3643Y4371D02*
X3643Y3331D01*
D02*
X3543Y4371D02*
X3543Y3331D01*
D02*
X3643Y3271D02*
X3643Y2231D01*
D02*
X3543Y3271D02*
X3543Y2231D01*
D02*
X3643Y2171D02*
X3642Y1131D01*
D02*
X3543Y2171D02*
X3542Y1131D01*
D02*
X5643Y13171D02*
X5642Y12131D01*
D02*
X5543Y13171D02*
X5542Y12131D01*
D02*
X5642Y12071D02*
X5643Y11031D01*
D02*
X5542Y12071D02*
X5543Y11031D01*
D02*
X5643Y10971D02*
X5643Y9931D01*
D02*
X5543Y10971D02*
X5543Y9931D01*
D02*
X5643Y9871D02*
X5643Y8831D01*
D02*
X5543Y9871D02*
X5543Y8831D01*
D02*
X5643Y8771D02*
X5643Y7731D01*
D02*
X5543Y8771D02*
X5543Y7731D01*
D02*
X5643Y7671D02*
X5643Y6631D01*
D02*
X5543Y7671D02*
X5543Y6631D01*
D02*
X5643Y6571D02*
X5643Y5531D01*
D02*
X5543Y6571D02*
X5543Y5531D01*
D02*
X5643Y5471D02*
X5643Y4431D01*
D02*
X5543Y5471D02*
X5543Y4431D01*
D02*
X5643Y4371D02*
X5643Y3331D01*
D02*
X5543Y4371D02*
X5543Y3331D01*
D02*
X5643Y3271D02*
X5643Y2231D01*
D02*
X5543Y3271D02*
X5543Y2231D01*
D02*
X5643Y2171D02*
X5642Y1131D01*
D02*
X5543Y2171D02*
X5542Y1131D01*
D02*
X7643Y2160D02*
X7642Y1142D01*
D02*
X7543Y2160D02*
X7542Y1142D01*
D02*
X9542Y2160D02*
X9542Y1142D01*
D02*
X9642Y2160D02*
X9642Y1142D01*
D02*
X11543Y2160D02*
X11542Y1142D01*
D02*
X11643Y2160D02*
X11642Y1142D01*
D02*
X7543Y13171D02*
X7542Y12131D01*
D02*
X7643Y13171D02*
X7642Y12131D01*
D02*
X9543Y13171D02*
X9542Y12131D01*
D02*
X9643Y13171D02*
X9642Y12131D01*
D02*
X11543Y13171D02*
X11542Y12131D01*
D02*
X11643Y13171D02*
X11642Y12131D01*
D02*
X7542Y12071D02*
X7543Y11031D01*
D02*
X7642Y12071D02*
X7643Y11031D01*
D02*
X9542Y12071D02*
X9543Y11031D01*
D02*
X9642Y12071D02*
X9643Y11031D01*
D02*
X11542Y12071D02*
X11543Y11031D01*
D02*
X11642Y12071D02*
X11643Y11031D01*
D02*
X7543Y10971D02*
X7543Y9931D01*
D02*
X7643Y10971D02*
X7643Y9931D01*
D02*
X9543Y10971D02*
X9543Y9931D01*
D02*
X9643Y10971D02*
X9643Y9931D01*
D02*
X11543Y10971D02*
X11543Y9931D01*
D02*
X11643Y10971D02*
X11643Y9931D01*
D02*
X11643Y9871D02*
X11643Y8831D01*
D02*
X11543Y9871D02*
X11543Y8831D01*
D02*
X9643Y9871D02*
X9643Y8831D01*
D02*
X9543Y9871D02*
X9543Y8831D01*
D02*
X7643Y9871D02*
X7643Y8831D01*
D02*
X7543Y9871D02*
X7543Y8831D01*
D02*
X7543Y8771D02*
X7543Y7731D01*
D02*
X7643Y8771D02*
X7643Y7731D01*
D02*
X9543Y8771D02*
X9543Y7731D01*
D02*
X9643Y8771D02*
X9643Y7731D01*
D02*
X11543Y8771D02*
X11543Y7731D01*
D02*
X11643Y8771D02*
X11643Y7731D01*
D02*
X11643Y7671D02*
X11643Y6631D01*
D02*
X11543Y7671D02*
X11543Y6631D01*
D02*
X9643Y7671D02*
X9643Y6631D01*
D02*
X9543Y7671D02*
X9543Y6631D01*
D02*
X7643Y7671D02*
X7643Y6631D01*
D02*
X7543Y7671D02*
X7543Y6631D01*
D02*
X7543Y6571D02*
X7543Y5531D01*
D02*
X7643Y6571D02*
X7643Y5531D01*
D02*
X9543Y6571D02*
X9543Y5531D01*
D02*
X9643Y6571D02*
X9643Y5531D01*
D02*
X11543Y6571D02*
X11543Y5531D01*
D02*
X11643Y6571D02*
X11643Y5531D01*
D02*
X11643Y5471D02*
X11643Y4431D01*
D02*
X11543Y5471D02*
X11543Y4431D01*
D02*
X9643Y5471D02*
X9643Y4431D01*
D02*
X9543Y5471D02*
X9543Y4431D01*
D02*
X7643Y5471D02*
X7643Y4431D01*
D02*
X7543Y5471D02*
X7543Y4431D01*
D02*
X7643Y4371D02*
X7643Y3331D01*
D02*
X7543Y4371D02*
X7543Y3331D01*
D02*
X9543Y4371D02*
X9543Y3331D01*
D02*
X9643Y4371D02*
X9643Y3331D01*
D02*
X11543Y4371D02*
X11543Y3331D01*
D02*
X11643Y4371D02*
X11643Y3331D01*
D02*
X11643Y3271D02*
X11643Y2231D01*
D02*
X11543Y3271D02*
X11543Y2231D01*
D02*
X9643Y3271D02*
X9643Y2231D01*
D02*
X9543Y3271D02*
X9543Y2231D01*
D02*
X7643Y3271D02*
X7643Y2231D01*
D02*
X7543Y3271D02*
X7543Y2231D01*
D02*
X12791Y12644D02*
X12080Y12644D01*
D02*
X12794Y1653D02*
X12079Y1653D01*
D02*
X1543Y12644D02*
X293Y12644D01*
D02*
X1543Y13159D02*
X1543Y12644D01*
D02*
X3543Y13159D02*
X3543Y12644D01*
D02*
X3543Y12644D02*
X2641Y12644D01*
D02*
X5543Y13159D02*
X5543Y12644D01*
D02*
X5543Y12644D02*
X4639Y12644D01*
D02*
X7543Y12644D02*
X6641Y12644D01*
D02*
X7543Y13159D02*
X7543Y12644D01*
D02*
X9543Y12644D02*
X8639Y12644D01*
D02*
X9543Y13159D02*
X9543Y12644D01*
D02*
X11543Y13159D02*
X11543Y12644D01*
D02*
X11543Y12644D02*
X10639Y12644D01*
D02*
X1643Y1653D02*
X2564Y1653D01*
D02*
X1643Y1142D02*
X1643Y1653D01*
D02*
X3642Y1653D02*
X4562Y1653D01*
D02*
X3642Y1142D02*
X3642Y1653D01*
D02*
X5642Y1653D02*
X6564Y1653D01*
D02*
X5642Y1142D02*
X5642Y1653D01*
D02*
X7642Y1142D02*
X7642Y1653D01*
D02*
X7642Y1653D02*
X8562Y1653D01*
D02*
X9642Y1653D02*
X10562Y1653D01*
D02*
X9642Y1142D02*
X9642Y1653D01*
D02*
X11642Y1142D02*
X11642Y1653D01*
D02*
X11642Y1653D02*
X12010Y1653D01*
D02*
X10053Y5055D02*
X10053Y7497D01*
D02*
X1280Y1136D02*
X1280Y4975D01*
D02*
X1406Y995D02*
X1406Y4853D01*
D02*
X1310Y995D02*
X1406Y995D01*
D02*
X10516Y4933D02*
X10516Y5596D01*
D02*
X10716Y835D02*
X10716Y5596D01*
D02*
X10916Y5679D02*
X10916Y7070D01*
D02*
X10816Y5679D02*
X10816Y6970D01*
D02*
X10786Y5638D02*
X10746Y5638D01*
D02*
X10153Y7010D02*
X10153Y7497D01*
D02*
X10776Y7010D02*
X10153Y7010D01*
G54D19*
D02*
X10716Y5668D02*
X10716Y6061D01*
D02*
X10416Y5883D02*
X10416Y5668D01*
G54D20*
D02*
X11116Y935D02*
X11116Y5596D01*
G54D21*
D02*
X1211Y1095D02*
X1250Y1095D01*
D02*
X1211Y795D02*
X1250Y795D01*
D02*
X1211Y895D02*
X1250Y895D01*
D02*
X1211Y995D02*
X1250Y995D01*
G54D19*
D02*
X487Y4473D02*
X487Y3973D01*
D02*
X487Y3973D02*
X389Y3973D01*
D02*
X587Y4473D02*
X487Y4473D01*
D02*
X488Y3973D02*
X488Y3473D01*
D02*
X488Y3473D02*
X389Y3473D01*
D02*
X588Y3973D02*
X488Y3973D01*
D02*
X587Y4473D02*
X388Y4473D01*
D02*
X389Y3973D02*
X588Y3973D01*
D02*
X389Y3473D02*
X588Y3473D01*
G54D21*
D02*
X927Y4032D02*
X967Y4032D01*
D02*
X927Y3932D02*
X967Y3932D01*
D02*
X927Y3832D02*
X967Y3832D01*
D02*
X927Y3732D02*
X967Y3732D01*
G54D19*
D02*
X11416Y3751D02*
X11416Y5608D01*
D02*
X11316Y3851D02*
X11316Y5608D01*
D02*
X11216Y3951D02*
X11216Y5608D01*
D02*
X10816Y4051D02*
X10816Y5608D01*
G54D22*
D02*
G04 End of Copper0*
M02*