G04 MADE WITH FRITZING*
G04 WWW.FRITZING.ORG*
G04 DOUBLE SIDED*
G04 HOLES PLATED*
G04 CONTOUR ON CENTER OF CONTOUR VECTOR*
%ASAXBY*%
%FSLAX23Y23*%
%MOIN*%
%OFA0B0*%
%SFA1.0B1.0*%
%ADD10C,0.078000*%
%ADD11C,0.080000*%
%ADD12C,0.039370*%
%ADD13C,0.075433*%
%ADD14C,0.080350*%
%ADD15C,0.070000*%
%ADD16C,0.075000*%
%ADD17R,0.080000X0.080000*%
%ADD18R,0.078000X0.078000*%
%ADD19C,0.024000*%
%ADD20C,0.048000*%
%ADD21R,0.001000X0.001000*%
%LNCOPPER1*%
G90*
G70*
G54D10*
X5542Y1101D03*
X5642Y1101D03*
X5742Y1101D03*
X5842Y1101D03*
X9542Y1101D03*
X9642Y1101D03*
X9742Y1101D03*
X9842Y1101D03*
X1543Y1100D03*
X1643Y1100D03*
X1743Y1100D03*
X1843Y1100D03*
X7542Y1101D03*
X7642Y1101D03*
X7742Y1101D03*
X7842Y1101D03*
X11542Y1101D03*
X11642Y1101D03*
X11742Y1101D03*
X11842Y1101D03*
X3542Y1101D03*
X3642Y1101D03*
X3742Y1101D03*
X3842Y1101D03*
X1543Y2200D03*
X1643Y2200D03*
X1743Y2200D03*
X1843Y2200D03*
X5543Y2201D03*
X5643Y2201D03*
X5743Y2201D03*
X5843Y2201D03*
X7543Y2201D03*
X7643Y2201D03*
X7743Y2201D03*
X7843Y2201D03*
X3543Y2201D03*
X3643Y2201D03*
X3743Y2201D03*
X3843Y2201D03*
X9543Y2201D03*
X9643Y2201D03*
X9743Y2201D03*
X9843Y2201D03*
X11543Y2201D03*
X11643Y2201D03*
X11743Y2201D03*
X11843Y2201D03*
X9543Y3301D03*
X9643Y3301D03*
X9743Y3301D03*
X9843Y3301D03*
X11543Y3301D03*
X11643Y3301D03*
X11743Y3301D03*
X11843Y3301D03*
X1543Y3300D03*
X1643Y3300D03*
X1743Y3300D03*
X1843Y3300D03*
X7543Y3301D03*
X7643Y3301D03*
X7743Y3301D03*
X7843Y3301D03*
X3543Y3301D03*
X3643Y3301D03*
X3743Y3301D03*
X3843Y3301D03*
X5543Y3301D03*
X5643Y3301D03*
X5743Y3301D03*
X5843Y3301D03*
X3543Y4401D03*
X3643Y4401D03*
X3743Y4401D03*
X3843Y4401D03*
X11543Y4401D03*
X11643Y4401D03*
X11743Y4401D03*
X11843Y4401D03*
X9543Y4401D03*
X9643Y4401D03*
X9743Y4401D03*
X9843Y4401D03*
X5543Y4401D03*
X5643Y4401D03*
X5743Y4401D03*
X5843Y4401D03*
X1543Y4400D03*
X1643Y4400D03*
X1743Y4400D03*
X1843Y4400D03*
X7543Y4401D03*
X7643Y4401D03*
X7743Y4401D03*
X7843Y4401D03*
X9543Y5501D03*
X9643Y5501D03*
X9743Y5501D03*
X9843Y5501D03*
X3543Y5501D03*
X3643Y5501D03*
X3743Y5501D03*
X3843Y5501D03*
X5543Y5501D03*
X5643Y5501D03*
X5743Y5501D03*
X5843Y5501D03*
X11543Y5501D03*
X11643Y5501D03*
X11743Y5501D03*
X11843Y5501D03*
X7543Y5501D03*
X7643Y5501D03*
X7743Y5501D03*
X7843Y5501D03*
X1543Y5500D03*
X1643Y5500D03*
X1743Y5500D03*
X1843Y5500D03*
X9543Y6601D03*
X9643Y6601D03*
X9743Y6601D03*
X9843Y6601D03*
X3543Y6601D03*
X3643Y6601D03*
X3743Y6601D03*
X3843Y6601D03*
X5543Y6601D03*
X5643Y6601D03*
X5743Y6601D03*
X5843Y6601D03*
X1543Y6600D03*
X1643Y6600D03*
X1743Y6600D03*
X1843Y6600D03*
X7543Y6601D03*
X7643Y6601D03*
X7743Y6601D03*
X7843Y6601D03*
X11543Y6601D03*
X11643Y6601D03*
X11743Y6601D03*
X11843Y6601D03*
X11543Y7701D03*
X11643Y7701D03*
X11743Y7701D03*
X11843Y7701D03*
X7543Y7701D03*
X7643Y7701D03*
X7743Y7701D03*
X7843Y7701D03*
X3543Y7701D03*
X3643Y7701D03*
X3743Y7701D03*
X3843Y7701D03*
X9543Y7701D03*
X9643Y7701D03*
X9743Y7701D03*
X9843Y7701D03*
X5543Y7701D03*
X5643Y7701D03*
X5743Y7701D03*
X5843Y7701D03*
X1543Y7700D03*
X1643Y7700D03*
X1743Y7700D03*
X1843Y7700D03*
X11543Y8801D03*
X11643Y8801D03*
X11743Y8801D03*
X11843Y8801D03*
X5543Y8801D03*
X5643Y8801D03*
X5743Y8801D03*
X5843Y8801D03*
X1543Y8800D03*
X1643Y8800D03*
X1743Y8800D03*
X1843Y8800D03*
X3543Y8801D03*
X3643Y8801D03*
X3743Y8801D03*
X3843Y8801D03*
X9543Y8801D03*
X9643Y8801D03*
X9743Y8801D03*
X9843Y8801D03*
X7543Y8801D03*
X7643Y8801D03*
X7743Y8801D03*
X7843Y8801D03*
X11543Y9901D03*
X11643Y9901D03*
X11743Y9901D03*
X11843Y9901D03*
X1543Y9900D03*
X1643Y9900D03*
X1743Y9900D03*
X1843Y9900D03*
X5543Y9901D03*
X5643Y9901D03*
X5743Y9901D03*
X5843Y9901D03*
X3543Y9901D03*
X3643Y9901D03*
X3743Y9901D03*
X3843Y9901D03*
X7543Y9901D03*
X7643Y9901D03*
X7743Y9901D03*
X7843Y9901D03*
X9543Y9901D03*
X9643Y9901D03*
X9743Y9901D03*
X9843Y9901D03*
X3543Y11001D03*
X3643Y11001D03*
X3743Y11001D03*
X3843Y11001D03*
X1543Y11000D03*
X1643Y11000D03*
X1743Y11000D03*
X1843Y11000D03*
X7543Y11001D03*
X7643Y11001D03*
X7743Y11001D03*
X7843Y11001D03*
X9543Y11001D03*
X9643Y11001D03*
X9743Y11001D03*
X9843Y11001D03*
X5543Y11001D03*
X5643Y11001D03*
X5743Y11001D03*
X5843Y11001D03*
X11543Y11001D03*
X11643Y11001D03*
X11743Y11001D03*
X11843Y11001D03*
X3542Y12101D03*
X3642Y12101D03*
X3742Y12101D03*
X3842Y12101D03*
X5542Y12101D03*
X5642Y12101D03*
X5742Y12101D03*
X5842Y12101D03*
X9542Y12101D03*
X9642Y12101D03*
X9742Y12101D03*
X9842Y12101D03*
X1543Y12101D03*
X1643Y12101D03*
X1743Y12101D03*
X1843Y12101D03*
X11542Y12101D03*
X11642Y12101D03*
X11742Y12101D03*
X11842Y12101D03*
X7542Y12101D03*
X7642Y12101D03*
X7742Y12101D03*
X7842Y12101D03*
X11543Y13201D03*
X11643Y13201D03*
X11743Y13201D03*
X11843Y13201D03*
X9543Y13201D03*
X9643Y13201D03*
X9743Y13201D03*
X9843Y13201D03*
X7543Y13201D03*
X7643Y13201D03*
X7743Y13201D03*
X7843Y13201D03*
X5543Y13201D03*
X5643Y13201D03*
X5743Y13201D03*
X5843Y13201D03*
X3543Y13201D03*
X3643Y13201D03*
X3743Y13201D03*
X3843Y13201D03*
X1543Y13200D03*
X1643Y13200D03*
X1743Y13200D03*
X1843Y13200D03*
X12817Y7639D03*
X12817Y7539D03*
X12817Y7439D03*
X12817Y7339D03*
X12817Y7239D03*
X12817Y7139D03*
X12817Y7039D03*
X12817Y6939D03*
X12817Y6839D03*
X12817Y6739D03*
X12817Y6639D03*
X12817Y6539D03*
X12817Y6439D03*
X12817Y6339D03*
X12817Y6239D03*
X12817Y6139D03*
X12817Y6039D03*
X12817Y5939D03*
X12817Y5839D03*
X12817Y5739D03*
X12817Y7639D03*
X12817Y7539D03*
X12817Y7439D03*
X12817Y7339D03*
X12817Y7239D03*
X12817Y7139D03*
X12817Y7039D03*
X12817Y6939D03*
X12817Y6839D03*
X12817Y6739D03*
X12817Y6639D03*
X12817Y6539D03*
X12817Y6439D03*
X12817Y6339D03*
X12817Y6239D03*
X12817Y6139D03*
X12817Y6039D03*
X12817Y5939D03*
X12817Y5839D03*
X12817Y5739D03*
X12917Y5739D03*
X12917Y5839D03*
X12917Y5939D03*
X12917Y6039D03*
X12917Y6139D03*
X12917Y6239D03*
X12917Y6339D03*
X12917Y6439D03*
X12917Y6539D03*
X12917Y6639D03*
X12917Y6739D03*
X12917Y6839D03*
X12917Y6939D03*
X12917Y7039D03*
X12917Y7139D03*
X12917Y7239D03*
X12917Y7339D03*
X12917Y7439D03*
X12917Y7539D03*
X12917Y7639D03*
G54D11*
X253Y6611D03*
X253Y6473D03*
G54D12*
X12045Y4293D03*
X12045Y5393D03*
X12045Y6721D03*
X12045Y3187D03*
X12045Y989D03*
X12045Y5801D03*
X12045Y3416D03*
X12045Y6491D03*
X12045Y2089D03*
X12045Y2318D03*
X12045Y1218D03*
X12045Y4523D03*
X12045Y9781D03*
X12045Y10011D03*
X12045Y8913D03*
X12045Y7383D03*
X12045Y7813D03*
X12045Y8683D03*
X12045Y10888D03*
X12045Y11117D03*
X12045Y11988D03*
X12045Y12217D03*
X12045Y13086D03*
X12045Y13315D03*
G54D10*
X253Y7736D03*
X253Y7636D03*
X253Y7536D03*
G54D12*
X13003Y13086D03*
X13063Y11988D03*
X13122Y10888D03*
X13181Y9781D03*
X13240Y8683D03*
X13300Y7741D03*
X13300Y5636D03*
X13240Y5393D03*
X13181Y4293D03*
X13122Y3187D03*
X13063Y2089D03*
X13003Y989D03*
G54D13*
X12820Y12644D03*
X12823Y1653D03*
X12051Y12644D03*
X12050Y1653D03*
X10599Y12644D03*
X10602Y1653D03*
X8599Y12644D03*
X8602Y1653D03*
X6601Y12644D03*
X6604Y1653D03*
X4599Y12644D03*
X4602Y1653D03*
X2601Y12644D03*
X2604Y1653D03*
X253Y12644D03*
X253Y1653D03*
G54D10*
X10416Y5638D03*
X10516Y5638D03*
X10616Y5638D03*
X10716Y5638D03*
X10816Y5638D03*
X10916Y5638D03*
X10053Y7539D03*
X10153Y7539D03*
G54D14*
X180Y944D03*
X377Y1141D03*
X377Y1042D03*
X377Y845D03*
X377Y747D03*
G54D15*
X540Y1141D03*
X540Y1041D03*
X540Y746D03*
X540Y847D03*
G54D16*
X641Y1140D03*
X1041Y1140D03*
X640Y1045D03*
X1040Y1045D03*
X640Y945D03*
X1040Y945D03*
X640Y847D03*
X1040Y847D03*
X640Y747D03*
X1040Y747D03*
G54D10*
X222Y1256D03*
X322Y1256D03*
X422Y1256D03*
X1181Y1095D03*
X1181Y995D03*
X1181Y895D03*
X1181Y795D03*
X1280Y1095D03*
X1280Y995D03*
X1280Y895D03*
X1280Y795D03*
G54D13*
X1280Y5015D03*
X10053Y5015D03*
X1406Y4893D03*
X10516Y4893D03*
X10716Y795D03*
G54D10*
X482Y7110D03*
X482Y7010D03*
X482Y7110D03*
X482Y7010D03*
X582Y7010D03*
X582Y7110D03*
G54D13*
X10816Y7010D03*
X10916Y7110D03*
G54D16*
X616Y5902D03*
X360Y5902D03*
X616Y6080D03*
X360Y6080D03*
G54D12*
X10716Y6080D03*
X10416Y5902D03*
G54D10*
X11116Y5638D03*
X11216Y5638D03*
X11316Y5638D03*
X11416Y5638D03*
G54D13*
X11116Y895D03*
G54D16*
X616Y4296D03*
X360Y4296D03*
X616Y4473D03*
X360Y4473D03*
X616Y3795D03*
X360Y3795D03*
X616Y3973D03*
X360Y3973D03*
X616Y3295D03*
X360Y3295D03*
X616Y3473D03*
X360Y3473D03*
G54D10*
X897Y4032D03*
X897Y3932D03*
X897Y3832D03*
X897Y3732D03*
X897Y4032D03*
X897Y3932D03*
X897Y3832D03*
X897Y3732D03*
X997Y3732D03*
X997Y3832D03*
X997Y3932D03*
X997Y4032D03*
G54D12*
X10816Y4032D03*
X11216Y3932D03*
X11316Y3832D03*
X11416Y3732D03*
G54D17*
X253Y6611D03*
G54D18*
X253Y7736D03*
G54D19*
X1743Y13315D02*
X1743Y13230D01*
D02*
X12026Y13315D02*
X1743Y13315D01*
D02*
X3743Y13315D02*
X3743Y13231D01*
D02*
X12026Y13315D02*
X3743Y13315D01*
D02*
X5743Y13315D02*
X5743Y13231D01*
D02*
X12026Y13315D02*
X5743Y13315D01*
D02*
X7743Y13315D02*
X7743Y13231D01*
D02*
X12026Y13315D02*
X7743Y13315D01*
D02*
X9743Y13315D02*
X9743Y13231D01*
D02*
X12026Y13315D02*
X9743Y13315D01*
D02*
X11743Y13315D02*
X11743Y13231D01*
D02*
X12026Y13315D02*
X11743Y13315D01*
D02*
X1843Y13086D02*
X1843Y13170D01*
D02*
X12026Y13086D02*
X1843Y13086D01*
D02*
X3843Y13086D02*
X3843Y13171D01*
D02*
X12026Y13086D02*
X3843Y13086D01*
D02*
X5843Y13086D02*
X5843Y13171D01*
D02*
X12026Y13086D02*
X5843Y13086D01*
D02*
X7843Y13086D02*
X7843Y13171D01*
D02*
X12026Y13086D02*
X7843Y13086D01*
D02*
X9843Y13086D02*
X9843Y13171D01*
D02*
X12026Y13086D02*
X9843Y13086D01*
D02*
X11843Y13086D02*
X11843Y13171D01*
D02*
X12026Y13086D02*
X11843Y13086D01*
G54D20*
D02*
X253Y7495D02*
X253Y6653D01*
D02*
X253Y7566D02*
X253Y7606D01*
G54D19*
D02*
X1743Y12217D02*
X1743Y12131D01*
D02*
X12026Y12217D02*
X1743Y12217D01*
D02*
X3742Y12217D02*
X3742Y12131D01*
D02*
X12026Y12217D02*
X3742Y12217D01*
D02*
X5742Y12217D02*
X5742Y12131D01*
D02*
X12026Y12217D02*
X5742Y12217D01*
D02*
X7742Y12217D02*
X7742Y12131D01*
D02*
X12026Y12217D02*
X7742Y12217D01*
D02*
X9742Y12217D02*
X9742Y12131D01*
D02*
X12026Y12217D02*
X9742Y12217D01*
D02*
X11742Y12217D02*
X11742Y12131D01*
D02*
X12026Y12217D02*
X11742Y12217D01*
D02*
X1843Y11988D02*
X1843Y12071D01*
D02*
X12026Y11988D02*
X1843Y11988D01*
D02*
X3842Y11988D02*
X3842Y12071D01*
D02*
X12026Y11988D02*
X3842Y11988D01*
D02*
X5842Y11988D02*
X5842Y12071D01*
D02*
X12026Y11988D02*
X5842Y11988D01*
D02*
X7842Y11988D02*
X7842Y12071D01*
D02*
X12026Y11988D02*
X7842Y11988D01*
D02*
X9842Y11988D02*
X9842Y12071D01*
D02*
X12026Y11988D02*
X9842Y11988D01*
D02*
X11842Y11988D02*
X11842Y12071D01*
D02*
X12026Y11988D02*
X11842Y11988D01*
D02*
X1743Y11117D02*
X1743Y11031D01*
D02*
X12026Y11117D02*
X1743Y11117D01*
D02*
X1843Y10888D02*
X1843Y10970D01*
D02*
X12026Y10888D02*
X1843Y10888D01*
D02*
X3743Y11117D02*
X3743Y11031D01*
D02*
X12026Y11117D02*
X3743Y11117D01*
D02*
X5743Y11117D02*
X5743Y11031D01*
D02*
X12026Y11117D02*
X5743Y11117D01*
D02*
X3843Y10888D02*
X3843Y10971D01*
D02*
X12026Y10888D02*
X3843Y10888D01*
D02*
X5843Y10888D02*
X5843Y10971D01*
D02*
X12026Y10888D02*
X5843Y10888D01*
D02*
X7743Y11117D02*
X7743Y11031D01*
D02*
X12026Y11117D02*
X7743Y11117D01*
D02*
X7843Y10888D02*
X7843Y10971D01*
D02*
X12026Y10888D02*
X7843Y10888D01*
D02*
X9743Y11117D02*
X9743Y11031D01*
D02*
X12026Y11117D02*
X9743Y11117D01*
D02*
X9843Y10888D02*
X9843Y10971D01*
D02*
X12026Y10888D02*
X9843Y10888D01*
D02*
X11743Y11117D02*
X11743Y11031D01*
D02*
X12026Y11117D02*
X11743Y11117D01*
D02*
X11843Y10888D02*
X11843Y10971D01*
D02*
X12026Y10888D02*
X11843Y10888D01*
G54D20*
D02*
X12887Y7539D02*
X12847Y7539D01*
D02*
X12887Y5839D02*
X12847Y5839D01*
G54D19*
D02*
X1743Y10011D02*
X1743Y9931D01*
D02*
X12026Y10011D02*
X1743Y10011D01*
D02*
X3743Y10011D02*
X3743Y9931D01*
D02*
X12026Y10011D02*
X3743Y10011D01*
D02*
X5743Y10011D02*
X5743Y9931D01*
D02*
X12026Y10011D02*
X5743Y10011D01*
D02*
X7743Y10011D02*
X7743Y9931D01*
D02*
X12026Y10011D02*
X7743Y10011D01*
D02*
X9743Y10011D02*
X9743Y9931D01*
D02*
X12026Y10011D02*
X9743Y10011D01*
D02*
X11743Y10011D02*
X11743Y9931D01*
D02*
X12026Y10011D02*
X11743Y10011D01*
D02*
X1843Y9781D02*
X1843Y9870D01*
D02*
X12026Y9781D02*
X1843Y9781D01*
D02*
X3843Y9781D02*
X3843Y9871D01*
D02*
X12026Y9781D02*
X3843Y9781D01*
D02*
X5843Y9781D02*
X5843Y9871D01*
D02*
X12026Y9781D02*
X5843Y9781D01*
D02*
X7843Y9781D02*
X7843Y9871D01*
D02*
X12026Y9781D02*
X7843Y9781D01*
D02*
X9843Y9781D02*
X9843Y9871D01*
D02*
X12026Y9781D02*
X9843Y9781D01*
D02*
X11843Y9781D02*
X11843Y9871D01*
D02*
X12026Y9781D02*
X11843Y9781D01*
D02*
X1743Y8913D02*
X1743Y8831D01*
D02*
X12026Y8913D02*
X1743Y8913D01*
D02*
X1743Y7813D02*
X1743Y7730D01*
D02*
X12026Y7813D02*
X1743Y7813D01*
D02*
X1743Y6721D02*
X1743Y6630D01*
D02*
X12026Y6721D02*
X1743Y6721D01*
D02*
X1743Y5801D02*
X1743Y5530D01*
D02*
X12026Y5801D02*
X1743Y5801D01*
D02*
X1743Y4523D02*
X1743Y4431D01*
D02*
X12026Y4523D02*
X1743Y4523D01*
D02*
X1743Y3416D02*
X1743Y3331D01*
D02*
X12026Y3416D02*
X1743Y3416D01*
D02*
X1743Y2318D02*
X1743Y2231D01*
D02*
X12026Y2318D02*
X1743Y2318D01*
D02*
X1743Y1218D02*
X1743Y1131D01*
D02*
X12026Y1218D02*
X1743Y1218D01*
D02*
X1843Y989D02*
X1843Y1070D01*
D02*
X12026Y988D02*
X1843Y989D01*
D02*
X1843Y2089D02*
X1843Y2170D01*
D02*
X12026Y2088D02*
X1843Y2089D01*
D02*
X1843Y3187D02*
X1843Y3270D01*
D02*
X12026Y3187D02*
X1843Y3187D01*
D02*
X1843Y4293D02*
X1843Y4370D01*
D02*
X12026Y4293D02*
X1843Y4293D01*
D02*
X1843Y5393D02*
X1843Y5470D01*
D02*
X12026Y5393D02*
X1843Y5393D01*
D02*
X1843Y6491D02*
X1843Y6570D01*
D02*
X12026Y6491D02*
X1843Y6491D01*
D02*
X1843Y7383D02*
X1843Y7670D01*
D02*
X12026Y7383D02*
X1843Y7383D01*
D02*
X1843Y8683D02*
X1843Y8770D01*
D02*
X12026Y8683D02*
X1843Y8683D01*
D02*
X3743Y8913D02*
X3743Y8831D01*
D02*
X12026Y8913D02*
X3743Y8913D01*
D02*
X3743Y7813D02*
X3743Y7731D01*
D02*
X12026Y7813D02*
X3743Y7813D01*
D02*
X3743Y6721D02*
X3743Y6631D01*
D02*
X12026Y6721D02*
X3743Y6721D01*
D02*
X3743Y5801D02*
X3743Y5531D01*
D02*
X12026Y5801D02*
X3743Y5801D01*
D02*
X3743Y4523D02*
X3743Y4431D01*
D02*
X12026Y4523D02*
X3743Y4523D01*
D02*
X3743Y3416D02*
X3743Y3331D01*
D02*
X12026Y3416D02*
X3743Y3416D01*
D02*
X3743Y2318D02*
X3743Y2231D01*
D02*
X12026Y2318D02*
X3743Y2318D01*
D02*
X3742Y1218D02*
X3742Y1131D01*
D02*
X12026Y1218D02*
X3742Y1218D01*
D02*
X3842Y989D02*
X3842Y1071D01*
D02*
X12026Y988D02*
X3842Y989D01*
D02*
X3843Y2089D02*
X3843Y2171D01*
D02*
X12026Y2088D02*
X3843Y2089D01*
D02*
X3843Y3187D02*
X3843Y3271D01*
D02*
X12026Y3187D02*
X3843Y3187D01*
D02*
X3843Y4293D02*
X3843Y4371D01*
D02*
X12026Y4293D02*
X3843Y4293D01*
D02*
X3843Y5393D02*
X3843Y5471D01*
D02*
X12026Y5393D02*
X3843Y5393D01*
D02*
X3843Y6491D02*
X3843Y6571D01*
D02*
X12026Y6491D02*
X3843Y6491D01*
D02*
X3843Y7383D02*
X3843Y7671D01*
D02*
X12026Y7383D02*
X3843Y7383D01*
D02*
X3843Y8683D02*
X3843Y8771D01*
D02*
X12026Y8683D02*
X3843Y8683D01*
D02*
X5743Y8913D02*
X5743Y8831D01*
D02*
X12026Y8913D02*
X5743Y8913D01*
D02*
X5743Y7813D02*
X5743Y7731D01*
D02*
X12026Y7813D02*
X5743Y7813D01*
D02*
X5743Y6721D02*
X5743Y6631D01*
D02*
X12026Y6721D02*
X5743Y6721D01*
D02*
X5743Y5801D02*
X5743Y5531D01*
D02*
X12026Y5801D02*
X5743Y5801D01*
D02*
X5743Y4523D02*
X5743Y4431D01*
D02*
X12026Y4523D02*
X5743Y4523D01*
D02*
X5743Y3416D02*
X5743Y3331D01*
D02*
X12026Y3416D02*
X5743Y3416D01*
D02*
X5743Y2318D02*
X5743Y2231D01*
D02*
X12026Y2318D02*
X5743Y2318D01*
D02*
X5742Y1218D02*
X5742Y1131D01*
D02*
X12026Y1218D02*
X5742Y1218D01*
D02*
X5842Y989D02*
X5842Y1071D01*
D02*
X12026Y988D02*
X5842Y989D01*
D02*
X5843Y2089D02*
X5843Y2171D01*
D02*
X12026Y2088D02*
X5843Y2089D01*
D02*
X5843Y3187D02*
X5843Y3271D01*
D02*
X12026Y3187D02*
X5843Y3187D01*
D02*
X5843Y4293D02*
X5843Y4371D01*
D02*
X12026Y4293D02*
X5843Y4293D01*
D02*
X5843Y5393D02*
X5843Y5471D01*
D02*
X12026Y5393D02*
X5843Y5393D01*
D02*
X5843Y6491D02*
X5843Y6571D01*
D02*
X12026Y6491D02*
X5843Y6491D01*
D02*
X5843Y7383D02*
X5843Y7671D01*
D02*
X12026Y7383D02*
X5843Y7383D01*
D02*
X5843Y8683D02*
X5843Y8771D01*
D02*
X12026Y8683D02*
X5843Y8683D01*
D02*
X7743Y8913D02*
X7743Y8831D01*
D02*
X12026Y8913D02*
X7743Y8913D01*
D02*
X7743Y7813D02*
X7743Y7731D01*
D02*
X12026Y7813D02*
X7743Y7813D01*
D02*
X7743Y6721D02*
X7743Y6631D01*
D02*
X12026Y6721D02*
X7743Y6721D01*
D02*
X7743Y5801D02*
X7743Y5531D01*
D02*
X12026Y5801D02*
X7743Y5801D01*
D02*
X7743Y4523D02*
X7743Y4431D01*
D02*
X12026Y4523D02*
X7743Y4523D01*
D02*
X7743Y3416D02*
X7743Y3331D01*
D02*
X12026Y3416D02*
X7743Y3416D01*
D02*
X7743Y2318D02*
X7743Y2231D01*
D02*
X12026Y2318D02*
X7743Y2318D01*
D02*
X7742Y1218D02*
X7742Y1131D01*
D02*
X12026Y1218D02*
X7742Y1218D01*
D02*
X7842Y989D02*
X7842Y1071D01*
D02*
X12026Y988D02*
X7842Y989D01*
D02*
X7843Y2089D02*
X7843Y2171D01*
D02*
X12026Y2088D02*
X7843Y2089D01*
D02*
X7843Y3187D02*
X7843Y3271D01*
D02*
X12026Y3187D02*
X7843Y3187D01*
D02*
X7843Y4293D02*
X7843Y4371D01*
D02*
X12026Y4293D02*
X7843Y4293D01*
D02*
X7843Y5393D02*
X7843Y5471D01*
D02*
X12026Y5393D02*
X7843Y5393D01*
D02*
X7843Y6491D02*
X7843Y6571D01*
D02*
X12026Y6491D02*
X7843Y6491D01*
D02*
X7843Y7383D02*
X7843Y7671D01*
D02*
X12026Y7383D02*
X7843Y7383D01*
D02*
X7843Y8683D02*
X7843Y8771D01*
D02*
X12026Y8683D02*
X7843Y8683D01*
D02*
X9743Y8913D02*
X9743Y8831D01*
D02*
X12026Y8913D02*
X9743Y8913D01*
D02*
X9743Y7813D02*
X9743Y7731D01*
D02*
X12026Y7813D02*
X9743Y7813D01*
D02*
X9743Y6721D02*
X9743Y6631D01*
D02*
X12026Y6721D02*
X9743Y6721D01*
D02*
X9743Y5801D02*
X9743Y5531D01*
D02*
X12026Y5801D02*
X9743Y5801D01*
D02*
X9743Y4523D02*
X9743Y4431D01*
D02*
X12026Y4523D02*
X9743Y4523D01*
D02*
X9743Y3416D02*
X9743Y3331D01*
D02*
X12026Y3416D02*
X9743Y3416D01*
D02*
X9743Y2318D02*
X9743Y2231D01*
D02*
X12026Y2318D02*
X9743Y2318D01*
D02*
X9742Y1218D02*
X9742Y1131D01*
D02*
X12026Y1218D02*
X9742Y1218D01*
D02*
X9842Y989D02*
X9842Y1071D01*
D02*
X12026Y988D02*
X9842Y989D01*
D02*
X9843Y2089D02*
X9843Y2171D01*
D02*
X12026Y2088D02*
X9843Y2089D01*
D02*
X9843Y3187D02*
X9843Y3271D01*
D02*
X12026Y3187D02*
X9843Y3187D01*
D02*
X9843Y4293D02*
X9843Y4371D01*
D02*
X12026Y4293D02*
X9843Y4293D01*
D02*
X9843Y5393D02*
X9843Y5471D01*
D02*
X12026Y5393D02*
X9843Y5393D01*
D02*
X9843Y6491D02*
X9843Y6571D01*
D02*
X12026Y6491D02*
X9843Y6491D01*
D02*
X9843Y7383D02*
X9843Y7671D01*
D02*
X12026Y7383D02*
X9843Y7383D01*
D02*
X9843Y8683D02*
X9843Y8771D01*
D02*
X12026Y8683D02*
X9843Y8683D01*
D02*
X11743Y8913D02*
X11743Y8831D01*
D02*
X12026Y8913D02*
X11743Y8913D01*
D02*
X11843Y8683D02*
X11843Y8771D01*
D02*
X12026Y8683D02*
X11843Y8683D01*
D02*
X11743Y7813D02*
X11743Y7731D01*
D02*
X12026Y7813D02*
X11743Y7813D01*
D02*
X11843Y7383D02*
X11843Y7671D01*
D02*
X12026Y7383D02*
X11843Y7383D01*
D02*
X11743Y6721D02*
X11743Y6631D01*
D02*
X12026Y6721D02*
X11743Y6721D01*
D02*
X11843Y6491D02*
X11843Y6571D01*
D02*
X12026Y6491D02*
X11843Y6491D01*
D02*
X11743Y5801D02*
X11743Y5531D01*
D02*
X12026Y5801D02*
X11743Y5801D01*
D02*
X11843Y5393D02*
X11843Y5471D01*
D02*
X12026Y5393D02*
X11843Y5393D01*
D02*
X11743Y4523D02*
X11743Y4431D01*
D02*
X12026Y4523D02*
X11743Y4523D01*
D02*
X11843Y4293D02*
X11843Y4371D01*
D02*
X12026Y4293D02*
X11843Y4293D01*
D02*
X11743Y3416D02*
X11743Y3331D01*
D02*
X12026Y3416D02*
X11743Y3416D01*
D02*
X11843Y3187D02*
X11843Y3271D01*
D02*
X12026Y3187D02*
X11843Y3187D01*
D02*
X11743Y2318D02*
X11743Y2231D01*
D02*
X12026Y2318D02*
X11743Y2318D01*
D02*
X11843Y2089D02*
X11843Y2171D01*
D02*
X12026Y2088D02*
X11843Y2089D01*
D02*
X11742Y1218D02*
X11742Y1131D01*
D02*
X12026Y1218D02*
X11742Y1218D01*
D02*
X11842Y989D02*
X11842Y1071D01*
D02*
X12026Y988D02*
X11842Y989D01*
D02*
X13003Y13067D02*
X13003Y7439D01*
D02*
X13003Y7439D02*
X12947Y7439D01*
D02*
X13063Y7339D02*
X12947Y7339D01*
D02*
X13063Y11969D02*
X13063Y7339D01*
D02*
X13122Y7239D02*
X12947Y7239D01*
D02*
X13122Y10869D02*
X13122Y7239D01*
D02*
X13181Y9762D02*
X13181Y7139D01*
D02*
X13181Y7139D02*
X12947Y7139D01*
D02*
X13240Y8664D02*
X13240Y7039D01*
D02*
X13240Y7039D02*
X12947Y7039D01*
D02*
X13300Y6939D02*
X12947Y6939D01*
D02*
X13300Y7722D02*
X13300Y6939D01*
D02*
X13300Y5655D02*
X13300Y6839D01*
D02*
X13300Y6839D02*
X12947Y6839D01*
D02*
X13240Y5412D02*
X13240Y6739D01*
D02*
X13240Y6739D02*
X12947Y6739D01*
D02*
X13181Y4312D02*
X13181Y6639D01*
D02*
X13181Y6639D02*
X12947Y6639D01*
D02*
X13122Y6539D02*
X12947Y6539D01*
D02*
X13122Y3206D02*
X13122Y6539D01*
D02*
X13063Y2107D02*
X13063Y6439D01*
D02*
X13063Y6439D02*
X12947Y6439D01*
D02*
X13003Y6339D02*
X12947Y6339D01*
D02*
X13003Y1007D02*
X13003Y6339D01*
D02*
X12652Y13315D02*
X12652Y7439D01*
D02*
X12064Y13315D02*
X12652Y13315D01*
D02*
X12652Y7439D02*
X12787Y7439D01*
D02*
X12593Y12217D02*
X12593Y7339D01*
D02*
X12064Y12217D02*
X12593Y12217D01*
D02*
X12593Y7339D02*
X12787Y7339D01*
D02*
X12534Y11117D02*
X12534Y7239D01*
D02*
X12534Y7239D02*
X12787Y7239D01*
D02*
X12064Y11117D02*
X12534Y11117D01*
D02*
X12475Y7139D02*
X12787Y7139D01*
D02*
X12475Y10011D02*
X12475Y7139D01*
D02*
X12064Y10011D02*
X12475Y10011D01*
D02*
X12415Y8913D02*
X12415Y7039D01*
D02*
X12415Y7039D02*
X12787Y7039D01*
D02*
X12064Y8913D02*
X12415Y8913D01*
D02*
X12356Y7813D02*
X12356Y6939D01*
D02*
X12064Y7813D02*
X12356Y7813D01*
D02*
X12356Y6939D02*
X12787Y6939D01*
D02*
X12356Y6721D02*
X12356Y6839D01*
D02*
X12064Y6721D02*
X12356Y6721D01*
D02*
X12356Y6839D02*
X12787Y6839D01*
D02*
X12415Y5801D02*
X12415Y6739D01*
D02*
X12415Y6739D02*
X12787Y6739D01*
D02*
X12064Y5801D02*
X12415Y5801D01*
D02*
X12475Y4523D02*
X12475Y6639D01*
D02*
X12475Y6639D02*
X12787Y6639D01*
D02*
X12064Y4523D02*
X12475Y4523D01*
D02*
X12534Y3416D02*
X12534Y6539D01*
D02*
X12534Y6539D02*
X12787Y6539D01*
D02*
X12064Y3416D02*
X12534Y3416D01*
D02*
X12593Y6439D02*
X12787Y6439D01*
D02*
X12593Y2318D02*
X12593Y6439D01*
D02*
X12064Y2318D02*
X12593Y2318D01*
D02*
X12652Y6339D02*
X12787Y6339D01*
D02*
X12652Y1218D02*
X12652Y6339D01*
D02*
X12064Y1218D02*
X12652Y1218D01*
G54D20*
D02*
X12917Y7569D02*
X12917Y7608D01*
D02*
X12917Y5808D02*
X12917Y5769D01*
D02*
X12817Y7669D02*
X12820Y12615D01*
D02*
X12823Y1681D02*
X12817Y5708D01*
D02*
X12022Y12644D02*
X10628Y12644D01*
D02*
X10570Y12644D02*
X8628Y12644D01*
D02*
X8570Y12644D02*
X6630Y12644D01*
D02*
X6573Y12644D02*
X4628Y12644D01*
D02*
X4570Y12644D02*
X2630Y12644D01*
D02*
X253Y12605D02*
X253Y7777D01*
D02*
X2561Y12644D02*
X293Y12644D01*
D02*
X12021Y1653D02*
X10631Y1653D01*
D02*
X10573Y1653D02*
X8631Y1653D01*
D02*
X8573Y1653D02*
X6633Y1653D01*
D02*
X6575Y1653D02*
X4631Y1653D01*
D02*
X4573Y1653D02*
X2632Y1653D01*
D02*
X253Y1693D02*
X253Y6431D01*
D02*
X2564Y1653D02*
X293Y1653D01*
G54D19*
D02*
X540Y945D02*
X540Y1015D01*
D02*
X612Y945D02*
X540Y945D01*
D02*
X611Y847D02*
X566Y847D01*
D02*
X640Y1074D02*
X640Y1111D01*
D02*
X1040Y974D02*
X1040Y1017D01*
D02*
X1040Y917D02*
X1040Y876D01*
D02*
X1040Y818D02*
X1040Y776D01*
D02*
X641Y1168D02*
X641Y1208D01*
D02*
X641Y1208D02*
X1181Y1208D01*
D02*
X1181Y1208D02*
X1181Y1125D01*
D02*
X1150Y995D02*
X1110Y995D01*
D02*
X1110Y1140D02*
X1069Y1140D01*
D02*
X1110Y995D02*
X1110Y1140D01*
D02*
X1040Y895D02*
X1150Y895D01*
D02*
X1040Y776D02*
X1040Y895D01*
D02*
X640Y676D02*
X640Y719D01*
D02*
X1181Y676D02*
X640Y676D01*
D02*
X1181Y764D02*
X1181Y676D01*
D02*
X418Y1141D02*
X514Y1141D01*
D02*
X377Y1099D02*
X377Y1084D01*
D02*
X377Y788D02*
X377Y804D01*
D02*
X418Y747D02*
X514Y747D01*
D02*
X291Y802D02*
X180Y802D01*
D02*
X180Y802D02*
X180Y903D01*
D02*
X291Y676D02*
X291Y802D01*
D02*
X640Y676D02*
X291Y676D01*
D02*
X640Y719D02*
X640Y676D01*
D02*
X131Y1256D02*
X192Y1256D01*
D02*
X131Y1050D02*
X131Y1256D01*
D02*
X180Y985D02*
X180Y1050D01*
D02*
X180Y1050D02*
X131Y1050D01*
D02*
X540Y1256D02*
X452Y1256D01*
D02*
X540Y1167D02*
X540Y1256D01*
D02*
X291Y845D02*
X291Y1192D01*
D02*
X336Y845D02*
X291Y845D01*
D02*
X322Y1192D02*
X322Y1226D01*
D02*
X291Y1192D02*
X322Y1192D01*
G54D20*
D02*
X1320Y5015D02*
X10013Y5015D01*
D02*
X1446Y4893D02*
X10476Y4893D01*
D02*
X1321Y895D02*
X11076Y895D01*
D02*
X1321Y795D02*
X10676Y795D01*
D02*
X482Y6473D02*
X482Y6969D01*
D02*
X295Y6473D02*
X482Y6473D01*
D02*
X482Y7151D02*
X482Y7736D01*
D02*
X482Y7736D02*
X294Y7736D01*
D02*
X10876Y7110D02*
X623Y7110D01*
D02*
X10776Y7010D02*
X623Y7010D01*
G54D19*
D02*
X10697Y6080D02*
X644Y6080D01*
D02*
X587Y6080D02*
X389Y6080D01*
D02*
X587Y5902D02*
X389Y5902D01*
D02*
X644Y5902D02*
X10397Y5902D01*
D02*
X897Y3702D02*
X897Y3295D01*
D02*
X897Y3295D02*
X645Y3295D01*
D02*
X749Y3795D02*
X645Y3795D01*
D02*
X749Y3832D02*
X749Y3795D01*
D02*
X867Y3832D02*
X749Y3832D01*
D02*
X749Y4296D02*
X749Y3932D01*
D02*
X749Y3932D02*
X867Y3932D01*
D02*
X644Y4296D02*
X749Y4296D01*
D02*
X897Y4473D02*
X897Y4062D01*
D02*
X644Y4473D02*
X897Y4473D01*
D02*
X587Y4296D02*
X388Y4296D01*
D02*
X588Y3795D02*
X389Y3795D01*
D02*
X588Y3295D02*
X389Y3295D01*
D02*
X1027Y4032D02*
X10797Y4032D01*
D02*
X1027Y3932D02*
X11197Y3932D01*
D02*
X1027Y3832D02*
X11297Y3832D01*
D02*
X1027Y3732D02*
X11397Y3732D01*
G54D21*
D02*
G04 End of Copper1*
M02*