; NON-PLATED HOLES START AT T1
; THROUGH (PLATED) HOLES START AT T100
M48
INCH
T1C0.044000
T2C0.086614
T100C0.030000
T101C0.060350
T102C0.038000
T103C0.035000
%
T1
X001819Y001990
X001819Y005926
X003787Y003958
X000835Y001990
X000835Y005926
T2
X012016Y000639
X000633Y000639
X012016Y007232
X000646Y007232
T100
X005419Y004926
X005415Y002985
X005419Y005928
X005415Y001984
T101
X001819Y003958
X003787Y001990
X003787Y002974
X003787Y004942
X003787Y005926
T102
X011821Y002465
X011821Y005465
X011821Y003465
X004237Y007080
X003237Y007080
X011821Y004465
X002237Y007080
T103
X010412Y001993
X010412Y002990
X006422Y005916
X010419Y003971
X006415Y004971
X010422Y005916
X006412Y001993
X006412Y002990
X010415Y004971
X006419Y003971
T00
M30
