G04 MADE WITH FRITZING*
G04 WWW.FRITZING.ORG*
G04 DOUBLE SIDED*
G04 HOLES PLATED*
G04 CONTOUR ON CENTER OF CONTOUR VECTOR*
%ASAXBY*%
%FSLAX23Y23*%
%MOIN*%
%OFA0B0*%
%SFA1.0B1.0*%
%ADD10C,0.078000*%
%ADD11C,0.080350*%
%ADD12C,0.070000*%
%ADD13C,0.075000*%
%ADD14C,0.039370*%
%ADD15C,0.024000*%
%ADD16C,0.016000*%
%ADD17R,0.001000X0.001000*%
%LNCOPPER1*%
G90*
G70*
G54D10*
X1803Y2601D03*
X1903Y2601D03*
X2003Y2601D03*
X2103Y2601D03*
X2203Y2601D03*
X2303Y2601D03*
X2403Y2601D03*
X2503Y2601D03*
X743Y2600D03*
X843Y2600D03*
X943Y2600D03*
X1043Y2600D03*
X1143Y2600D03*
X1243Y2600D03*
X1343Y2600D03*
X1443Y2600D03*
X1543Y2600D03*
X1643Y2600D03*
X1108Y301D03*
X1208Y301D03*
X1308Y301D03*
X1408Y301D03*
X1508Y301D03*
X1608Y301D03*
X1708Y301D03*
X1808Y301D03*
X2706Y2601D03*
X2806Y2601D03*
X2906Y2601D03*
X3006Y2601D03*
X3106Y2601D03*
X3206Y2601D03*
X3306Y2601D03*
X3406Y2601D03*
X2006Y300D03*
X2106Y300D03*
X2206Y300D03*
X2306Y300D03*
X2406Y300D03*
X2506Y300D03*
X2606Y300D03*
X2706Y300D03*
X2905Y300D03*
X3005Y300D03*
X3105Y300D03*
X3205Y300D03*
X3305Y300D03*
X3405Y300D03*
X3505Y300D03*
X3605Y300D03*
X743Y2400D03*
X843Y2400D03*
X943Y2400D03*
X1043Y2400D03*
X1143Y2400D03*
X1243Y2400D03*
X1343Y2400D03*
X1443Y2400D03*
X1543Y2400D03*
X1643Y2400D03*
X1803Y2401D03*
X1903Y2401D03*
X2003Y2401D03*
X2103Y2401D03*
X2203Y2401D03*
X2303Y2401D03*
X2403Y2401D03*
X2503Y2401D03*
X2905Y501D03*
X3005Y501D03*
X3105Y501D03*
X3205Y501D03*
X3305Y501D03*
X3405Y501D03*
X3505Y501D03*
X3605Y501D03*
X2006Y501D03*
X2106Y501D03*
X2206Y501D03*
X2306Y501D03*
X2406Y501D03*
X2506Y501D03*
X2606Y501D03*
X2706Y501D03*
X2706Y2401D03*
X2806Y2401D03*
X2906Y2401D03*
X3006Y2401D03*
X3106Y2401D03*
X3206Y2401D03*
X3306Y2401D03*
X3406Y2401D03*
X1108Y500D03*
X1208Y500D03*
X1308Y500D03*
X1408Y500D03*
X1508Y500D03*
X1608Y500D03*
X1708Y500D03*
X1808Y500D03*
X3708Y2398D03*
X3708Y2298D03*
X3708Y2198D03*
X3708Y2098D03*
X3708Y1998D03*
X3708Y1898D03*
X3708Y1798D03*
X3708Y1698D03*
X3708Y1598D03*
X3708Y1498D03*
X3708Y1398D03*
X3708Y1298D03*
X3708Y1198D03*
X3708Y1098D03*
X3708Y998D03*
X3708Y898D03*
X3708Y798D03*
X3708Y698D03*
X3708Y2398D03*
X3708Y2298D03*
X3708Y2198D03*
X3708Y2098D03*
X3708Y1998D03*
X3708Y1898D03*
X3708Y1798D03*
X3708Y1698D03*
X3708Y1598D03*
X3708Y1498D03*
X3708Y1398D03*
X3708Y1298D03*
X3708Y1198D03*
X3708Y1098D03*
X3708Y998D03*
X3708Y898D03*
X3708Y798D03*
X3708Y698D03*
X3808Y698D03*
X3808Y798D03*
X3808Y898D03*
X3808Y998D03*
X3808Y1098D03*
X3808Y1198D03*
X3808Y1298D03*
X3808Y1398D03*
X3808Y1498D03*
X3808Y1598D03*
X3808Y1698D03*
X3808Y1798D03*
X3808Y1898D03*
X3808Y1998D03*
X3808Y2098D03*
X3808Y2198D03*
X3808Y2298D03*
X3808Y2398D03*
X647Y2183D03*
X747Y2183D03*
X847Y2183D03*
X647Y2183D03*
X747Y2183D03*
X847Y2183D03*
X847Y2283D03*
X747Y2283D03*
X647Y2283D03*
G54D11*
X187Y1047D03*
X384Y1244D03*
X384Y1146D03*
X384Y949D03*
X384Y851D03*
G54D10*
X2528Y1605D03*
X2528Y1505D03*
X2528Y1405D03*
X2528Y1605D03*
X2528Y1505D03*
X2528Y1405D03*
X2628Y1405D03*
X2628Y1505D03*
X2628Y1605D03*
X720Y1996D03*
X720Y1896D03*
X720Y1796D03*
X720Y1696D03*
X720Y1596D03*
X1905Y101D03*
X2005Y101D03*
X2105Y101D03*
X2205Y101D03*
X2305Y101D03*
X2405Y101D03*
X2505Y101D03*
X2605Y101D03*
X2705Y101D03*
X2805Y101D03*
X2905Y101D03*
X3005Y101D03*
X3105Y101D03*
X3205Y101D03*
X3305Y101D03*
X3405Y101D03*
X3505Y101D03*
X3605Y101D03*
G54D12*
X547Y1244D03*
X547Y1144D03*
X547Y850D03*
X547Y950D03*
G54D13*
X648Y1243D03*
X1048Y1243D03*
X647Y1149D03*
X1047Y1149D03*
X647Y1049D03*
X1047Y1049D03*
X647Y951D03*
X1047Y951D03*
X647Y851D03*
X1047Y851D03*
G54D10*
X1188Y1198D03*
X1188Y1098D03*
X1188Y998D03*
X1188Y898D03*
G54D14*
X2717Y798D03*
X2772Y736D03*
G54D13*
X395Y2413D03*
X139Y2413D03*
X395Y2590D03*
X139Y2590D03*
G54D10*
X1044Y1796D03*
X1244Y1796D03*
G54D13*
X1645Y1796D03*
X1645Y2196D03*
G54D10*
X2102Y2100D03*
X2102Y2200D03*
X1855Y1250D03*
X1955Y1250D03*
X2055Y1250D03*
X1855Y1650D03*
X1955Y1650D03*
X2055Y1650D03*
G54D14*
X1507Y1108D03*
G54D10*
X410Y301D03*
X510Y301D03*
X610Y301D03*
X710Y301D03*
X810Y301D03*
X910Y301D03*
G54D14*
X810Y709D03*
X1707Y901D03*
X1608Y898D03*
G54D13*
X3290Y1081D03*
X3034Y1081D03*
X3290Y1259D03*
X3034Y1259D03*
X3290Y1641D03*
X3034Y1641D03*
X3290Y1818D03*
X3034Y1818D03*
X3289Y1361D03*
X3033Y1361D03*
X3289Y1538D03*
X3033Y1538D03*
G54D14*
X2206Y1737D03*
X2148Y1818D03*
X2306Y1259D03*
G54D15*
X743Y2430D02*
X743Y2570D01*
D02*
X547Y1049D02*
X547Y1118D01*
D02*
X843Y2430D02*
X843Y2570D01*
D02*
X943Y2430D02*
X943Y2570D01*
D02*
X619Y1049D02*
X547Y1049D01*
D02*
X1043Y2430D02*
X1043Y2570D01*
D02*
X1143Y2430D02*
X1143Y2570D01*
D02*
X1243Y2430D02*
X1243Y2570D01*
D02*
X618Y951D02*
X573Y950D01*
D02*
X647Y1177D02*
X647Y1215D01*
D02*
X1343Y2430D02*
X1343Y2570D01*
D02*
X1443Y2430D02*
X1443Y2570D01*
D02*
X1543Y2430D02*
X1543Y2570D01*
D02*
X1047Y1077D02*
X1047Y1120D01*
D02*
X1643Y2430D02*
X1643Y2570D01*
D02*
X1047Y1020D02*
X1047Y979D01*
D02*
X1803Y2431D02*
X1803Y2571D01*
D02*
X1903Y2431D02*
X1903Y2571D01*
D02*
X1047Y922D02*
X1047Y880D01*
D02*
X2003Y2431D02*
X2003Y2571D01*
D02*
X2103Y2431D02*
X2103Y2571D01*
D02*
X1188Y1311D02*
X1188Y1228D01*
D02*
X2203Y2431D02*
X2203Y2571D01*
D02*
X2303Y2431D02*
X2303Y2571D01*
D02*
X648Y1311D02*
X1188Y1311D01*
D02*
X648Y1272D02*
X648Y1311D01*
D02*
X2403Y2431D02*
X2403Y2571D01*
D02*
X2503Y2431D02*
X2503Y2571D01*
D02*
X1117Y1243D02*
X1076Y1243D01*
D02*
X2706Y2431D02*
X2706Y2571D01*
D02*
X1117Y1098D02*
X1117Y1243D01*
D02*
X2806Y2431D02*
X2806Y2571D01*
D02*
X2906Y2431D02*
X2906Y2571D01*
D02*
X1157Y1098D02*
X1117Y1098D01*
D02*
X3006Y2431D02*
X3006Y2571D01*
D02*
X3106Y2431D02*
X3106Y2571D01*
D02*
X3206Y2431D02*
X3206Y2571D01*
D02*
X1047Y998D02*
X1157Y998D01*
D02*
X1047Y880D02*
X1047Y998D01*
D02*
X3306Y2431D02*
X3306Y2571D01*
D02*
X647Y780D02*
X647Y822D01*
D02*
X3406Y2431D02*
X3406Y2571D01*
D02*
X1188Y780D02*
X647Y780D01*
D02*
X3605Y331D02*
X3605Y471D01*
D02*
X3505Y331D02*
X3505Y471D01*
D02*
X1188Y868D02*
X1188Y780D01*
D02*
X3405Y331D02*
X3405Y471D01*
D02*
X425Y1244D02*
X521Y1244D01*
D02*
X3305Y331D02*
X3305Y471D01*
D02*
X3205Y331D02*
X3205Y471D01*
D02*
X384Y1203D02*
X384Y1187D01*
D02*
X3105Y331D02*
X3105Y471D01*
D02*
X3005Y331D02*
X3005Y471D01*
D02*
X2905Y331D02*
X2905Y471D01*
D02*
X2706Y331D02*
X2706Y471D01*
D02*
X2606Y331D02*
X2606Y471D01*
D02*
X2506Y331D02*
X2506Y471D01*
D02*
X384Y892D02*
X384Y908D01*
D02*
X2406Y331D02*
X2406Y471D01*
D02*
X425Y850D02*
X521Y850D01*
D02*
X2306Y331D02*
X2306Y471D01*
D02*
X2206Y331D02*
X2206Y471D01*
D02*
X2106Y331D02*
X2106Y471D01*
D02*
X2006Y331D02*
X2006Y471D01*
D02*
X1808Y331D02*
X1808Y470D01*
D02*
X1708Y331D02*
X1708Y470D01*
D02*
X1608Y331D02*
X1608Y470D01*
D02*
X1508Y331D02*
X1508Y470D01*
D02*
X1408Y331D02*
X1408Y470D01*
D02*
X1308Y331D02*
X1308Y470D01*
D02*
X1208Y331D02*
X1208Y470D01*
D02*
X1108Y331D02*
X1108Y470D01*
D02*
X3306Y2370D02*
X3306Y1996D01*
D02*
X3306Y1996D02*
X750Y1996D01*
D02*
X3406Y2370D02*
X3406Y1896D01*
D02*
X3406Y1896D02*
X750Y1896D01*
D02*
X1508Y1596D02*
X750Y1596D01*
D02*
X1508Y531D02*
X1507Y1089D01*
D02*
X1608Y1696D02*
X750Y1696D01*
D02*
X1408Y1098D02*
X1218Y1098D01*
D02*
X1408Y531D02*
X1408Y1098D01*
D02*
X253Y1696D02*
X690Y1696D01*
D02*
X253Y1047D02*
X253Y1696D01*
D02*
X229Y1047D02*
X253Y1047D01*
D02*
X89Y922D02*
X89Y1172D01*
D02*
X138Y1172D02*
X138Y1796D01*
D02*
X138Y922D02*
X89Y922D01*
D02*
X89Y1172D02*
X138Y1172D01*
D02*
X138Y301D02*
X138Y922D01*
D02*
X380Y301D02*
X138Y301D01*
D02*
X138Y1796D02*
X690Y1796D01*
D02*
X252Y385D02*
X252Y1047D01*
D02*
X510Y385D02*
X252Y385D01*
D02*
X252Y1047D02*
X229Y1047D01*
D02*
X510Y332D02*
X510Y385D01*
D02*
X302Y618D02*
X302Y1146D01*
D02*
X662Y618D02*
X302Y618D01*
D02*
X302Y1146D02*
X343Y1146D01*
D02*
X610Y332D02*
X610Y385D01*
D02*
X710Y666D02*
X547Y666D01*
D02*
X547Y666D02*
X547Y824D01*
D02*
X710Y332D02*
X710Y666D01*
G54D16*
D02*
X3605Y126D02*
X3605Y276D01*
D02*
X3505Y126D02*
X3505Y276D01*
D02*
X3405Y126D02*
X3405Y276D01*
D02*
X3305Y126D02*
X3305Y276D01*
D02*
X3205Y126D02*
X3205Y276D01*
D02*
X3105Y126D02*
X3105Y276D01*
D02*
X3005Y126D02*
X3005Y276D01*
D02*
X2905Y126D02*
X2905Y276D01*
D02*
X1708Y101D02*
X1880Y101D01*
D02*
X1708Y277D02*
X1708Y101D01*
D02*
X2717Y278D02*
X2794Y123D01*
D02*
X2617Y278D02*
X2694Y123D01*
D02*
X2517Y278D02*
X2594Y123D01*
D02*
X2417Y278D02*
X2494Y123D01*
D02*
X2703Y798D02*
X1887Y798D01*
D02*
X1887Y798D02*
X1887Y177D01*
D02*
X1887Y177D02*
X2005Y177D01*
D02*
X2005Y177D02*
X2005Y126D01*
D02*
X2759Y736D02*
X1931Y736D01*
D02*
X1931Y736D02*
X1931Y226D01*
D02*
X1931Y226D02*
X2105Y226D01*
D02*
X2105Y226D02*
X2105Y126D01*
G54D15*
D02*
X1955Y1081D02*
X1955Y1220D01*
D02*
X1807Y1081D02*
X1955Y1081D01*
D02*
X1807Y798D02*
X1807Y1081D01*
D02*
X1708Y798D02*
X1807Y798D01*
D02*
X1708Y531D02*
X1708Y798D01*
D02*
X1608Y917D02*
X1608Y1696D01*
D02*
X1608Y879D02*
X1608Y531D01*
D02*
X1707Y920D02*
X1707Y1250D01*
D02*
X1707Y1250D02*
X1825Y1250D01*
D02*
X910Y201D02*
X910Y271D01*
D02*
X1508Y201D02*
X910Y201D01*
D02*
X1508Y271D02*
X1508Y201D01*
D02*
X810Y332D02*
X810Y690D01*
D02*
X662Y385D02*
X662Y618D01*
D02*
X610Y385D02*
X662Y385D01*
D02*
X1507Y1127D02*
X1508Y1596D01*
D02*
X2325Y1259D02*
X3005Y1259D01*
D02*
X2829Y1538D02*
X3005Y1538D01*
D02*
X2829Y1737D02*
X2829Y1538D01*
D02*
X2225Y1737D02*
X2829Y1737D01*
D02*
X3005Y1818D02*
X2167Y1818D01*
D02*
X1678Y301D02*
X1638Y301D01*
D02*
X1677Y500D02*
X1638Y500D01*
D02*
X3163Y1361D02*
X3163Y1081D01*
D02*
X3163Y1081D02*
X3261Y1081D01*
D02*
X3161Y1641D02*
X3161Y1361D01*
D02*
X3161Y1361D02*
X3260Y1361D01*
D02*
X3063Y1641D02*
X3261Y1641D01*
D02*
X3063Y1641D02*
X3161Y1641D01*
D02*
X3062Y1361D02*
X3260Y1361D01*
D02*
X3062Y1361D02*
X3163Y1361D01*
D02*
X3063Y1081D02*
X3261Y1081D01*
D02*
X1955Y1081D02*
X3005Y1081D01*
D02*
X1955Y1220D02*
X1955Y1081D01*
G54D17*
D02*
G04 End of Copper1*
M02*