G04 MADE WITH FRITZING*
G04 WWW.FRITZING.ORG*
G04 DOUBLE SIDED*
G04 HOLES PLATED*
G04 CONTOUR ON CENTER OF CONTOUR VECTOR*
%ASAXBY*%
%FSLAX23Y23*%
%MOIN*%
%OFA0B0*%
%SFA1.0B1.0*%
%ADD10C,0.088000*%
%ADD11C,0.135984*%
%ADD12C,0.090350*%
%ADD13C,0.054000*%
%ADD14C,0.080000*%
%ADD15C,0.085000*%
%ADD16C,0.049370*%
%LNMASK1*%
G90*
G70*
G54D10*
X1803Y2601D03*
X1903Y2601D03*
X2003Y2601D03*
X2103Y2601D03*
X2203Y2601D03*
X2303Y2601D03*
X2403Y2601D03*
X2503Y2601D03*
X743Y2600D03*
X843Y2600D03*
X943Y2600D03*
X1043Y2600D03*
X1143Y2600D03*
X1243Y2600D03*
X1343Y2600D03*
X1443Y2600D03*
X1543Y2600D03*
X1643Y2600D03*
X1108Y301D03*
X1208Y301D03*
X1308Y301D03*
X1408Y301D03*
X1508Y301D03*
X1608Y301D03*
X1708Y301D03*
X1808Y301D03*
X2706Y2601D03*
X2806Y2601D03*
X2906Y2601D03*
X3006Y2601D03*
X3106Y2601D03*
X3206Y2601D03*
X3306Y2601D03*
X3406Y2601D03*
X2006Y300D03*
X2106Y300D03*
X2206Y300D03*
X2306Y300D03*
X2406Y300D03*
X2506Y300D03*
X2606Y300D03*
X2706Y300D03*
X2905Y300D03*
X3005Y300D03*
X3105Y300D03*
X3205Y300D03*
X3305Y300D03*
X3405Y300D03*
X3505Y300D03*
X3605Y300D03*
X743Y2400D03*
X843Y2400D03*
X943Y2400D03*
X1043Y2400D03*
X1143Y2400D03*
X1243Y2400D03*
X1343Y2400D03*
X1443Y2400D03*
X1543Y2400D03*
X1643Y2400D03*
X1803Y2401D03*
X1903Y2401D03*
X2003Y2401D03*
X2103Y2401D03*
X2203Y2401D03*
X2303Y2401D03*
X2403Y2401D03*
X2503Y2401D03*
X2905Y501D03*
X3005Y501D03*
X3105Y501D03*
X3205Y501D03*
X3305Y501D03*
X3405Y501D03*
X3505Y501D03*
X3605Y501D03*
X2006Y501D03*
X2106Y501D03*
X2206Y501D03*
X2306Y501D03*
X2406Y501D03*
X2506Y501D03*
X2606Y501D03*
X2706Y501D03*
X2706Y2401D03*
X2806Y2401D03*
X2906Y2401D03*
X3006Y2401D03*
X3106Y2401D03*
X3206Y2401D03*
X3306Y2401D03*
X3406Y2401D03*
X1108Y500D03*
X1208Y500D03*
X1308Y500D03*
X1408Y500D03*
X1508Y500D03*
X1608Y500D03*
X1708Y500D03*
X1808Y500D03*
X3708Y2398D03*
X3708Y2298D03*
X3708Y2198D03*
X3708Y2098D03*
X3708Y1998D03*
X3708Y1898D03*
X3708Y1798D03*
X3708Y1698D03*
X3708Y1598D03*
X3708Y1498D03*
X3708Y1398D03*
X3708Y1298D03*
X3708Y1198D03*
X3708Y1098D03*
X3708Y998D03*
X3708Y898D03*
X3708Y798D03*
X3708Y698D03*
X3708Y2398D03*
X3708Y2298D03*
X3708Y2198D03*
X3708Y2098D03*
X3708Y1998D03*
X3708Y1898D03*
X3708Y1798D03*
X3708Y1698D03*
X3708Y1598D03*
X3708Y1498D03*
X3708Y1398D03*
X3708Y1298D03*
X3708Y1198D03*
X3708Y1098D03*
X3708Y998D03*
X3708Y898D03*
X3708Y798D03*
X3708Y698D03*
X3808Y698D03*
X3808Y798D03*
X3808Y898D03*
X3808Y998D03*
X3808Y1098D03*
X3808Y1198D03*
X3808Y1298D03*
X3808Y1398D03*
X3808Y1498D03*
X3808Y1598D03*
X3808Y1698D03*
X3808Y1798D03*
X3808Y1898D03*
X3808Y1998D03*
X3808Y2098D03*
X3808Y2198D03*
X3808Y2298D03*
X3808Y2398D03*
G54D11*
X551Y501D03*
X3798Y501D03*
X3543Y2410D03*
X590Y2410D03*
G54D10*
X647Y2183D03*
X747Y2183D03*
X847Y2183D03*
X647Y2183D03*
X747Y2183D03*
X847Y2183D03*
X847Y2283D03*
X747Y2283D03*
X647Y2283D03*
G54D12*
X187Y1047D03*
X384Y1244D03*
X384Y1146D03*
X384Y949D03*
X384Y851D03*
G54D13*
X187Y1244D03*
X89Y1244D03*
X89Y851D03*
X187Y851D03*
X384Y1047D03*
G54D10*
X2528Y1605D03*
X2528Y1505D03*
X2528Y1405D03*
X2528Y1605D03*
X2528Y1505D03*
X2528Y1405D03*
X2628Y1405D03*
X2628Y1505D03*
X2628Y1605D03*
X720Y1996D03*
X720Y1896D03*
X720Y1796D03*
X720Y1696D03*
X720Y1596D03*
X1905Y101D03*
X2005Y101D03*
X2105Y101D03*
X2205Y101D03*
X2305Y101D03*
X2405Y101D03*
X2505Y101D03*
X2605Y101D03*
X2705Y101D03*
X2805Y101D03*
X2905Y101D03*
X3005Y101D03*
X3105Y101D03*
X3205Y101D03*
X3305Y101D03*
X3405Y101D03*
X3505Y101D03*
X3605Y101D03*
G54D14*
X547Y1244D03*
X547Y1144D03*
X547Y850D03*
X547Y950D03*
G54D15*
X648Y1243D03*
X1048Y1243D03*
X647Y1149D03*
X1047Y1149D03*
X647Y1049D03*
X1047Y1049D03*
X647Y951D03*
X1047Y951D03*
X647Y851D03*
X1047Y851D03*
G54D10*
X1188Y1198D03*
X1188Y1098D03*
X1188Y998D03*
X1188Y898D03*
G54D16*
X2717Y798D03*
X2772Y736D03*
G54D15*
X395Y2413D03*
X139Y2413D03*
X395Y2590D03*
X139Y2590D03*
G54D10*
X1044Y1796D03*
X1244Y1796D03*
G54D15*
X1645Y1796D03*
X1645Y2196D03*
G54D10*
X2102Y2100D03*
X2102Y2200D03*
X1855Y1250D03*
X1955Y1250D03*
X2055Y1250D03*
X1855Y1650D03*
X1955Y1650D03*
X2055Y1650D03*
G54D16*
X1507Y1108D03*
G54D10*
X410Y301D03*
X510Y301D03*
X610Y301D03*
X710Y301D03*
X810Y301D03*
X910Y301D03*
G54D16*
X810Y709D03*
X1707Y901D03*
X1608Y898D03*
G54D15*
X3290Y1081D03*
X3034Y1081D03*
X3290Y1259D03*
X3034Y1259D03*
X3290Y1641D03*
X3034Y1641D03*
X3290Y1818D03*
X3034Y1818D03*
X3289Y1361D03*
X3033Y1361D03*
X3289Y1538D03*
X3033Y1538D03*
G54D16*
X2206Y1737D03*
X2148Y1818D03*
X2306Y1259D03*
G04 End of Mask1*
M02*