; NON-PLATED HOLES START AT T1
; THROUGH (PLATED) HOLES START AT T100
M48
INCH
T1C0.125984
T2C0.044000
T100C0.030000
T101C0.038000
T102C0.060350
T103C0.035000
T104C0.015748
%
T1
X005507Y005009
X037984Y005014
X035428Y024104
X005904Y024096
T2
X003840Y010474
X001872Y012442
X001872Y008506
X000888Y012442
X000888Y008506
T100
X005468Y008500
X005472Y011443
X005468Y009501
X005472Y012444
T101
X004096Y003014
X020047Y001014
X028055Y024005
X033047Y001014
X037083Y006977
X025277Y016049
X019550Y016500
X033055Y026009
X013425Y025996
X022055Y005007
X022027Y026009
X014075Y005004
X008425Y024002
X038083Y018977
X013081Y003011
X010444Y017959
X005096Y003014
X021047Y001014
X037083Y013977
X034047Y001014
X033045Y005007
X022061Y003004
X018027Y024005
X038083Y006977
X015425Y024002
X018551Y012498
X026277Y016049
X034055Y026009
X014425Y025996
X037083Y020977
X023055Y005007
X023027Y026009
X033051Y003004
X007203Y016955
X014081Y003011
X025027Y024005
X037083Y019977
X022047Y001014
X038083Y013977
X034045Y005007
X023061Y003004
X030055Y024005
X016425Y024002
X019551Y012498
X037083Y007977
X038083Y020977
X024027Y026009
X034051Y003004
X010425Y024002
X038083Y019977
X027047Y001014
X037083Y014977
X035045Y005007
X031055Y024005
X020027Y024005
X038083Y007977
X027055Y026009
X007425Y025996
X020551Y012498
X037083Y021977
X029055Y024005
X007203Y017955
X011425Y024002
X011875Y008981
X028047Y001014
X038083Y014977
X015075Y005004
X009425Y024002
X021027Y024005
X028055Y026009
X008425Y025996
X006096Y003014
X037083Y008977
X021018Y020996
X030045Y005007
X038083Y021977
X035047Y001014
X019027Y024005
X029047Y001014
X015425Y025996
X037083Y015977
X030051Y003004
X024055Y005007
X016075Y005004
X015081Y003011
X012444Y017959
X018027Y026009
X007096Y003014
X023047Y001014
X038083Y008977
X036047Y001014
X024061Y003004
X037083Y022977
X011875Y010981
X007203Y018955
X029045Y005007
X016425Y025996
X011875Y009981
X038083Y015977
X025055Y005007
X025027Y026009
X030047Y001014
X035051Y003004
X037083Y010977
X016081Y003011
X024047Y001014
X029051Y003004
X030055Y026009
X010425Y025996
X037083Y009977
X021018Y021996
X006472Y021828
X011075Y005004
X036045Y005007
X025061Y003004
X038083Y022977
X032055Y024005
X026055Y005007
X031047Y001014
X037083Y016977
X036051Y003004
X038083Y010977
X012425Y024002
X031055Y026009
X011425Y025996
X038083Y009977
X020055Y005007
X020027Y026009
X007472Y021828
X026061Y003004
X037083Y023977
X011875Y011981
X033055Y024005
X025277Y014049
X011081Y003011
X022027Y024005
X007203Y019955
X029055Y026009
X009425Y025996
X032047Y001014
X031045Y005007
X020061Y003004
X038083Y016977
X037083Y011977
X013425Y024002
X018550Y016500
X021055Y005007
X021027Y026009
X008472Y021828
X031051Y003004
X006472Y022828
X017075Y005004
X038083Y023977
X034055Y024005
X026277Y014049
X023027Y024005
X019027Y026009
X008096Y003014
X032045Y005007
X021061Y003004
X037083Y017977
X038083Y011977
X014425Y024002
X032051Y003004
X007472Y022828
X018075Y005004
X024027Y024005
X025277Y015049
X017081Y003011
X009096Y003014
X025047Y001014
X012075Y005004
X038083Y017977
X019047Y001014
X037083Y012977
X020550Y016500
X027055Y005007
X008472Y022828
X027055Y024005
X026277Y015049
X018081Y003011
X026047Y001014
X032055Y026009
X012425Y025996
X007203Y015955
X013075Y005004
X027061Y003004
X007425Y024002
X037083Y018977
X038083Y012977
X012081Y003011
T102
X001872Y010474
X003840Y011458
X003840Y012442
X003840Y009490
X003840Y008506
T103
X030331Y013606
X010465Y008509
X016450Y017960
X001391Y025897
X032900Y010813
X016450Y021960
X006465Y009506
X010472Y010488
X032890Y015378
X003950Y025897
X032898Y018180
X010476Y012432
X030340Y012585
X032898Y016408
X006468Y011488
X006465Y008509
X030331Y015378
X030339Y018180
X032900Y012585
X010465Y009506
X006472Y010488
X032890Y013606
X030339Y016408
X001391Y024125
X006476Y012432
X030340Y010813
X003950Y024125
X010468Y011488
T104
X021476Y018180
X016075Y008981
X022055Y017374
X023055Y012585
X015074Y011084
X027166Y007977
X027722Y007358
X017069Y009005
X008096Y007088
T00
M30
