G04 MADE WITH FRITZING*
G04 WWW.FRITZING.ORG*
G04 DOUBLE SIDED*
G04 HOLES PLATED*
G04 CONTOUR ON CENTER OF CONTOUR VECTOR*
%ASAXBY*%
%FSLAX23Y23*%
%MOIN*%
%OFA0B0*%
%SFA1.0B1.0*%
%ADD10C,0.080350*%
%ADD11C,0.070000*%
%ADD12C,0.075000*%
%ADD13C,0.078000*%
%ADD14C,0.024000*%
%ADD15R,0.001000X0.001000*%
%LNCOPPER1*%
G90*
G70*
G54D10*
X182Y396D03*
X379Y593D03*
X379Y494D03*
X379Y297D03*
X379Y199D03*
G54D11*
X542Y593D03*
X542Y493D03*
X542Y198D03*
X542Y299D03*
G54D12*
X642Y592D03*
X1042Y592D03*
X642Y497D03*
X1042Y497D03*
X642Y397D03*
X1042Y397D03*
X641Y299D03*
X1041Y299D03*
X641Y199D03*
X1041Y199D03*
G54D13*
X224Y708D03*
X324Y708D03*
X424Y708D03*
X1182Y547D03*
X1182Y447D03*
X1182Y347D03*
X1182Y247D03*
G54D14*
X613Y397D02*
X542Y397D01*
D02*
X542Y397D02*
X542Y467D01*
D02*
X613Y299D02*
X568Y299D01*
D02*
X642Y526D02*
X642Y563D01*
D02*
X1042Y426D02*
X1042Y469D01*
D02*
X1042Y369D02*
X1041Y328D01*
D02*
X1041Y270D02*
X1041Y228D01*
D02*
X1182Y660D02*
X1182Y577D01*
D02*
X642Y660D02*
X1182Y660D01*
D02*
X642Y620D02*
X642Y660D01*
D02*
X1152Y447D02*
X1112Y447D01*
D02*
X1112Y447D02*
X1112Y592D01*
D02*
X1112Y592D02*
X1071Y592D01*
D02*
X1041Y347D02*
X1152Y347D01*
D02*
X1041Y228D02*
X1041Y347D01*
D02*
X1182Y128D02*
X641Y128D01*
D02*
X1182Y216D02*
X1182Y128D01*
D02*
X641Y128D02*
X641Y171D01*
D02*
X420Y593D02*
X516Y593D01*
D02*
X379Y551D02*
X379Y536D01*
D02*
X379Y240D02*
X379Y256D01*
D02*
X420Y199D02*
X515Y199D01*
D02*
X293Y254D02*
X182Y254D01*
D02*
X182Y254D02*
X182Y355D01*
D02*
X641Y128D02*
X293Y128D01*
D02*
X293Y128D02*
X293Y254D01*
D02*
X641Y171D02*
X641Y128D01*
D02*
X182Y502D02*
X133Y502D01*
D02*
X133Y502D02*
X133Y708D01*
D02*
X133Y708D02*
X194Y708D01*
D02*
X182Y437D02*
X182Y502D01*
D02*
X542Y708D02*
X454Y708D01*
D02*
X542Y619D02*
X542Y708D01*
D02*
X324Y644D02*
X324Y678D01*
D02*
X293Y644D02*
X324Y644D01*
D02*
X337Y297D02*
X293Y297D01*
D02*
X293Y297D02*
X293Y644D01*
G54D15*
D02*
G04 End of Copper1*
M02*