; NON-PLATED HOLES START AT T1
; THROUGH (PLATED) HOLES START AT T100
M48
INCH
T1C0.086614
T100C0.035433
T101C0.031497
T102C0.035000
T103C0.038000
T104C0.015748
%
T1
X000755Y012630
X132086Y012626
X088306Y012630
X070914Y002071
X110197Y012629
X000755Y000763
X134915Y002067
X090920Y002068
X054916Y002075
X153977Y012630
X038918Y002071
X022919Y002071
X153977Y000763
X110915Y002067
X044103Y012632
X022648Y012633
X067277Y012627
T100
X089149Y001855
X057146Y004645
X049146Y001846
X021152Y001851
X045146Y004645
X031152Y005851
X069146Y001846
X103152Y008646
X117153Y004646
X129150Y004655
X059146Y008645
X077149Y004655
X065146Y004645
X057146Y001846
X009152Y004651
X149150Y004655
X047146Y008645
X097149Y004655
X101152Y004646
X053146Y004645
X045146Y001846
X119153Y008646
X029152Y004651
X103152Y005846
X125153Y004646
X117153Y001846
X137150Y004655
X129150Y001855
X059146Y005845
X085149Y004655
X077149Y001855
X065146Y001846
X017152Y004651
X113153Y004646
X009152Y001851
X055146Y008645
X005147Y004649
X149150Y001855
X047146Y005845
X073149Y004655
X097149Y001855
X101152Y001846
X061146Y004645
X053146Y001846
X119153Y005846
X139150Y008655
X087149Y008655
X037152Y004651
X029152Y001851
X125153Y001846
X145150Y004655
X043146Y008645
X137150Y001855
X093149Y004655
X085149Y001855
X019152Y008651
X115153Y008646
X127150Y008655
X075149Y008655
X025152Y004651
X121153Y004646
X017152Y001851
X113153Y001846
X133150Y004655
X111152Y008646
X063146Y008645
X055146Y005845
X081149Y004655
X005147Y001849
X073149Y001855
X007152Y008651
X061146Y001846
X147150Y008655
X139150Y005855
X087149Y005855
X013152Y004651
X037152Y001851
X153150Y004655
X145150Y001855
X043146Y005845
X093149Y001855
X109152Y004646
X027152Y008651
X019152Y005851
X115153Y005846
X127150Y005855
X083149Y008655
X075149Y005855
X033152Y004651
X025152Y001851
X121153Y001846
X141150Y004655
X133150Y001855
X111152Y005846
X063146Y005845
X081149Y001855
X015152Y008651
X007152Y005851
X147150Y005855
X071149Y008655
X013152Y001851
X099152Y008646
X153150Y001855
X109152Y001846
X035152Y008651
X027152Y005851
X143150Y008655
X091149Y008655
X083149Y005855
X041152Y004651
X033152Y001851
X141150Y001855
X105152Y004646
X015152Y005851
X131150Y008655
X071149Y005855
X089149Y004655
X099152Y005846
X049146Y004645
X035152Y005851
X143150Y005855
X091149Y005855
X041152Y001851
X021152Y004651
X105152Y001846
X031152Y008651
X069146Y004645
X131150Y005855
T101
X064743Y011464
X065727Y011464
T102
X022007Y002886
X148564Y004661
X098566Y006881
X006566Y006886
X134006Y002890
X070564Y006889
X028566Y004657
X054001Y002880
X108007Y006881
X146005Y004661
X012566Y002886
X096007Y006881
X004007Y006886
X086564Y008661
X102567Y006881
X026007Y004657
X044560Y002880
X078005Y002889
X010007Y002886
X114566Y008652
X084005Y008661
X026566Y006886
X100008Y006881
X090564Y006889
X152564Y002890
X042001Y002880
X138565Y006890
X120566Y004652
X108566Y002881
X112007Y008652
X058560Y006880
X032566Y002886
X074564Y008661
X024007Y006886
X150005Y002890
X136006Y006890
X064560Y002880
X106007Y002881
X056001Y006880
X030007Y002886
X072005Y008661
X014566Y006886
X126565Y006890
X062001Y002880
X028007Y008657
X046560Y006880
X088564Y002889
X020566Y002886
X012007Y006886
X132565Y002890
X124006Y006890
X098007Y004652
X052560Y002880
X018566Y008657
X044001Y006880
X086005Y002889
X072564Y004661
X130006Y002890
X034566Y006886
X050001Y002880
X130565Y008661
X016007Y008657
X076564Y002889
X116566Y002881
X068005Y006889
X040566Y002886
X070005Y004661
X032007Y006886
X074005Y002889
X114007Y002881
X110566Y008652
X138006Y004661
X092564Y004661
X058001Y004652
X063296Y011459
X016566Y004657
X104566Y002881
X004561Y002883
X054560Y006880
X096564Y002889
X088005Y006889
X090005Y004661
X146564Y008661
X128565Y004661
X140565Y002890
X118007Y004652
X048560Y004652
X060560Y002880
X014007Y004657
X102007Y002881
X002002Y002883
X052001Y006880
X094005Y002889
X144005Y008661
X126006Y004661
X118566Y006881
X080564Y004661
X046001Y004652
X042560Y006880
X084564Y002889
X036566Y004657
X124566Y002881
X116007Y006881
X018007Y002886
X068560Y004652
X040001Y006880
X082005Y002889
X034007Y004657
X122007Y002881
X100567Y004652
X030566Y006886
X144564Y004661
X142565Y006890
X066001Y004652
X008566Y002886
X024566Y004657
X112566Y002881
X062560Y006880
X142005Y004661
X136565Y004661
X128006Y008661
X082564Y008661
X140006Y006890
X006007Y002886
X056560Y004652
X038007Y002886
X022007Y004657
X110007Y002881
X060001Y006880
X098566Y008652
X006566Y008657
X086564Y006889
X148564Y002890
X134006Y004661
X080005Y008661
X054001Y004652
X108007Y008652
X028566Y002886
X012566Y004657
X096007Y008652
X004007Y008657
X084005Y006889
X146005Y002890
X102567Y008652
X070564Y008661
X044560Y004652
X026007Y002886
X010007Y004657
X074564Y006889
X026566Y008657
X114566Y006881
X100008Y008652
X152564Y004661
X138565Y008661
X042001Y004652
X108566Y004652
X058560Y008652
X078005Y004661
X032566Y004657
X120566Y002881
X072005Y006889
X024007Y008657
X112007Y006881
X150005Y004661
X136006Y008661
X090564Y008661
X064560Y004652
X106007Y004652
X056001Y008652
X030007Y004657
X014566Y008657
X126565Y008661
X062001Y004652
X046560Y008652
X020566Y004657
X028007Y006886
X012007Y008657
X072564Y002889
X132565Y004661
X124006Y008661
X052560Y004652
X044001Y008652
X098007Y002881
X018566Y006886
X088564Y004661
X070005Y002889
X130006Y004661
X034566Y008657
X050001Y004652
X116566Y004652
X130565Y006890
X016007Y006886
X086005Y004661
X040566Y004657
X032007Y008657
X092564Y002889
X114007Y004652
X076564Y004661
X068005Y008661
X110566Y006881
X090005Y002889
X138006Y002890
X058001Y002880
X104566Y004652
X004561Y004655
X054560Y008652
X074005Y004661
X016566Y002886
X080564Y002889
X140565Y004661
X146564Y006890
X128565Y002890
X118007Y002881
X060560Y004652
X102007Y004652
X048560Y002880
X002002Y004655
X052001Y008652
X014007Y002886
X096564Y004661
X118566Y008652
X088005Y008661
X144005Y006890
X126006Y002890
X046001Y002880
X042560Y008652
X124566Y004652
X094005Y004661
X116007Y008652
X036566Y002886
X018007Y004657
X040001Y008652
X122007Y004652
X068560Y002880
X084564Y004661
X034007Y002886
X030566Y008657
X100567Y002881
X082564Y006889
X144564Y002890
X142565Y008661
X008566Y004657
X059296Y011459
X066001Y002880
X112566Y004652
X062560Y008652
X082005Y004661
X024566Y002886
X080005Y006889
X142005Y002890
X140006Y008661
X136565Y002890
X006007Y004657
X128006Y006890
X038007Y004657
X110007Y004652
X056560Y002880
X060001Y008652
T103
X081850Y011679
X079850Y011679
X071850Y011679
X072850Y011679
X073850Y011679
X082850Y011679
X083850Y011679
X074850Y011679
X075850Y011679
X084850Y011679
X085850Y011679
X068850Y011679
X076850Y011679
X077850Y011679
X078850Y011679
X070850Y011679
X069850Y011679
X080850Y011679
T104
X003527Y009288
X003526Y000763
X127417Y003524
X151043Y003522
X094722Y003524
X011844Y005285
X095422Y007524
X077148Y000768
X087277Y004024
X021157Y000770
X080944Y009288
X063819Y007524
X091776Y004022
X091138Y003524
X075140Y001260
X133151Y000769
X117000Y009288
X095419Y008022
X025802Y009287
X095851Y000765
X051426Y004024
X094222Y006971
X078848Y009286
X003530Y004029
X087138Y005288
X015422Y003530
X151041Y007524
X093616Y006971
X127152Y004024
X031148Y005283
X005288Y008031
X113156Y001263
X007822Y007530
X119819Y007524
X101000Y008024
X131173Y001261
X143282Y004022
X141283Y007531
X029617Y007530
X093142Y001261
X067763Y005288
X123806Y005288
X093020Y006971
X037155Y001270
X071138Y004024
X041274Y009286
X071750Y003524
X151041Y008024
X117597Y008024
X061013Y009288
X143151Y005284
X003527Y007524
X151041Y009288
X151040Y000763
X092423Y006971
X019157Y001263
X137605Y008027
X097291Y009288
X041151Y000769
X111153Y003524
X085277Y007524
X035152Y003524
X151046Y004027
X147151Y003527
X095268Y001265
X015155Y004030
X103278Y005288
X003532Y005290
X101583Y007524
X089514Y005282
X151040Y005284
X055137Y003524
X003527Y008024
X097151Y000769
X031277Y004024
X028963Y008027
X061555Y008024
X115156Y000763
X081625Y008024
X003532Y001270
X149151Y001264
X137000Y009287
X047296Y005283
X059142Y000765
X057145Y001266
X107514Y004024
X045535Y007531
X045049Y008027
X003527Y003524
X151037Y001270
T00
M30
