G04 MADE WITH FRITZING*
G04 WWW.FRITZING.ORG*
G04 DOUBLE SIDED*
G04 HOLES PLATED*
G04 CONTOUR ON CENTER OF CONTOUR VECTOR*
%ASAXBY*%
%FSLAX23Y23*%
%MOIN*%
%OFA0B0*%
%SFA1.0B1.0*%
%ADD10C,0.075000*%
%ADD11C,0.055433*%
%ADD12C,0.078000*%
%ADD13C,0.039370*%
%ADD14C,0.062992*%
%ADD15R,0.062992X0.062992*%
%ADD16C,0.016000*%
%LNCOPPER1*%
G90*
G70*
G54D10*
X12857Y289D03*
X12601Y289D03*
X12857Y466D03*
X12601Y466D03*
X14456Y289D03*
X14201Y289D03*
X14456Y466D03*
X14201Y466D03*
X12657Y689D03*
X12401Y689D03*
X12657Y866D03*
X12401Y866D03*
X13657Y289D03*
X13401Y289D03*
X13657Y466D03*
X13401Y466D03*
X14856Y289D03*
X14601Y289D03*
X14856Y466D03*
X14601Y466D03*
X14656Y689D03*
X14401Y689D03*
X14656Y866D03*
X14401Y866D03*
X13857Y689D03*
X13601Y689D03*
X13857Y866D03*
X13601Y866D03*
X14257Y689D03*
X14001Y689D03*
X14257Y866D03*
X14001Y866D03*
X13257Y289D03*
X13001Y289D03*
X13257Y466D03*
X13001Y466D03*
X15256Y289D03*
X15001Y289D03*
X15256Y466D03*
X15001Y466D03*
X14057Y289D03*
X13801Y289D03*
X14057Y466D03*
X13801Y466D03*
X13057Y689D03*
X12801Y689D03*
X13057Y866D03*
X12801Y866D03*
X12057Y288D03*
X11801Y288D03*
X12057Y465D03*
X11801Y465D03*
X11257Y288D03*
X11001Y288D03*
X11257Y465D03*
X11001Y465D03*
X11857Y688D03*
X11601Y688D03*
X11857Y865D03*
X11601Y865D03*
X11057Y688D03*
X10801Y688D03*
X11057Y865D03*
X10801Y865D03*
X10257Y688D03*
X10001Y688D03*
X10257Y865D03*
X10001Y865D03*
X11457Y688D03*
X11201Y688D03*
X11457Y865D03*
X11201Y865D03*
X10857Y288D03*
X10601Y288D03*
X10857Y465D03*
X10601Y465D03*
X12457Y288D03*
X12201Y288D03*
X12457Y465D03*
X12201Y465D03*
X10057Y288D03*
X9801Y288D03*
X10057Y465D03*
X9801Y465D03*
X10457Y288D03*
X10201Y288D03*
X10457Y465D03*
X10201Y465D03*
X11657Y288D03*
X11401Y288D03*
X11657Y465D03*
X11401Y465D03*
X9857Y688D03*
X9601Y688D03*
X9857Y865D03*
X9601Y865D03*
X7256Y289D03*
X7001Y289D03*
X7256Y466D03*
X7001Y466D03*
X8256Y689D03*
X8001Y689D03*
X8256Y866D03*
X8001Y866D03*
X8856Y289D03*
X8601Y289D03*
X8856Y466D03*
X8601Y466D03*
X7456Y689D03*
X7201Y689D03*
X7456Y866D03*
X7201Y866D03*
X8656Y689D03*
X8401Y689D03*
X8656Y866D03*
X8401Y866D03*
X7656Y289D03*
X7401Y289D03*
X7656Y466D03*
X7401Y466D03*
X9056Y689D03*
X8801Y689D03*
X9056Y866D03*
X8801Y866D03*
X7056Y689D03*
X6801Y689D03*
X7056Y866D03*
X6801Y866D03*
X8056Y289D03*
X7801Y289D03*
X8056Y466D03*
X7801Y466D03*
X9256Y289D03*
X9001Y289D03*
X9256Y466D03*
X9001Y466D03*
X9656Y289D03*
X9401Y289D03*
X9656Y466D03*
X9401Y466D03*
X8456Y289D03*
X8201Y289D03*
X8456Y466D03*
X8201Y466D03*
X5456Y688D03*
X5200Y688D03*
X5456Y865D03*
X5200Y865D03*
X5856Y688D03*
X5600Y688D03*
X5856Y865D03*
X5600Y865D03*
X4856Y288D03*
X4600Y288D03*
X4856Y465D03*
X4600Y465D03*
X6456Y288D03*
X6200Y288D03*
X6456Y465D03*
X6200Y465D03*
X5656Y288D03*
X5400Y288D03*
X5656Y465D03*
X5400Y465D03*
X6256Y688D03*
X6000Y688D03*
X6256Y865D03*
X6000Y865D03*
X4656Y688D03*
X4400Y688D03*
X4656Y865D03*
X4400Y865D03*
X4456Y288D03*
X4200Y288D03*
X4456Y465D03*
X4200Y465D03*
X6856Y288D03*
X6600Y288D03*
X6856Y465D03*
X6600Y465D03*
X4256Y688D03*
X4000Y688D03*
X4256Y865D03*
X4000Y865D03*
X6056Y288D03*
X5800Y288D03*
X6056Y465D03*
X5800Y465D03*
X5256Y288D03*
X5000Y288D03*
X5256Y465D03*
X5000Y465D03*
X4057Y289D03*
X3801Y289D03*
X4057Y466D03*
X3801Y466D03*
X3657Y289D03*
X3401Y289D03*
X3657Y466D03*
X3401Y466D03*
X3457Y689D03*
X3201Y689D03*
X3457Y866D03*
X3201Y866D03*
X3257Y289D03*
X3001Y289D03*
X3257Y466D03*
X3001Y466D03*
X3057Y689D03*
X2801Y689D03*
X3057Y866D03*
X2801Y866D03*
X2857Y289D03*
X2601Y289D03*
X2857Y466D03*
X2601Y466D03*
X2657Y689D03*
X2401Y689D03*
X2657Y866D03*
X2401Y866D03*
X2457Y289D03*
X2201Y289D03*
X2457Y466D03*
X2201Y466D03*
X2057Y289D03*
X1801Y289D03*
X2057Y466D03*
X1801Y466D03*
X1857Y689D03*
X1601Y689D03*
X1857Y866D03*
X1601Y866D03*
X1657Y289D03*
X1401Y289D03*
X1657Y466D03*
X1401Y466D03*
X1457Y689D03*
X1201Y689D03*
X1457Y866D03*
X1201Y866D03*
X1257Y289D03*
X1001Y289D03*
X1257Y466D03*
X1001Y466D03*
X857Y289D03*
X601Y289D03*
X857Y466D03*
X601Y466D03*
X657Y689D03*
X401Y689D03*
X657Y866D03*
X401Y866D03*
X456Y288D03*
X200Y288D03*
X456Y466D03*
X200Y466D03*
G54D11*
X12715Y586D03*
X12715Y866D03*
X12715Y586D03*
X12715Y866D03*
X13715Y186D03*
X13715Y466D03*
X13715Y186D03*
X13715Y466D03*
X14315Y586D03*
X14315Y866D03*
X14315Y586D03*
X14315Y866D03*
X14715Y586D03*
X14715Y866D03*
X14715Y586D03*
X14715Y866D03*
X14115Y186D03*
X14115Y466D03*
X14115Y186D03*
X14115Y466D03*
X13115Y586D03*
X13115Y866D03*
X13115Y586D03*
X13115Y866D03*
X12915Y186D03*
X12915Y466D03*
X12915Y186D03*
X12915Y466D03*
X13915Y586D03*
X13915Y866D03*
X13915Y586D03*
X13915Y866D03*
X14515Y186D03*
X14515Y466D03*
X14515Y186D03*
X14515Y466D03*
X13315Y186D03*
X13315Y466D03*
X13315Y186D03*
X13315Y466D03*
X14915Y186D03*
X14915Y466D03*
X14915Y186D03*
X14915Y466D03*
X15315Y186D03*
X15315Y466D03*
X15315Y186D03*
X15315Y466D03*
X12515Y185D03*
X12515Y465D03*
X12515Y185D03*
X12515Y465D03*
X11915Y585D03*
X11915Y865D03*
X11915Y585D03*
X11915Y865D03*
X10515Y185D03*
X10515Y465D03*
X10515Y185D03*
X10515Y465D03*
X11515Y585D03*
X11515Y865D03*
X11515Y585D03*
X11515Y865D03*
X11115Y585D03*
X11115Y865D03*
X11115Y585D03*
X11115Y865D03*
X11315Y185D03*
X11315Y465D03*
X11315Y185D03*
X11315Y465D03*
X11715Y185D03*
X11715Y465D03*
X11715Y185D03*
X11715Y465D03*
X10915Y185D03*
X10915Y465D03*
X10915Y185D03*
X10915Y465D03*
X10115Y185D03*
X10115Y465D03*
X10115Y185D03*
X10115Y465D03*
X10315Y585D03*
X10315Y865D03*
X10315Y585D03*
X10315Y865D03*
X9915Y585D03*
X9915Y865D03*
X9915Y585D03*
X9915Y865D03*
X12115Y185D03*
X12115Y465D03*
X12115Y185D03*
X12115Y465D03*
X7315Y186D03*
X7315Y466D03*
X7315Y186D03*
X7315Y466D03*
X9315Y186D03*
X9315Y466D03*
X9315Y186D03*
X9315Y466D03*
X7515Y586D03*
X7515Y866D03*
X7515Y586D03*
X7515Y866D03*
X9715Y186D03*
X9715Y466D03*
X9715Y186D03*
X9715Y466D03*
X8315Y586D03*
X8315Y866D03*
X8315Y586D03*
X8315Y866D03*
X8915Y186D03*
X8915Y466D03*
X8915Y186D03*
X8915Y466D03*
X8715Y586D03*
X8715Y866D03*
X8715Y586D03*
X8715Y866D03*
X9115Y586D03*
X9115Y866D03*
X9115Y586D03*
X9115Y866D03*
X8115Y186D03*
X8115Y466D03*
X8115Y186D03*
X8115Y466D03*
X8515Y186D03*
X8515Y466D03*
X8515Y186D03*
X8515Y466D03*
X7715Y186D03*
X7715Y466D03*
X7715Y186D03*
X7715Y466D03*
X7115Y586D03*
X7115Y866D03*
X7115Y586D03*
X7115Y866D03*
X6115Y185D03*
X6115Y465D03*
X6115Y185D03*
X6115Y465D03*
X6515Y185D03*
X6515Y465D03*
X6515Y185D03*
X6515Y465D03*
X6915Y185D03*
X6915Y465D03*
X6915Y185D03*
X6915Y465D03*
X5315Y185D03*
X5315Y465D03*
X5315Y185D03*
X5315Y465D03*
X5515Y585D03*
X5515Y865D03*
X5515Y585D03*
X5515Y865D03*
X4915Y185D03*
X4915Y465D03*
X4915Y185D03*
X4915Y465D03*
X6315Y585D03*
X6315Y865D03*
X6315Y585D03*
X6315Y865D03*
X4715Y585D03*
X4715Y865D03*
X4715Y585D03*
X4715Y865D03*
X5715Y185D03*
X5715Y465D03*
X5715Y185D03*
X5715Y465D03*
X4515Y185D03*
X4515Y465D03*
X4515Y185D03*
X4515Y465D03*
X4315Y585D03*
X4315Y865D03*
X4315Y585D03*
X4315Y865D03*
X5915Y585D03*
X5915Y865D03*
X5915Y585D03*
X5915Y865D03*
X4115Y185D03*
X4115Y465D03*
X4115Y185D03*
X4115Y465D03*
X3715Y185D03*
X3715Y465D03*
X3715Y185D03*
X3715Y465D03*
X3515Y585D03*
X3515Y865D03*
X3515Y585D03*
X3515Y865D03*
X3315Y185D03*
X3315Y465D03*
X3315Y185D03*
X3315Y465D03*
X3115Y585D03*
X3115Y865D03*
X3115Y585D03*
X3115Y865D03*
X2915Y185D03*
X2915Y465D03*
X2915Y185D03*
X2915Y465D03*
X2715Y585D03*
X2715Y865D03*
X2715Y585D03*
X2715Y865D03*
X2515Y185D03*
X2515Y465D03*
X2515Y185D03*
X2515Y465D03*
X2115Y185D03*
X2115Y465D03*
X2115Y185D03*
X2115Y465D03*
X1915Y585D03*
X1915Y865D03*
X1915Y585D03*
X1915Y865D03*
X1715Y185D03*
X1715Y465D03*
X1715Y185D03*
X1715Y465D03*
X1515Y585D03*
X1515Y865D03*
X1515Y585D03*
X1515Y865D03*
X1315Y185D03*
X1315Y465D03*
X1315Y185D03*
X1315Y465D03*
X915Y185D03*
X915Y465D03*
X915Y185D03*
X915Y465D03*
X715Y585D03*
X715Y865D03*
X715Y585D03*
X715Y865D03*
X515Y185D03*
X515Y465D03*
X515Y185D03*
X515Y465D03*
G54D12*
X6885Y1168D03*
X6985Y1168D03*
X7085Y1168D03*
X7185Y1168D03*
X7285Y1168D03*
X7385Y1168D03*
X7485Y1168D03*
X7585Y1168D03*
X7685Y1168D03*
X7785Y1168D03*
X7885Y1168D03*
X7985Y1168D03*
X8085Y1168D03*
X8185Y1168D03*
X8285Y1168D03*
X8385Y1168D03*
X8485Y1168D03*
X8585Y1168D03*
G54D13*
X15104Y352D03*
X353Y352D03*
X15105Y403D03*
X353Y403D03*
X353Y529D03*
X15104Y528D03*
X353Y802D03*
X353Y752D03*
X15104Y752D03*
X15104Y802D03*
X353Y929D03*
X15104Y929D03*
X15104Y127D03*
X353Y127D03*
X15104Y76D03*
X353Y76D03*
X529Y803D03*
X782Y753D03*
X1184Y529D03*
X1516Y403D03*
X1542Y353D03*
X1916Y126D03*
X2116Y77D03*
X2580Y929D03*
X2896Y803D03*
X2962Y753D03*
X3115Y528D03*
X3128Y402D03*
X3515Y352D03*
X3716Y127D03*
X4115Y77D03*
X4127Y929D03*
X4505Y803D03*
X4554Y753D03*
X4730Y528D03*
X5143Y402D03*
X5514Y352D03*
X5715Y127D03*
X5914Y77D03*
X6101Y929D03*
X6156Y802D03*
X6382Y752D03*
X6776Y529D03*
X7114Y402D03*
X7175Y352D03*
X7514Y126D03*
X7715Y77D03*
X8094Y929D03*
X8163Y802D03*
X8528Y752D03*
X8714Y529D03*
X8728Y402D03*
X9114Y352D03*
X9314Y126D03*
X9715Y77D03*
X9729Y929D03*
X10100Y802D03*
X10158Y752D03*
X10328Y529D03*
X10751Y402D03*
X11115Y352D03*
X11316Y126D03*
X11516Y76D03*
X11700Y929D03*
X11760Y802D03*
X11982Y752D03*
X12381Y529D03*
X12715Y402D03*
X12742Y352D03*
X13117Y126D03*
X13315Y77D03*
X13700Y929D03*
X13761Y803D03*
X14128Y753D03*
X14315Y528D03*
X14328Y402D03*
X14715Y353D03*
X14915Y126D03*
X7885Y929D03*
X9542Y802D03*
X9542Y752D03*
X8951Y528D03*
X9242Y697D03*
X9302Y697D03*
X9362Y697D03*
X9422Y697D03*
X9178Y402D03*
X9472Y352D03*
X9527Y127D03*
X9585Y77D03*
G54D14*
X6474Y1146D03*
X6573Y1146D03*
G54D10*
X5930Y1146D03*
X6330Y1146D03*
G54D15*
X6474Y1146D03*
G54D16*
X15280Y466D02*
X15292Y466D01*
D02*
X14480Y466D02*
X14492Y466D01*
D02*
X14280Y866D02*
X14292Y866D01*
D02*
X13880Y866D02*
X13892Y866D01*
D02*
X13680Y466D02*
X13692Y466D01*
D02*
X14080Y466D02*
X14092Y466D01*
D02*
X12680Y866D02*
X12692Y866D01*
D02*
X14680Y866D02*
X14692Y866D01*
D02*
X13280Y466D02*
X13292Y466D01*
D02*
X14880Y466D02*
X14892Y466D01*
D02*
X13080Y866D02*
X13092Y866D01*
D02*
X12880Y466D02*
X12892Y466D01*
D02*
X11880Y865D02*
X11892Y865D01*
D02*
X11280Y465D02*
X11292Y465D01*
D02*
X10480Y465D02*
X10492Y465D01*
D02*
X10080Y465D02*
X10092Y465D01*
D02*
X11480Y865D02*
X11492Y865D01*
D02*
X9880Y865D02*
X9892Y865D01*
D02*
X11080Y865D02*
X11092Y865D01*
D02*
X10280Y865D02*
X10292Y865D01*
D02*
X12080Y465D02*
X12092Y465D01*
D02*
X10880Y465D02*
X10892Y465D01*
D02*
X11680Y465D02*
X11692Y465D01*
D02*
X12480Y465D02*
X12492Y465D01*
D02*
X8079Y466D02*
X8092Y466D01*
D02*
X7679Y466D02*
X7692Y466D01*
D02*
X8679Y866D02*
X8692Y866D01*
D02*
X7479Y866D02*
X7492Y866D01*
D02*
X7079Y866D02*
X7092Y866D01*
D02*
X8479Y466D02*
X8492Y466D01*
D02*
X8279Y866D02*
X8292Y866D01*
D02*
X9679Y466D02*
X9692Y466D01*
D02*
X9079Y866D02*
X9092Y866D01*
D02*
X7279Y466D02*
X7292Y466D01*
D02*
X9279Y466D02*
X9292Y466D01*
D02*
X8879Y466D02*
X8892Y466D01*
D02*
X6479Y465D02*
X6491Y465D01*
D02*
X4679Y865D02*
X4691Y865D01*
D02*
X6079Y465D02*
X6091Y465D01*
D02*
X4479Y465D02*
X4491Y465D01*
D02*
X5679Y465D02*
X5691Y465D01*
D02*
X4279Y865D02*
X4291Y865D01*
D02*
X5279Y465D02*
X5291Y465D01*
D02*
X5479Y865D02*
X5491Y865D01*
D02*
X4879Y465D02*
X4891Y465D01*
D02*
X6279Y865D02*
X6291Y865D01*
D02*
X6879Y465D02*
X6891Y465D01*
D02*
X5879Y865D02*
X5891Y865D01*
D02*
X4080Y466D02*
X4092Y465D01*
D02*
X3680Y466D02*
X3692Y465D01*
D02*
X3480Y866D02*
X3492Y865D01*
D02*
X3280Y466D02*
X3292Y465D01*
D02*
X3080Y866D02*
X3092Y865D01*
D02*
X2880Y466D02*
X2892Y465D01*
D02*
X2680Y866D02*
X2692Y865D01*
D02*
X2480Y466D02*
X2492Y465D01*
D02*
X2080Y466D02*
X2092Y465D01*
D02*
X1880Y866D02*
X1892Y865D01*
D02*
X1680Y466D02*
X1692Y465D01*
D02*
X1480Y866D02*
X1492Y865D01*
D02*
X1280Y466D02*
X1292Y465D01*
D02*
X880Y466D02*
X892Y465D01*
D02*
X680Y866D02*
X692Y865D01*
D02*
X479Y465D02*
X491Y465D01*
D02*
X479Y288D02*
X578Y289D01*
D02*
X624Y289D02*
X834Y289D01*
D02*
X880Y289D02*
X978Y289D01*
D02*
X1024Y289D02*
X1234Y289D01*
D02*
X1280Y289D02*
X1378Y289D01*
D02*
X1424Y289D02*
X1634Y289D01*
D02*
X1680Y289D02*
X1778Y289D01*
D02*
X1224Y689D02*
X1434Y689D01*
D02*
X1480Y689D02*
X1578Y689D01*
D02*
X2224Y289D02*
X2434Y289D01*
D02*
X2480Y289D02*
X2578Y289D01*
D02*
X2624Y289D02*
X2834Y289D01*
D02*
X2880Y289D02*
X2978Y289D01*
D02*
X3024Y289D02*
X3234Y289D01*
D02*
X3280Y289D02*
X3378Y289D01*
D02*
X3424Y289D02*
X3634Y289D01*
D02*
X3680Y289D02*
X3778Y289D01*
D02*
X2424Y689D02*
X2634Y689D01*
D02*
X2680Y689D02*
X2778Y689D01*
D02*
X2824Y689D02*
X3034Y689D01*
D02*
X3080Y689D02*
X3178Y689D01*
D02*
X4577Y288D02*
X4479Y288D01*
D02*
X4833Y288D02*
X4623Y288D01*
D02*
X4977Y288D02*
X4879Y288D01*
D02*
X5023Y288D02*
X5233Y288D01*
D02*
X5279Y288D02*
X5377Y288D01*
D02*
X5223Y688D02*
X5433Y688D01*
D02*
X5479Y688D02*
X5577Y688D01*
D02*
X5177Y688D02*
X4679Y688D01*
D02*
X4633Y688D02*
X4423Y688D01*
D02*
X4377Y688D02*
X4279Y688D01*
D02*
X1178Y689D02*
X680Y689D01*
D02*
X6177Y288D02*
X6079Y288D01*
D02*
X6223Y288D02*
X6433Y288D01*
D02*
X6479Y288D02*
X6577Y288D01*
D02*
X6623Y288D02*
X6833Y288D01*
D02*
X6879Y288D02*
X6977Y289D01*
D02*
X7024Y289D02*
X7233Y289D01*
D02*
X7279Y289D02*
X7377Y289D01*
D02*
X6777Y689D02*
X6279Y688D01*
D02*
X6824Y689D02*
X7033Y689D01*
D02*
X7079Y689D02*
X7177Y689D01*
D02*
X7824Y289D02*
X8033Y289D01*
D02*
X8079Y289D02*
X8177Y289D01*
D02*
X8224Y289D02*
X8433Y289D01*
D02*
X8479Y289D02*
X8577Y289D01*
D02*
X8624Y289D02*
X8833Y289D01*
D02*
X8879Y289D02*
X8977Y289D01*
D02*
X9024Y289D02*
X9233Y289D01*
D02*
X9279Y289D02*
X9377Y289D01*
D02*
X8024Y689D02*
X8233Y689D01*
D02*
X8279Y689D02*
X8377Y689D01*
D02*
X8424Y689D02*
X8633Y689D01*
D02*
X8679Y689D02*
X8777Y689D01*
D02*
X10178Y288D02*
X10080Y288D01*
D02*
X10224Y288D02*
X10434Y288D01*
D02*
X10480Y288D02*
X10578Y288D01*
D02*
X10624Y288D02*
X10834Y288D01*
D02*
X10880Y288D02*
X10978Y288D01*
D02*
X10778Y688D02*
X10280Y688D01*
D02*
X10234Y688D02*
X10024Y688D01*
D02*
X9978Y688D02*
X9880Y688D01*
D02*
X10824Y688D02*
X11034Y688D01*
D02*
X11080Y688D02*
X11178Y688D01*
D02*
X11778Y288D02*
X11680Y288D01*
D02*
X11824Y288D02*
X12034Y288D01*
D02*
X12080Y288D02*
X12178Y288D01*
D02*
X12224Y288D02*
X12434Y288D01*
D02*
X12480Y288D02*
X12578Y289D01*
D02*
X12624Y289D02*
X12833Y289D01*
D02*
X12880Y289D02*
X12978Y289D01*
D02*
X12424Y689D02*
X12633Y689D01*
D02*
X12680Y689D02*
X12778Y689D01*
D02*
X12378Y689D02*
X11880Y688D01*
D02*
X13778Y289D02*
X13680Y289D01*
D02*
X13824Y289D02*
X14033Y289D01*
D02*
X14080Y289D02*
X14177Y289D01*
D02*
X14224Y289D02*
X14433Y289D01*
D02*
X14480Y289D02*
X14578Y289D01*
D02*
X14624Y289D02*
X14833Y289D01*
D02*
X14880Y289D02*
X14978Y289D01*
D02*
X13633Y289D02*
X13424Y289D01*
D02*
X13624Y689D02*
X13833Y689D01*
D02*
X13880Y689D02*
X13978Y689D01*
D02*
X14024Y689D02*
X14233Y689D01*
D02*
X14280Y689D02*
X14377Y689D01*
D02*
X9164Y402D02*
X8741Y402D01*
D02*
X14315Y402D02*
X12729Y402D01*
D02*
X12702Y402D02*
X10765Y402D01*
D02*
X10738Y402D02*
X9191Y402D01*
D02*
X8714Y402D02*
X7127Y402D01*
D02*
X7100Y402D02*
X5156Y402D01*
D02*
X5129Y402D02*
X3141Y402D01*
D02*
X3114Y402D02*
X1529Y403D01*
D02*
X1502Y403D02*
X366Y403D01*
D02*
X15091Y403D02*
X14342Y402D01*
D02*
X9486Y352D02*
X11102Y352D01*
D02*
X14729Y353D02*
X15091Y352D01*
D02*
X12755Y352D02*
X14702Y353D01*
D02*
X11129Y352D02*
X12728Y352D01*
D02*
X9127Y352D02*
X9459Y352D01*
D02*
X7188Y352D02*
X9100Y352D01*
D02*
X5527Y352D02*
X7162Y352D01*
D02*
X3529Y352D02*
X5500Y352D01*
D02*
X1556Y353D02*
X3502Y352D01*
D02*
X366Y352D02*
X1529Y353D01*
D02*
X8938Y528D02*
X8727Y529D01*
D02*
X14302Y528D02*
X12394Y529D01*
D02*
X12367Y529D02*
X10341Y529D01*
D02*
X10314Y529D02*
X8965Y528D01*
D02*
X8700Y529D02*
X6790Y529D01*
D02*
X6763Y529D02*
X4743Y528D01*
D02*
X4716Y528D02*
X3128Y528D01*
D02*
X3101Y528D02*
X1198Y529D01*
D02*
X1171Y529D02*
X367Y529D01*
D02*
X15091Y528D02*
X14329Y528D01*
D02*
X14115Y753D02*
X11995Y752D01*
D02*
X11969Y752D02*
X10172Y752D01*
D02*
X10145Y752D02*
X9556Y752D01*
D02*
X8514Y752D02*
X6395Y752D01*
D02*
X6369Y752D02*
X4567Y753D01*
D02*
X4540Y753D02*
X2975Y753D01*
D02*
X2948Y753D02*
X796Y753D01*
D02*
X769Y753D02*
X366Y752D01*
D02*
X15091Y752D02*
X14142Y753D01*
D02*
X9555Y802D02*
X10087Y802D01*
D02*
X13774Y803D02*
X15091Y802D01*
D02*
X11773Y802D02*
X13747Y803D01*
D02*
X10113Y802D02*
X11746Y802D01*
D02*
X6169Y802D02*
X8149Y802D01*
D02*
X4518Y803D02*
X6142Y802D01*
D02*
X2910Y803D02*
X4492Y803D01*
D02*
X542Y803D02*
X2883Y803D01*
D02*
X366Y803D02*
X515Y803D01*
D02*
X7871Y929D02*
X6115Y929D01*
D02*
X13687Y929D02*
X11713Y929D01*
D02*
X11687Y929D02*
X9743Y929D01*
D02*
X6088Y929D02*
X4141Y929D01*
D02*
X4114Y929D02*
X2594Y929D01*
D02*
X2567Y929D02*
X366Y929D01*
D02*
X15091Y929D02*
X13714Y929D01*
D02*
X9513Y127D02*
X9328Y126D01*
D02*
X14902Y126D02*
X13131Y126D01*
D02*
X13104Y126D02*
X11329Y126D01*
D02*
X11302Y126D02*
X9540Y127D01*
D02*
X9301Y126D02*
X7527Y126D01*
D02*
X7501Y126D02*
X5728Y127D01*
D02*
X5701Y127D02*
X3729Y127D01*
D02*
X3702Y127D02*
X1929Y126D01*
D02*
X1902Y126D02*
X367Y127D01*
D02*
X15090Y127D02*
X14929Y127D01*
D02*
X9599Y77D02*
X9702Y77D01*
D02*
X13329Y77D02*
X15091Y76D01*
D02*
X11529Y76D02*
X13302Y77D01*
D02*
X9729Y77D02*
X11502Y76D01*
D02*
X7728Y77D02*
X9572Y77D01*
D02*
X5928Y77D02*
X7701Y77D01*
D02*
X4129Y77D02*
X5901Y77D01*
D02*
X2129Y77D02*
X4102Y77D01*
D02*
X366Y76D02*
X2102Y77D01*
D02*
X7885Y942D02*
X7885Y1143D01*
D02*
X8163Y999D02*
X8163Y816D01*
D02*
X7985Y999D02*
X8163Y999D01*
D02*
X7985Y1143D02*
X7985Y999D01*
D02*
X8081Y929D02*
X7898Y929D01*
D02*
X8528Y929D02*
X8528Y766D01*
D02*
X8202Y1042D02*
X8202Y929D01*
D02*
X8202Y929D02*
X8528Y929D01*
D02*
X8085Y1042D02*
X8202Y1042D01*
D02*
X8085Y1143D02*
X8085Y1042D01*
D02*
X8951Y968D02*
X8242Y968D01*
D02*
X8242Y968D02*
X8242Y1083D01*
D02*
X8242Y1083D02*
X8185Y1083D01*
D02*
X8185Y1083D02*
X8185Y1143D01*
D02*
X8951Y542D02*
X8951Y968D01*
D02*
X9242Y1007D02*
X8285Y1007D01*
D02*
X8285Y1007D02*
X8285Y1143D01*
D02*
X9242Y711D02*
X9242Y1007D01*
D02*
X9302Y1046D02*
X8385Y1046D01*
D02*
X8385Y1046D02*
X8385Y1143D01*
D02*
X9302Y711D02*
X9302Y1046D01*
D02*
X9362Y1084D02*
X8485Y1084D01*
D02*
X8485Y1084D02*
X8485Y1143D01*
D02*
X9362Y711D02*
X9362Y1084D01*
D02*
X9422Y1168D02*
X8610Y1168D01*
D02*
X9422Y711D02*
X9422Y1168D01*
D02*
X6885Y1083D02*
X6573Y1083D01*
D02*
X6573Y1083D02*
X6573Y1125D01*
D02*
X6885Y1143D02*
X6885Y1083D01*
D02*
X6353Y1146D02*
X6453Y1146D01*
D02*
X5930Y998D02*
X6985Y998D01*
D02*
X6985Y998D02*
X6985Y1143D01*
D02*
X5930Y1123D02*
X5930Y998D01*
G04 End of Copper1*
M02*