G04 MADE WITH FRITZING*
G04 WWW.FRITZING.ORG*
G04 DOUBLE SIDED*
G04 HOLES PLATED*
G04 CONTOUR ON CENTER OF CONTOUR VECTOR*
%ASAXBY*%
%FSLAX23Y23*%
%MOIN*%
%OFA0B0*%
%SFA1.0B1.0*%
%ADD10C,0.075000*%
%ADD11C,0.062992*%
%ADD12C,0.055433*%
%ADD13C,0.078000*%
%ADD14C,0.039370*%
%ADD15R,0.062992X0.062992*%
%ADD16C,0.016000*%
%LNCOPPER1*%
G90*
G70*
G54D10*
X456Y1791D03*
X200Y1791D03*
X456Y1968D03*
X200Y1968D03*
X856Y1791D03*
X600Y1791D03*
X856Y1968D03*
X600Y1968D03*
X1256Y1791D03*
X1000Y1791D03*
X1256Y1968D03*
X1000Y1968D03*
X1656Y1791D03*
X1400Y1791D03*
X1656Y1968D03*
X1400Y1968D03*
X2056Y1791D03*
X1800Y1791D03*
X2056Y1968D03*
X1800Y1968D03*
X2456Y1791D03*
X2200Y1791D03*
X2456Y1968D03*
X2200Y1968D03*
X2856Y1791D03*
X2600Y1791D03*
X2856Y1968D03*
X2600Y1968D03*
X3256Y1791D03*
X3000Y1791D03*
X3256Y1968D03*
X3000Y1968D03*
X3656Y1791D03*
X3400Y1791D03*
X3656Y1968D03*
X3400Y1968D03*
X4056Y1791D03*
X3800Y1791D03*
X4056Y1968D03*
X3800Y1968D03*
X4456Y1791D03*
X4200Y1791D03*
X4456Y1968D03*
X4200Y1968D03*
X4856Y1791D03*
X4600Y1791D03*
X4856Y1968D03*
X4600Y1968D03*
X5256Y1791D03*
X5000Y1791D03*
X5256Y1968D03*
X5000Y1968D03*
X5656Y1791D03*
X5400Y1791D03*
X5656Y1968D03*
X5400Y1968D03*
X6056Y1791D03*
X5800Y1791D03*
X6056Y1968D03*
X5800Y1968D03*
X1856Y1390D03*
X1600Y1390D03*
X1856Y1568D03*
X1600Y1568D03*
X1456Y1390D03*
X1200Y1390D03*
X1456Y1568D03*
X1200Y1568D03*
X657Y1390D03*
X401Y1390D03*
X657Y1567D03*
X401Y1567D03*
X4656Y1390D03*
X4400Y1390D03*
X4656Y1568D03*
X4400Y1568D03*
X2656Y1390D03*
X2400Y1390D03*
X2656Y1568D03*
X2400Y1568D03*
X5856Y1390D03*
X5600Y1390D03*
X5856Y1568D03*
X5600Y1568D03*
X5056Y1390D03*
X4800Y1390D03*
X5056Y1568D03*
X4800Y1568D03*
X3056Y1390D03*
X2800Y1390D03*
X3056Y1568D03*
X2800Y1568D03*
X5456Y1390D03*
X5200Y1390D03*
X5456Y1568D03*
X5200Y1568D03*
X3856Y1390D03*
X3600Y1390D03*
X3856Y1568D03*
X3600Y1568D03*
X4256Y1390D03*
X4000Y1390D03*
X4256Y1568D03*
X4000Y1568D03*
X3456Y1390D03*
X3200Y1390D03*
X3456Y1568D03*
X3200Y1568D03*
X6256Y1390D03*
X6000Y1390D03*
X6256Y1568D03*
X6000Y1568D03*
X2256Y1390D03*
X2000Y1390D03*
X2256Y1568D03*
X2000Y1568D03*
X1056Y1390D03*
X800Y1390D03*
X1056Y1568D03*
X800Y1568D03*
X5857Y590D03*
X5601Y590D03*
X5857Y767D03*
X5601Y767D03*
X4657Y590D03*
X4401Y590D03*
X4657Y767D03*
X4401Y767D03*
X1656Y991D03*
X1400Y991D03*
X1656Y1168D03*
X1400Y1168D03*
X1256Y991D03*
X1000Y991D03*
X1256Y1168D03*
X1000Y1168D03*
X657Y590D03*
X401Y590D03*
X657Y767D03*
X401Y767D03*
X856Y991D03*
X600Y991D03*
X856Y1168D03*
X600Y1168D03*
X1057Y590D03*
X801Y590D03*
X1057Y767D03*
X801Y767D03*
X3457Y590D03*
X3201Y590D03*
X3457Y767D03*
X3201Y767D03*
X2257Y590D03*
X2001Y590D03*
X2257Y767D03*
X2001Y767D03*
X5457Y590D03*
X5201Y590D03*
X5457Y767D03*
X5201Y767D03*
X2657Y590D03*
X2401Y590D03*
X2657Y767D03*
X2401Y767D03*
X1857Y590D03*
X1601Y590D03*
X1857Y767D03*
X1601Y767D03*
X4856Y991D03*
X4600Y991D03*
X4856Y1168D03*
X4600Y1168D03*
X3057Y590D03*
X2801Y590D03*
X3057Y767D03*
X2801Y767D03*
X5057Y590D03*
X4801Y590D03*
X5057Y767D03*
X4801Y767D03*
X2856Y991D03*
X2600Y991D03*
X2856Y1168D03*
X2600Y1168D03*
X5656Y991D03*
X5400Y991D03*
X5656Y1168D03*
X5400Y1168D03*
X5256Y991D03*
X5000Y991D03*
X5256Y1168D03*
X5000Y1168D03*
X2456Y991D03*
X2200Y991D03*
X2456Y1168D03*
X2200Y1168D03*
X4056Y991D03*
X3800Y991D03*
X4056Y1168D03*
X3800Y1168D03*
X1457Y590D03*
X1201Y590D03*
X1457Y767D03*
X1201Y767D03*
X6257Y590D03*
X6001Y590D03*
X6257Y767D03*
X6001Y767D03*
X6056Y991D03*
X5800Y991D03*
X6056Y1168D03*
X5800Y1168D03*
X3656Y991D03*
X3400Y991D03*
X3656Y1168D03*
X3400Y1168D03*
X4456Y991D03*
X4200Y991D03*
X4456Y1168D03*
X4200Y1168D03*
X4257Y590D03*
X4001Y590D03*
X4257Y767D03*
X4001Y767D03*
X2056Y991D03*
X1800Y991D03*
X2056Y1168D03*
X1800Y1168D03*
X3256Y991D03*
X3000Y991D03*
X3256Y1168D03*
X3000Y1168D03*
X3857Y590D03*
X3601Y590D03*
X3857Y767D03*
X3601Y767D03*
X1256Y190D03*
X1000Y190D03*
X1256Y368D03*
X1000Y368D03*
X457Y190D03*
X201Y190D03*
X457Y367D03*
X201Y367D03*
X4456Y190D03*
X4200Y190D03*
X4456Y368D03*
X4200Y368D03*
X2856Y190D03*
X2600Y190D03*
X2856Y368D03*
X2600Y368D03*
X5256Y190D03*
X5000Y190D03*
X5256Y368D03*
X5000Y368D03*
X3656Y190D03*
X3400Y190D03*
X3656Y368D03*
X3400Y368D03*
X6056Y190D03*
X5800Y190D03*
X6056Y368D03*
X5800Y368D03*
X2056Y190D03*
X1800Y190D03*
X2056Y368D03*
X1800Y368D03*
G54D11*
X329Y1030D03*
X329Y1128D03*
G54D12*
X515Y1689D03*
X515Y1969D03*
X515Y1689D03*
X515Y1969D03*
X915Y1688D03*
X915Y1968D03*
X915Y1688D03*
X915Y1968D03*
X1314Y1688D03*
X1314Y1968D03*
X1314Y1688D03*
X1314Y1968D03*
X1714Y1688D03*
X1714Y1968D03*
X1714Y1688D03*
X1714Y1968D03*
X2114Y1688D03*
X2114Y1968D03*
X2114Y1688D03*
X2114Y1968D03*
X2914Y1688D03*
X2914Y1968D03*
X2914Y1688D03*
X2914Y1968D03*
X3714Y1688D03*
X3714Y1968D03*
X3714Y1688D03*
X3714Y1968D03*
X3314Y1688D03*
X3314Y1968D03*
X3314Y1688D03*
X3314Y1968D03*
X4114Y1688D03*
X4114Y1968D03*
X4114Y1688D03*
X4114Y1968D03*
X2514Y1688D03*
X2514Y1968D03*
X2514Y1688D03*
X2514Y1968D03*
X4515Y1688D03*
X4515Y1968D03*
X4515Y1688D03*
X4515Y1968D03*
X5714Y1688D03*
X5714Y1968D03*
X5714Y1688D03*
X5714Y1968D03*
X6114Y1688D03*
X6114Y1968D03*
X6114Y1688D03*
X6114Y1968D03*
X5314Y1688D03*
X5314Y1968D03*
X5314Y1688D03*
X5314Y1968D03*
X4915Y1688D03*
X4915Y1968D03*
X4915Y1688D03*
X4915Y1968D03*
X1513Y1288D03*
X1513Y1568D03*
X1513Y1288D03*
X1513Y1568D03*
X2714Y1288D03*
X2714Y1568D03*
X2714Y1288D03*
X2714Y1568D03*
X4314Y1288D03*
X4314Y1568D03*
X4314Y1288D03*
X4314Y1568D03*
X3114Y1288D03*
X3114Y1568D03*
X3114Y1288D03*
X3114Y1568D03*
X4715Y1289D03*
X4715Y1569D03*
X4715Y1289D03*
X4715Y1569D03*
X5914Y1288D03*
X5914Y1568D03*
X5914Y1288D03*
X5914Y1568D03*
X5514Y1288D03*
X5514Y1568D03*
X5514Y1288D03*
X5514Y1568D03*
X3514Y1288D03*
X3514Y1568D03*
X3514Y1288D03*
X3514Y1568D03*
X714Y1288D03*
X714Y1568D03*
X714Y1288D03*
X714Y1568D03*
X1114Y1288D03*
X1114Y1568D03*
X1114Y1288D03*
X1114Y1568D03*
X6314Y1288D03*
X6314Y1568D03*
X6314Y1288D03*
X6314Y1568D03*
X5115Y1288D03*
X5115Y1568D03*
X5115Y1288D03*
X5115Y1568D03*
X1913Y1288D03*
X1913Y1568D03*
X1913Y1288D03*
X1913Y1568D03*
X3914Y1288D03*
X3914Y1568D03*
X3914Y1288D03*
X3914Y1568D03*
X2313Y1288D03*
X2313Y1568D03*
X2313Y1288D03*
X2313Y1568D03*
X4115Y888D03*
X4115Y1168D03*
X4115Y888D03*
X4115Y1168D03*
X3715Y888D03*
X3715Y1168D03*
X3715Y888D03*
X3715Y1168D03*
X4515Y889D03*
X4515Y1169D03*
X4515Y889D03*
X4515Y1169D03*
X3315Y888D03*
X3315Y1168D03*
X3315Y888D03*
X3315Y1168D03*
X2915Y888D03*
X2915Y1168D03*
X2915Y888D03*
X2915Y1168D03*
X6115Y889D03*
X6115Y1169D03*
X6115Y889D03*
X6115Y1169D03*
X2515Y889D03*
X2515Y1169D03*
X2515Y889D03*
X2515Y1169D03*
X5315Y889D03*
X5315Y1169D03*
X5315Y889D03*
X5315Y1169D03*
X914Y888D03*
X914Y1168D03*
X914Y888D03*
X914Y1168D03*
X1714Y888D03*
X1714Y1168D03*
X1714Y888D03*
X1714Y1168D03*
X2114Y888D03*
X2114Y1168D03*
X2114Y888D03*
X2114Y1168D03*
X1314Y888D03*
X1314Y1168D03*
X1314Y888D03*
X1314Y1168D03*
X5715Y889D03*
X5715Y1169D03*
X5715Y889D03*
X5715Y1169D03*
X4915Y889D03*
X4915Y1169D03*
X4915Y889D03*
X4915Y1169D03*
X1914Y488D03*
X1914Y768D03*
X1914Y488D03*
X1914Y768D03*
X3115Y488D03*
X3115Y768D03*
X3115Y488D03*
X3115Y768D03*
X4715Y489D03*
X4715Y769D03*
X4715Y489D03*
X4715Y769D03*
X5515Y489D03*
X5515Y769D03*
X5515Y489D03*
X5515Y769D03*
X2314Y488D03*
X2314Y768D03*
X2314Y488D03*
X2314Y768D03*
X1514Y488D03*
X1514Y768D03*
X1514Y488D03*
X1514Y768D03*
X2715Y489D03*
X2715Y769D03*
X2715Y489D03*
X2715Y769D03*
X1114Y488D03*
X1114Y768D03*
X1114Y488D03*
X1114Y768D03*
X4315Y488D03*
X4315Y768D03*
X4315Y488D03*
X4315Y768D03*
X6315Y489D03*
X6315Y769D03*
X6315Y489D03*
X6315Y769D03*
X5915Y489D03*
X5915Y769D03*
X5915Y489D03*
X5915Y769D03*
X3915Y488D03*
X3915Y768D03*
X3915Y488D03*
X3915Y768D03*
X3515Y488D03*
X3515Y768D03*
X3515Y488D03*
X3515Y768D03*
X5115Y489D03*
X5115Y769D03*
X5115Y489D03*
X5115Y769D03*
X514Y89D03*
X514Y369D03*
X514Y89D03*
X514Y369D03*
X5315Y89D03*
X5315Y369D03*
X5315Y89D03*
X5315Y369D03*
X6115Y89D03*
X6115Y369D03*
X6115Y89D03*
X6115Y369D03*
X4515Y89D03*
X4515Y369D03*
X4515Y89D03*
X4515Y369D03*
X1314Y88D03*
X1314Y368D03*
X1314Y88D03*
X1314Y368D03*
X2915Y88D03*
X2915Y368D03*
X2915Y88D03*
X2915Y368D03*
G54D13*
X2381Y2271D03*
X2481Y2271D03*
X2581Y2271D03*
X2681Y2271D03*
X2781Y2271D03*
X2881Y2271D03*
X2981Y2271D03*
X3081Y2271D03*
X3181Y2271D03*
X3281Y2271D03*
X3381Y2271D03*
X3481Y2271D03*
X3581Y2271D03*
X3681Y2271D03*
X3781Y2271D03*
X3881Y2271D03*
X3981Y2271D03*
X4081Y2271D03*
G54D14*
X2983Y891D03*
X3383Y891D03*
G54D10*
X264Y2095D03*
X664Y2095D03*
G54D15*
X329Y1030D03*
G54D16*
X485Y1969D02*
X486Y1969D01*
D02*
X884Y1968D02*
X886Y1968D01*
D02*
X1284Y1968D02*
X1285Y1968D01*
D02*
X1684Y1968D02*
X1685Y1968D01*
D02*
X2084Y1968D02*
X2085Y1968D01*
D02*
X2484Y1968D02*
X2486Y1968D01*
D02*
X2884Y1968D02*
X2886Y1968D01*
D02*
X3284Y1968D02*
X3285Y1968D01*
D02*
X3684Y1968D02*
X3685Y1968D01*
D02*
X4084Y1968D02*
X4085Y1968D01*
D02*
X4484Y1968D02*
X4486Y1968D01*
D02*
X4884Y1968D02*
X4886Y1968D01*
D02*
X5284Y1968D02*
X5285Y1968D01*
D02*
X5684Y1968D02*
X5685Y1968D01*
D02*
X6084Y1968D02*
X6085Y1968D01*
D02*
X685Y1568D02*
X685Y1568D01*
D02*
X1085Y1568D02*
X1085Y1568D01*
D02*
X1485Y1568D02*
X1484Y1568D01*
D02*
X1885Y1568D02*
X1884Y1568D01*
D02*
X2285Y1568D02*
X2284Y1568D01*
D02*
X2685Y1568D02*
X2685Y1568D01*
D02*
X3085Y1568D02*
X3086Y1568D01*
D02*
X3485Y1568D02*
X3485Y1568D01*
D02*
X3885Y1568D02*
X3885Y1568D01*
D02*
X4285Y1568D02*
X4285Y1568D01*
D02*
X4685Y1568D02*
X4686Y1568D01*
D02*
X5085Y1568D02*
X5086Y1568D01*
D02*
X5485Y1568D02*
X5485Y1568D01*
D02*
X5885Y1568D02*
X5885Y1568D01*
D02*
X6285Y1568D02*
X6285Y1568D01*
D02*
X884Y1168D02*
X886Y1168D01*
D02*
X1284Y1168D02*
X1285Y1168D01*
D02*
X1684Y1168D02*
X1685Y1168D01*
D02*
X2084Y1168D02*
X2085Y1168D01*
D02*
X2484Y1169D02*
X2486Y1169D01*
D02*
X2884Y1168D02*
X2886Y1168D01*
D02*
X3284Y1168D02*
X3286Y1168D01*
D02*
X3684Y1168D02*
X3686Y1168D01*
D02*
X4084Y1168D02*
X4086Y1168D01*
D02*
X4484Y1169D02*
X4487Y1169D01*
D02*
X4884Y1168D02*
X4887Y1168D01*
D02*
X5284Y1168D02*
X5286Y1168D01*
D02*
X5684Y1168D02*
X5686Y1168D01*
D02*
X6084Y1168D02*
X6086Y1168D01*
D02*
X1085Y768D02*
X1086Y768D01*
D02*
X1485Y768D02*
X1485Y768D01*
D02*
X1885Y768D02*
X1885Y768D01*
D02*
X2285Y768D02*
X2285Y768D01*
D02*
X2685Y768D02*
X2686Y768D01*
D02*
X3085Y768D02*
X3086Y768D01*
D02*
X3485Y768D02*
X3486Y768D01*
D02*
X3885Y768D02*
X3886Y768D01*
D02*
X4285Y768D02*
X4286Y768D01*
D02*
X4685Y768D02*
X4687Y768D01*
D02*
X5085Y768D02*
X5087Y768D01*
D02*
X5485Y768D02*
X5486Y768D01*
D02*
X5885Y768D02*
X5886Y768D01*
D02*
X6285Y768D02*
X6286Y768D01*
D02*
X6085Y368D02*
X6086Y368D01*
D02*
X5285Y368D02*
X5286Y368D01*
D02*
X4485Y368D02*
X4487Y368D01*
D02*
X2885Y368D02*
X2886Y368D01*
D02*
X1285Y368D02*
X1285Y368D01*
D02*
X485Y368D02*
X486Y368D01*
D02*
X515Y1288D02*
X515Y1660D01*
D02*
X685Y1288D02*
X515Y1288D01*
D02*
X714Y888D02*
X886Y888D01*
D02*
X714Y1259D02*
X714Y888D01*
D02*
X914Y488D02*
X1086Y488D01*
D02*
X914Y859D02*
X914Y488D01*
D02*
X915Y1288D02*
X1085Y1288D01*
D02*
X915Y1659D02*
X915Y1288D01*
D02*
X1114Y1259D02*
X1114Y888D01*
D02*
X1114Y888D02*
X1285Y888D01*
D02*
X1314Y488D02*
X1485Y488D01*
D02*
X1314Y859D02*
X1314Y488D01*
D02*
X1314Y1288D02*
X1484Y1288D01*
D02*
X1314Y1659D02*
X1314Y1288D01*
D02*
X1513Y1259D02*
X1513Y888D01*
D02*
X1513Y888D02*
X1685Y888D01*
D02*
X1714Y488D02*
X1885Y488D01*
D02*
X1714Y859D02*
X1714Y488D01*
D02*
X1714Y1288D02*
X1884Y1288D01*
D02*
X1714Y1659D02*
X1714Y1288D01*
D02*
X1913Y1259D02*
X1913Y888D01*
D02*
X1913Y888D02*
X2085Y888D01*
D02*
X2114Y488D02*
X2285Y488D01*
D02*
X2114Y859D02*
X2114Y488D01*
D02*
X2114Y1288D02*
X2114Y1659D01*
D02*
X2284Y1288D02*
X2114Y1288D01*
D02*
X2313Y889D02*
X2486Y889D01*
D02*
X2313Y1259D02*
X2313Y889D01*
D02*
X2515Y489D02*
X2686Y489D01*
D02*
X2515Y860D02*
X2515Y489D01*
D02*
X2685Y1288D02*
X2514Y1288D01*
D02*
X2514Y1288D02*
X2514Y1659D01*
D02*
X2714Y888D02*
X2886Y888D01*
D02*
X2714Y1260D02*
X2714Y888D01*
D02*
X2915Y488D02*
X3086Y488D01*
D02*
X2915Y860D02*
X2915Y488D01*
D02*
X3086Y1288D02*
X2914Y1288D01*
D02*
X2914Y1288D02*
X2914Y1659D01*
D02*
X3114Y888D02*
X3286Y888D01*
D02*
X3114Y1259D02*
X3114Y888D01*
D02*
X3315Y860D02*
X3315Y488D01*
D02*
X3315Y488D02*
X3486Y488D01*
D02*
X3314Y1288D02*
X3485Y1288D01*
D02*
X3314Y1659D02*
X3314Y1288D01*
D02*
X3514Y888D02*
X3686Y888D01*
D02*
X3514Y1259D02*
X3514Y888D01*
D02*
X3715Y860D02*
X3715Y488D01*
D02*
X3715Y488D02*
X3886Y488D01*
D02*
X3714Y1288D02*
X3714Y1659D01*
D02*
X3885Y1288D02*
X3714Y1288D01*
D02*
X3914Y888D02*
X4086Y888D01*
D02*
X3914Y1259D02*
X3914Y888D01*
D02*
X4115Y488D02*
X4286Y488D01*
D02*
X4115Y860D02*
X4115Y488D01*
D02*
X4114Y1288D02*
X4114Y1659D01*
D02*
X4285Y1288D02*
X4114Y1288D01*
D02*
X4314Y1259D02*
X4314Y889D01*
D02*
X4314Y889D02*
X4487Y889D01*
D02*
X4515Y489D02*
X4687Y489D01*
D02*
X4515Y860D02*
X4515Y489D01*
D02*
X4686Y1289D02*
X4515Y1289D01*
D02*
X4515Y1289D02*
X4515Y1660D01*
D02*
X4715Y1260D02*
X4715Y889D01*
D02*
X4715Y889D02*
X4887Y889D01*
D02*
X4915Y489D02*
X5087Y489D01*
D02*
X4915Y860D02*
X4915Y489D01*
D02*
X4915Y1288D02*
X5086Y1288D01*
D02*
X4915Y1659D02*
X4915Y1288D01*
D02*
X5115Y889D02*
X5286Y889D01*
D02*
X5115Y1259D02*
X5115Y889D01*
D02*
X5315Y489D02*
X5486Y489D01*
D02*
X5315Y860D02*
X5315Y489D01*
D02*
X5314Y1659D02*
X5314Y1288D01*
D02*
X5314Y1288D02*
X5485Y1288D01*
D02*
X5514Y889D02*
X5686Y889D01*
D02*
X5514Y1259D02*
X5514Y889D01*
D02*
X5715Y489D02*
X5886Y489D01*
D02*
X5715Y860D02*
X5715Y489D01*
D02*
X5885Y1288D02*
X5714Y1288D01*
D02*
X5714Y1288D02*
X5714Y1659D01*
D02*
X5914Y889D02*
X6086Y889D01*
D02*
X5914Y1259D02*
X5914Y889D01*
D02*
X6115Y860D02*
X6115Y489D01*
D02*
X6115Y489D02*
X6286Y489D01*
D02*
X6285Y1288D02*
X6114Y1288D01*
D02*
X6114Y1288D02*
X6114Y1659D01*
D02*
X1285Y88D02*
X543Y89D01*
D02*
X4544Y89D02*
X5286Y89D01*
D02*
X5344Y89D02*
X6086Y89D01*
D02*
X4487Y89D02*
X2944Y88D01*
D02*
X1343Y88D02*
X2886Y88D01*
D02*
X2572Y368D02*
X2085Y368D01*
D02*
X2828Y368D02*
X2629Y368D01*
D02*
X2944Y368D02*
X3372Y368D01*
D02*
X2983Y590D02*
X2983Y872D01*
D02*
X3028Y590D02*
X2983Y590D01*
D02*
X3383Y680D02*
X3383Y872D01*
D02*
X3601Y680D02*
X3383Y680D01*
D02*
X3601Y619D02*
X3601Y680D01*
D02*
X2381Y2180D02*
X329Y2180D01*
D02*
X329Y2180D02*
X329Y1150D01*
D02*
X2381Y2246D02*
X2381Y2180D01*
D02*
X1114Y259D02*
X1114Y459D01*
D02*
X6315Y259D02*
X1114Y259D01*
D02*
X6315Y460D02*
X6315Y259D01*
D02*
X1514Y299D02*
X1514Y459D01*
D02*
X5915Y299D02*
X1514Y299D01*
D02*
X5915Y460D02*
X5915Y299D01*
D02*
X1914Y432D02*
X1914Y459D01*
D02*
X5515Y460D02*
X5515Y432D01*
D02*
X5515Y432D02*
X1914Y432D01*
D02*
X5928Y2271D02*
X4111Y2271D01*
D02*
X5928Y1688D02*
X5928Y2271D01*
D02*
X6085Y1688D02*
X5928Y1688D01*
D02*
X5528Y2185D02*
X3981Y2185D01*
D02*
X3981Y2185D02*
X3981Y2240D01*
D02*
X5528Y1688D02*
X5528Y2185D01*
D02*
X5685Y1688D02*
X5528Y1688D01*
D02*
X3881Y2144D02*
X3881Y2240D01*
D02*
X5128Y2144D02*
X3881Y2144D01*
D02*
X5285Y1688D02*
X5128Y1688D01*
D02*
X5128Y1688D02*
X5128Y2144D01*
D02*
X3781Y2102D02*
X3781Y2240D01*
D02*
X4728Y2102D02*
X3781Y2102D01*
D02*
X4728Y1688D02*
X4728Y2102D01*
D02*
X4886Y1688D02*
X4728Y1688D01*
D02*
X2085Y190D02*
X2572Y190D01*
D02*
X2629Y190D02*
X2828Y190D01*
D02*
X2885Y190D02*
X3372Y190D01*
D02*
X3681Y2052D02*
X4328Y2052D01*
D02*
X4328Y2052D02*
X4328Y1688D01*
D02*
X3681Y2240D02*
X3681Y2052D01*
D02*
X4328Y1688D02*
X4486Y1688D01*
D02*
X3581Y1880D02*
X3928Y1880D01*
D02*
X3928Y1880D02*
X3928Y1688D01*
D02*
X3928Y1688D02*
X4085Y1688D01*
D02*
X3581Y2240D02*
X3581Y1880D01*
D02*
X3481Y1688D02*
X3685Y1688D01*
D02*
X3481Y2240D02*
X3481Y1688D01*
D02*
X3128Y2185D02*
X3128Y1688D01*
D02*
X3381Y2185D02*
X3128Y2185D01*
D02*
X3128Y1688D02*
X3285Y1688D01*
D02*
X3381Y2240D02*
X3381Y2185D01*
D02*
X2481Y2095D02*
X692Y2095D01*
D02*
X2481Y2240D02*
X2481Y2095D01*
D02*
X302Y1030D02*
X264Y1030D01*
D02*
X264Y1030D02*
X264Y2066D01*
G04 End of Copper1*
M02*