G04 MADE WITH FRITZING*
G04 WWW.FRITZING.ORG*
G04 DOUBLE SIDED*
G04 HOLES PLATED*
G04 CONTOUR ON CENTER OF CONTOUR VECTOR*
%ASAXBY*%
%FSLAX23Y23*%
%MOIN*%
%OFA0B0*%
%SFA1.0B1.0*%
%ADD10C,0.075000*%
%ADD11C,0.062992*%
%ADD12C,0.055433*%
%ADD13C,0.078000*%
%ADD14C,0.039370*%
%ADD15R,0.062992X0.062992*%
%ADD16C,0.016000*%
%LNCOPPER0*%
G90*
G70*
G54D10*
X5057Y590D03*
X4801Y590D03*
X5057Y767D03*
X4801Y767D03*
X3057Y590D03*
X2801Y590D03*
X3057Y767D03*
X2801Y767D03*
X2856Y991D03*
X2600Y991D03*
X2856Y1168D03*
X2600Y1168D03*
X5656Y991D03*
X5400Y991D03*
X5656Y1168D03*
X5400Y1168D03*
X5256Y991D03*
X5000Y991D03*
X5256Y1168D03*
X5000Y1168D03*
X2456Y991D03*
X2200Y991D03*
X2456Y1168D03*
X2200Y1168D03*
X4856Y991D03*
X4600Y991D03*
X4856Y1168D03*
X4600Y1168D03*
X2657Y590D03*
X2401Y590D03*
X2657Y767D03*
X2401Y767D03*
X657Y590D03*
X401Y590D03*
X657Y767D03*
X401Y767D03*
X856Y991D03*
X600Y991D03*
X856Y1168D03*
X600Y1168D03*
X1857Y590D03*
X1601Y590D03*
X1857Y767D03*
X1601Y767D03*
X1057Y590D03*
X801Y590D03*
X1057Y767D03*
X801Y767D03*
X3457Y590D03*
X3201Y590D03*
X3457Y767D03*
X3201Y767D03*
X4056Y991D03*
X3800Y991D03*
X4056Y1168D03*
X3800Y1168D03*
X2257Y590D03*
X2001Y590D03*
X2257Y767D03*
X2001Y767D03*
X5457Y590D03*
X5201Y590D03*
X5457Y767D03*
X5201Y767D03*
X1457Y590D03*
X1201Y590D03*
X1457Y767D03*
X1201Y767D03*
X4456Y190D03*
X4200Y190D03*
X4456Y368D03*
X4200Y368D03*
X2856Y190D03*
X2600Y190D03*
X2856Y368D03*
X2600Y368D03*
X1256Y991D03*
X1000Y991D03*
X1256Y1168D03*
X1000Y1168D03*
X5256Y190D03*
X5000Y190D03*
X5256Y368D03*
X5000Y368D03*
X6056Y190D03*
X5800Y190D03*
X6056Y368D03*
X5800Y368D03*
X2056Y190D03*
X1800Y190D03*
X2056Y368D03*
X1800Y368D03*
X3656Y190D03*
X3400Y190D03*
X3656Y368D03*
X3400Y368D03*
X457Y190D03*
X201Y190D03*
X457Y367D03*
X201Y367D03*
X6257Y590D03*
X6001Y590D03*
X6257Y767D03*
X6001Y767D03*
X6056Y991D03*
X5800Y991D03*
X6056Y1168D03*
X5800Y1168D03*
X1256Y190D03*
X1000Y190D03*
X1256Y368D03*
X1000Y368D03*
X3656Y991D03*
X3400Y991D03*
X3656Y1168D03*
X3400Y1168D03*
X4257Y590D03*
X4001Y590D03*
X4257Y767D03*
X4001Y767D03*
X3857Y590D03*
X3601Y590D03*
X3857Y767D03*
X3601Y767D03*
X2056Y991D03*
X1800Y991D03*
X2056Y1168D03*
X1800Y1168D03*
X3256Y991D03*
X3000Y991D03*
X3256Y1168D03*
X3000Y1168D03*
X4456Y991D03*
X4200Y991D03*
X4456Y1168D03*
X4200Y1168D03*
X4056Y1791D03*
X3800Y1791D03*
X4056Y1968D03*
X3800Y1968D03*
X4456Y1791D03*
X4200Y1791D03*
X4456Y1968D03*
X4200Y1968D03*
X1856Y1390D03*
X1600Y1390D03*
X1856Y1568D03*
X1600Y1568D03*
X4856Y1791D03*
X4600Y1791D03*
X4856Y1968D03*
X4600Y1968D03*
X5656Y1791D03*
X5400Y1791D03*
X5656Y1968D03*
X5400Y1968D03*
X6056Y1791D03*
X5800Y1791D03*
X6056Y1968D03*
X5800Y1968D03*
X5256Y1791D03*
X5000Y1791D03*
X5256Y1968D03*
X5000Y1968D03*
X3656Y1791D03*
X3400Y1791D03*
X3656Y1968D03*
X3400Y1968D03*
X456Y1791D03*
X200Y1791D03*
X456Y1968D03*
X200Y1968D03*
X856Y1791D03*
X600Y1791D03*
X856Y1968D03*
X600Y1968D03*
X3256Y1791D03*
X3000Y1791D03*
X3256Y1968D03*
X3000Y1968D03*
X1256Y1791D03*
X1000Y1791D03*
X1256Y1968D03*
X1000Y1968D03*
X1656Y1791D03*
X1400Y1791D03*
X1656Y1968D03*
X1400Y1968D03*
X2856Y1791D03*
X2600Y1791D03*
X2856Y1968D03*
X2600Y1968D03*
X2056Y1791D03*
X1800Y1791D03*
X2056Y1968D03*
X1800Y1968D03*
X2456Y1791D03*
X2200Y1791D03*
X2456Y1968D03*
X2200Y1968D03*
X1656Y991D03*
X1400Y991D03*
X1656Y1168D03*
X1400Y1168D03*
X4256Y1390D03*
X4000Y1390D03*
X4256Y1568D03*
X4000Y1568D03*
X3456Y1390D03*
X3200Y1390D03*
X3456Y1568D03*
X3200Y1568D03*
X3856Y1390D03*
X3600Y1390D03*
X3856Y1568D03*
X3600Y1568D03*
X6256Y1390D03*
X6000Y1390D03*
X6256Y1568D03*
X6000Y1568D03*
X2256Y1390D03*
X2000Y1390D03*
X2256Y1568D03*
X2000Y1568D03*
X4657Y590D03*
X4401Y590D03*
X4657Y767D03*
X4401Y767D03*
X1056Y1390D03*
X800Y1390D03*
X1056Y1568D03*
X800Y1568D03*
X5857Y590D03*
X5601Y590D03*
X5857Y767D03*
X5601Y767D03*
X1456Y1390D03*
X1200Y1390D03*
X1456Y1568D03*
X1200Y1568D03*
X657Y1390D03*
X401Y1390D03*
X657Y1567D03*
X401Y1567D03*
X4656Y1390D03*
X4400Y1390D03*
X4656Y1568D03*
X4400Y1568D03*
X2656Y1390D03*
X2400Y1390D03*
X2656Y1568D03*
X2400Y1568D03*
X5456Y1390D03*
X5200Y1390D03*
X5456Y1568D03*
X5200Y1568D03*
X5056Y1390D03*
X4800Y1390D03*
X5056Y1568D03*
X4800Y1568D03*
X3056Y1390D03*
X2800Y1390D03*
X3056Y1568D03*
X2800Y1568D03*
X5856Y1390D03*
X5600Y1390D03*
X5856Y1568D03*
X5600Y1568D03*
G54D11*
X329Y1030D03*
X329Y1128D03*
G54D12*
X5515Y489D03*
X5515Y769D03*
X5715Y889D03*
X5715Y1169D03*
X1314Y888D03*
X1314Y1168D03*
X4915Y889D03*
X4915Y1169D03*
X3115Y488D03*
X3115Y768D03*
X4715Y489D03*
X4715Y769D03*
X1914Y488D03*
X1914Y768D03*
X2114Y888D03*
X2114Y1168D03*
X3315Y888D03*
X3315Y1168D03*
X2915Y888D03*
X2915Y1168D03*
X1714Y888D03*
X1714Y1168D03*
X6115Y889D03*
X6115Y1169D03*
X5315Y889D03*
X5315Y1169D03*
X914Y888D03*
X914Y1168D03*
X2515Y889D03*
X2515Y1169D03*
X5115Y489D03*
X5115Y769D03*
X514Y89D03*
X514Y369D03*
X5315Y89D03*
X5315Y369D03*
X2314Y488D03*
X2314Y768D03*
X6115Y89D03*
X6115Y369D03*
X1314Y88D03*
X1314Y368D03*
X2915Y88D03*
X2915Y368D03*
X4515Y89D03*
X4515Y369D03*
X4515Y889D03*
X4515Y1169D03*
X1514Y488D03*
X1514Y768D03*
X2715Y489D03*
X2715Y769D03*
X3515Y488D03*
X3515Y768D03*
X1114Y488D03*
X1114Y768D03*
X4315Y488D03*
X4315Y768D03*
X3915Y488D03*
X3915Y768D03*
X6315Y489D03*
X6315Y769D03*
X5915Y489D03*
X5915Y769D03*
X5314Y1688D03*
X5314Y1968D03*
X4114Y1688D03*
X4114Y1968D03*
X2514Y1688D03*
X2514Y1968D03*
X1513Y1288D03*
X1513Y1568D03*
X4515Y1688D03*
X4515Y1968D03*
X6114Y1688D03*
X6114Y1968D03*
X4915Y1688D03*
X4915Y1968D03*
X5714Y1688D03*
X5714Y1968D03*
X3314Y1688D03*
X3314Y1968D03*
X915Y1688D03*
X915Y1968D03*
X515Y1689D03*
X515Y1969D03*
X3714Y1688D03*
X3714Y1968D03*
X1314Y1688D03*
X1314Y1968D03*
X2114Y1688D03*
X2114Y1968D03*
X2914Y1688D03*
X2914Y1968D03*
X1714Y1688D03*
X1714Y1968D03*
X3715Y888D03*
X3715Y1168D03*
X6314Y1288D03*
X6314Y1568D03*
X5115Y1288D03*
X5115Y1568D03*
X1114Y1288D03*
X1114Y1568D03*
X1913Y1288D03*
X1913Y1568D03*
X2313Y1288D03*
X2313Y1568D03*
X4115Y888D03*
X4115Y1168D03*
X3914Y1288D03*
X3914Y1568D03*
X2714Y1288D03*
X2714Y1568D03*
X4314Y1288D03*
X4314Y1568D03*
X3114Y1288D03*
X3114Y1568D03*
X4715Y1289D03*
X4715Y1569D03*
X714Y1288D03*
X714Y1568D03*
X3514Y1288D03*
X3514Y1568D03*
X5914Y1288D03*
X5914Y1568D03*
X5514Y1288D03*
X5514Y1568D03*
G54D13*
X2381Y2271D03*
X2481Y2271D03*
X2581Y2271D03*
X2681Y2271D03*
X2781Y2271D03*
X2881Y2271D03*
X2981Y2271D03*
X3081Y2271D03*
X3181Y2271D03*
X3281Y2271D03*
X3381Y2271D03*
X3481Y2271D03*
X3581Y2271D03*
X3681Y2271D03*
X3781Y2271D03*
X3881Y2271D03*
X3981Y2271D03*
X4081Y2271D03*
G54D14*
X2983Y891D03*
X3383Y891D03*
G54D10*
X264Y2095D03*
X664Y2095D03*
G54D15*
X329Y1030D03*
G54D16*
X5771Y1791D02*
X5684Y1791D01*
D02*
X5627Y1791D02*
X5428Y1791D01*
D02*
X5371Y1791D02*
X5284Y1791D01*
D02*
X5227Y1791D02*
X5028Y1791D01*
D02*
X4971Y1791D02*
X4884Y1791D01*
D02*
X4827Y1791D02*
X4628Y1791D01*
D02*
X4571Y1791D02*
X4484Y1791D01*
D02*
X4427Y1791D02*
X4228Y1791D01*
D02*
X4171Y1791D02*
X4084Y1791D01*
D02*
X4027Y1791D02*
X3828Y1791D01*
D02*
X3771Y1791D02*
X3684Y1791D01*
D02*
X3627Y1791D02*
X3428Y1791D01*
D02*
X3371Y1791D02*
X3284Y1791D01*
D02*
X2571Y1791D02*
X2484Y1791D01*
D02*
X2427Y1791D02*
X2228Y1791D01*
D02*
X2171Y1791D02*
X2084Y1791D01*
D02*
X2027Y1791D02*
X1828Y1791D01*
D02*
X1771Y1791D02*
X1684Y1791D01*
D02*
X1627Y1791D02*
X1428Y1791D01*
D02*
X1371Y1791D02*
X1284Y1791D01*
D02*
X1227Y1791D02*
X1028Y1791D01*
D02*
X971Y1791D02*
X884Y1791D01*
D02*
X827Y1791D02*
X628Y1791D01*
D02*
X571Y1791D02*
X485Y1791D01*
D02*
X427Y1791D02*
X229Y1791D01*
D02*
X115Y1791D02*
X172Y1791D01*
D02*
X172Y190D02*
X115Y190D01*
D02*
X115Y190D02*
X115Y1791D01*
D02*
X2772Y1390D02*
X2685Y1390D01*
D02*
X2628Y1390D02*
X2429Y1390D01*
D02*
X2372Y1390D02*
X2285Y1390D01*
D02*
X2228Y1390D02*
X2029Y1390D01*
D02*
X1972Y1390D02*
X1885Y1390D01*
D02*
X1828Y1390D02*
X1629Y1390D01*
D02*
X1572Y1390D02*
X1485Y1390D01*
D02*
X1428Y1390D02*
X1229Y1390D01*
D02*
X1172Y1390D02*
X1085Y1390D01*
D02*
X1028Y1390D02*
X829Y1390D01*
D02*
X772Y1390D02*
X685Y1390D01*
D02*
X628Y1390D02*
X429Y1390D01*
D02*
X580Y441D02*
X580Y190D01*
D02*
X161Y441D02*
X580Y441D01*
D02*
X580Y190D02*
X972Y190D01*
D02*
X161Y1390D02*
X161Y441D01*
D02*
X372Y1390D02*
X161Y1390D01*
D02*
X2971Y991D02*
X2884Y991D01*
D02*
X2827Y991D02*
X2629Y991D01*
D02*
X2571Y991D02*
X2484Y991D01*
D02*
X2427Y991D02*
X2229Y991D01*
D02*
X2171Y991D02*
X2084Y991D01*
D02*
X2027Y991D02*
X1829Y991D01*
D02*
X1771Y991D02*
X1684Y991D01*
D02*
X1627Y991D02*
X1429Y991D01*
D02*
X1371Y991D02*
X1284Y991D01*
D02*
X1227Y991D02*
X1029Y991D01*
D02*
X827Y991D02*
X629Y991D01*
D02*
X971Y991D02*
X884Y991D01*
D02*
X530Y991D02*
X571Y991D01*
D02*
X530Y485D02*
X530Y991D01*
D02*
X625Y485D02*
X530Y485D01*
D02*
X2056Y280D02*
X625Y280D01*
D02*
X2056Y219D02*
X2056Y280D01*
D02*
X625Y280D02*
X625Y485D01*
D02*
X3085Y590D02*
X3172Y590D01*
D02*
X3028Y590D02*
X2829Y590D01*
D02*
X2772Y590D02*
X2685Y590D01*
D02*
X2628Y590D02*
X2429Y590D01*
D02*
X2372Y590D02*
X2285Y590D01*
D02*
X2228Y590D02*
X2029Y590D01*
D02*
X1972Y590D02*
X1885Y590D01*
D02*
X1828Y590D02*
X1629Y590D01*
D02*
X1572Y590D02*
X1485Y590D01*
D02*
X1428Y590D02*
X1229Y590D01*
D02*
X1172Y590D02*
X1085Y590D01*
D02*
X1028Y590D02*
X829Y590D01*
D02*
X4200Y87D02*
X4200Y167D01*
D02*
X3178Y590D02*
X2148Y590D01*
D02*
X2148Y88D02*
X2846Y89D01*
D02*
X3572Y1390D02*
X3485Y1390D01*
D02*
X3629Y1390D02*
X3828Y1390D01*
D02*
X3885Y1390D02*
X3972Y1390D01*
D02*
X4029Y1390D02*
X4228Y1390D01*
D02*
X4285Y1390D02*
X4372Y1390D01*
D02*
X4429Y1390D02*
X4628Y1390D01*
D02*
X4685Y1390D02*
X4772Y1390D01*
D02*
X4829Y1390D02*
X5028Y1390D01*
D02*
X5085Y1390D02*
X5172Y1390D01*
D02*
X5229Y1390D02*
X5428Y1390D01*
D02*
X5485Y1390D02*
X5572Y1390D01*
D02*
X5629Y1390D02*
X5828Y1390D01*
D02*
X5885Y1390D02*
X5972Y1390D01*
D02*
X3771Y991D02*
X3684Y991D01*
D02*
X3829Y991D02*
X4027Y991D01*
D02*
X4084Y991D02*
X4171Y991D01*
D02*
X4229Y991D02*
X4427Y991D01*
D02*
X4484Y991D02*
X4571Y991D01*
D02*
X4629Y991D02*
X4827Y991D01*
D02*
X4884Y991D02*
X4971Y991D01*
D02*
X5029Y991D02*
X5227Y991D01*
D02*
X5284Y991D02*
X5371Y991D01*
D02*
X5429Y991D02*
X5627Y991D01*
D02*
X5684Y991D02*
X5771Y991D01*
D02*
X3972Y590D02*
X3885Y590D01*
D02*
X4029Y590D02*
X4228Y590D01*
D02*
X4285Y590D02*
X4372Y590D01*
D02*
X4429Y590D02*
X4628Y590D01*
D02*
X4685Y590D02*
X4772Y590D01*
D02*
X4829Y590D02*
X5028Y590D01*
D02*
X5085Y590D02*
X5172Y590D01*
D02*
X5229Y590D02*
X5428Y590D01*
D02*
X5485Y590D02*
X5572Y590D01*
D02*
X5885Y590D02*
X5972Y590D01*
D02*
X5629Y590D02*
X5828Y590D01*
D02*
X5178Y489D02*
X5178Y190D01*
D02*
X5316Y590D02*
X5316Y489D01*
D02*
X5316Y489D02*
X5178Y489D01*
D02*
X5178Y190D02*
X5023Y190D01*
D02*
X4824Y590D02*
X5316Y590D01*
D02*
X5987Y488D02*
X5987Y190D01*
D02*
X6071Y839D02*
X6071Y488D01*
D02*
X5987Y190D02*
X6028Y190D01*
D02*
X5800Y962D02*
X5800Y839D01*
D02*
X6071Y488D02*
X5987Y488D01*
D02*
X5800Y839D02*
X6071Y839D01*
D02*
X6179Y1288D02*
X6285Y1288D01*
D02*
X6179Y89D02*
X6179Y1288D01*
D02*
X6144Y89D02*
X6179Y89D01*
D02*
X657Y699D02*
X5201Y699D01*
D02*
X657Y738D02*
X657Y699D01*
D02*
X5201Y699D02*
X5201Y739D01*
D02*
X657Y659D02*
X657Y619D01*
D02*
X3601Y619D02*
X3601Y659D01*
D02*
X3601Y659D02*
X657Y659D01*
D02*
X3828Y590D02*
X3629Y590D01*
D02*
X5428Y767D02*
X5229Y767D01*
D02*
X3528Y1791D02*
X3284Y1791D01*
D02*
X3528Y2185D02*
X3528Y1791D01*
D02*
X3281Y2240D02*
X3281Y2185D01*
D02*
X3281Y2185D02*
X3528Y2185D01*
D02*
X3313Y1390D02*
X3428Y1390D01*
D02*
X3313Y1608D02*
X3313Y1390D01*
D02*
X3180Y1741D02*
X3313Y1608D01*
D02*
X3181Y2240D02*
X3180Y1741D01*
D02*
X3129Y2188D02*
X3129Y1728D01*
D02*
X3081Y2188D02*
X3129Y2188D01*
D02*
X3402Y1288D02*
X3553Y1139D01*
D02*
X3129Y1728D02*
X3267Y1594D01*
D02*
X3267Y1288D02*
X3402Y1288D01*
D02*
X3553Y991D02*
X3627Y991D01*
D02*
X3081Y2240D02*
X3081Y2188D01*
D02*
X3553Y1139D02*
X3553Y991D01*
D02*
X3267Y1594D02*
X3267Y1288D01*
D02*
X2981Y2138D02*
X3071Y2138D01*
D02*
X3071Y2138D02*
X3071Y1681D01*
D02*
X2964Y1563D02*
X2964Y1477D01*
D02*
X3124Y1370D02*
X3180Y1312D01*
D02*
X3071Y1681D02*
X2964Y1563D01*
D02*
X2964Y1477D02*
X3125Y1477D01*
D02*
X2981Y2240D02*
X2981Y2138D01*
D02*
X3471Y891D02*
X3402Y891D01*
D02*
X3471Y1081D02*
X3471Y891D01*
D02*
X3180Y1312D02*
X3180Y1081D01*
D02*
X3180Y1081D02*
X3471Y1081D01*
D02*
X3125Y1477D02*
X3124Y1370D01*
D02*
X2780Y1879D02*
X2927Y1879D01*
D02*
X2927Y1879D02*
X2927Y1756D01*
D02*
X2978Y1710D02*
X2978Y1650D01*
D02*
X2915Y1581D02*
X2918Y1241D01*
D02*
X2978Y1650D02*
X2915Y1581D01*
D02*
X2780Y2139D02*
X2780Y1879D01*
D02*
X2881Y2240D02*
X2881Y2139D01*
D02*
X3067Y891D02*
X3002Y891D01*
D02*
X3067Y1241D02*
X3067Y891D01*
D02*
X2881Y2139D02*
X2780Y2139D01*
D02*
X2918Y1241D02*
X3067Y1241D01*
D02*
X2927Y1756D02*
X2978Y1710D01*
D02*
X2869Y1623D02*
X2871Y1325D01*
D02*
X2871Y1325D02*
X2778Y1234D01*
D02*
X2781Y2185D02*
X2730Y2185D01*
D02*
X2730Y2185D02*
X2731Y1763D01*
D02*
X2781Y2240D02*
X2781Y2185D01*
D02*
X2778Y1234D02*
X2778Y991D01*
D02*
X2778Y991D02*
X2971Y991D01*
D02*
X2731Y1763D02*
X2869Y1623D01*
D02*
X2580Y1390D02*
X2772Y1390D01*
D02*
X2580Y1688D02*
X2580Y1390D01*
D02*
X2681Y1688D02*
X2580Y1688D01*
D02*
X2681Y2240D02*
X2681Y1688D01*
D02*
X2581Y2183D02*
X2328Y2183D01*
D02*
X2328Y1791D02*
X2571Y1791D01*
D02*
X2328Y2183D02*
X2328Y1791D01*
D02*
X2581Y2240D02*
X2581Y2183D01*
D02*
X5115Y259D02*
X2314Y259D01*
D02*
X2314Y259D02*
X2314Y459D01*
D02*
X5115Y460D02*
X5115Y259D01*
D02*
X2715Y300D02*
X2715Y460D01*
D02*
X4715Y300D02*
X2715Y300D01*
D02*
X4715Y460D02*
X4715Y300D01*
D02*
X3115Y432D02*
X3115Y460D01*
D02*
X4315Y460D02*
X4315Y432D01*
D02*
X4315Y432D02*
X3115Y432D01*
D02*
X3886Y488D02*
X3543Y488D01*
D02*
X2148Y590D02*
X2148Y88D01*
D02*
X2983Y87D02*
X4200Y87D01*
D02*
X2917Y167D02*
X2983Y87D01*
D02*
X2846Y89D02*
X2917Y167D01*
G04 End of Copper0*
M02*