; NON-PLATED HOLES START AT T1
; THROUGH (PLATED) HOLES START AT T100
M48
INCH
T1C0.086614
T100C0.035433
T101C0.035000
T102C0.015748
T103C0.031497
T104C0.038000
%
T1
X022055Y008752
X046056Y008754
X063720Y023520
X000887Y023520
X022057Y016756
X063720Y000798
X000887Y000798
X046056Y016753
T100
X027142Y012883
X017141Y016883
X025150Y011690
X037145Y008884
X051147Y015678
X027150Y004890
X043145Y004884
X019139Y007682
X011137Y015675
X013141Y019683
X061148Y011685
X045153Y011692
X057148Y008885
X043137Y015676
X015138Y007682
X035137Y012877
X063148Y004885
X057141Y016877
X015131Y015675
X013138Y000882
X063141Y012878
X017139Y011682
X053141Y019677
X051147Y012878
X019139Y004882
X013138Y011682
X021141Y019683
X011137Y012875
X013141Y016883
X023138Y007682
X033145Y008884
X043137Y012877
X015138Y004882
X041145Y011684
X009144Y011682
X023131Y015675
X015131Y012875
X029151Y008884
X053148Y008885
X061141Y019677
X053141Y016877
X047146Y015685
X021138Y011682
X049154Y008885
X007136Y015681
X021141Y016883
X025150Y008890
X023138Y004882
X023131Y012875
X061148Y008885
X045153Y008892
X051154Y007685
X037138Y019676
X009147Y019683
X061141Y016877
X047146Y012885
X029144Y019676
X005146Y019689
X007136Y012881
X017139Y008882
X039145Y007684
X013138Y008882
X049147Y019677
X031143Y015676
X025143Y019683
X051154Y004885
X041145Y008884
X059148Y007685
X037138Y016876
X031151Y007684
X009147Y016883
X009144Y008882
X059141Y015678
X029144Y016876
X045146Y019684
X005146Y016889
X037145Y011684
X033138Y019676
X019131Y015675
X039145Y004884
X029151Y003684
X053148Y003685
X021138Y008882
X049147Y016877
X011144Y007682
X031143Y012877
X057148Y011685
X039137Y015676
X047153Y007692
X025143Y016883
X059148Y004885
X031151Y004884
X035145Y007684
X059141Y012878
X045146Y016884
X041138Y019676
X055148Y007685
X033138Y016876
X019131Y012875
X029151Y000884
X045153Y003692
X061148Y003685
X055141Y015678
X053148Y000885
X005143Y003689
X027142Y015683
X011144Y004882
X017141Y019683
X033145Y011684
X039137Y012877
X047153Y004892
X027150Y007690
X043145Y007684
X035145Y004884
X029151Y011684
X053148Y011685
X035137Y015676
X063148Y007685
X057141Y019677
X041138Y016876
X055148Y004885
X013138Y003682
X049154Y011685
X063141Y015678
X045153Y000892
X061148Y000885
X055141Y012878
X005143Y000889
T101
X053996Y017912
X012005Y007674
X030562Y015676
X045999Y009909
X032556Y017912
X056003Y013904
X008555Y017912
X044562Y003676
X018562Y013904
X022565Y007674
X045999Y011681
X036005Y007674
X054562Y015676
X056556Y017912
X012003Y013904
X026003Y001904
X004567Y001901
X025999Y009909
X046565Y007674
X012556Y017912
X036003Y013904
X025999Y011681
X057996Y017912
X016005Y007674
X034562Y015676
X049999Y009909
X036556Y017912
X020005Y007674
X026565Y007674
X005999Y009909
X049999Y011681
X058562Y015676
X042003Y003676
X016003Y013904
X060005Y005902
X004010Y005899
X052003Y015676
X005999Y011681
X037996Y017912
X014562Y015676
X029999Y009909
X016556Y017912
X028562Y003676
X041996Y017912
X052556Y019684
X002008Y001901
X029999Y011681
X038562Y015676
X040005Y005902
X032003Y015676
X017996Y017912
X009999Y009909
X050565Y005902
X053996Y019684
X021996Y017912
X032556Y019684
X056003Y015676
X009999Y011681
X008555Y019684
X018562Y015676
X052562Y001904
X056556Y019684
X012003Y015676
X030565Y005902
X026003Y003676
X044005Y005902
X062562Y013904
X044558Y009909
X004567Y003673
X012556Y019684
X036003Y015676
X054565Y005902
X044558Y011681
X057996Y019684
X036556Y019684
X010565Y005902
X024005Y005902
X042562Y013904
X024558Y009909
X004560Y017909
X016003Y015676
X060005Y007674
X034565Y005902
X024558Y011681
X048005Y005902
X048558Y009909
X037996Y019684
X050003Y001904
X012562Y001904
X016556Y019684
X060003Y013904
X041996Y019684
X022562Y013904
X058565Y005902
X002008Y003673
X048558Y011681
X036562Y001904
X040005Y007674
X060556Y017912
X014565Y005902
X028005Y005902
X046562Y013904
X028558Y009909
X017996Y019684
X050565Y007674
X040003Y013904
X021996Y019684
X038565Y005902
X028558Y011681
X002001Y017909
X053999Y009909
X040556Y017912
X052562Y003676
X008005Y005902
X026562Y013904
X020562Y001904
X008558Y009909
X010003Y001904
X030565Y007674
X053999Y011681
X044005Y007674
X062562Y015676
X012558Y009909
X020003Y013904
X018565Y005902
X008558Y011681
X034003Y001904
X033999Y009909
X054565Y007674
X020556Y017912
X012558Y011681
X044003Y013904
X058003Y001904
X010565Y007674
X033999Y011681
X024005Y007674
X042562Y015676
X057999Y009909
X010562Y013904
X044556Y017912
X034565Y007674
X013999Y009909
X057999Y011681
X048005Y007674
X004560Y019680
X050003Y003676
X024003Y013904
X012562Y003676
X060003Y015676
X013999Y011681
X045996Y017912
X022562Y015676
X037999Y009909
X058565Y007674
X024556Y017912
X048003Y013904
X036562Y003676
X060556Y019684
X014565Y007674
X037999Y011681
X028005Y007674
X046562Y015676
X048556Y017912
X006569Y007670
X018003Y001904
X040003Y015676
X025996Y017912
X038565Y007674
X017999Y009909
X028003Y013904
X006567Y013901
X021999Y009909
X040556Y019684
X002001Y019680
X017999Y011681
X049996Y017912
X008005Y007674
X026562Y015676
X020562Y003676
X028556Y017912
X002637Y020946
X010003Y003676
X021999Y011681
X060562Y001904
X020003Y015676
X005996Y017912
X018565Y007674
X034003Y003676
X008003Y013904
X052005Y005902
X052558Y009909
X020556Y019684
X044003Y015676
X029996Y017912
X062565Y005902
X052558Y011681
X058003Y003676
X033996Y017912
X010562Y015676
X044556Y019684
X006637Y020946
X032005Y005902
X050562Y013904
X032558Y009909
X004008Y013901
X006569Y005899
X024003Y015676
X009996Y017912
X042565Y005902
X032558Y011681
X056005Y005902
X056558Y009909
X045996Y019684
X013996Y017912
X024556Y019684
X048003Y015676
X060558Y009909
X012005Y005902
X030562Y013904
X056558Y011681
X044562Y001904
X048556Y019684
X060558Y011681
X022565Y005902
X018003Y003676
X036005Y005902
X054562Y013904
X036558Y009909
X025996Y019684
X028003Y015676
X040558Y009909
X006567Y015673
X046565Y005902
X036558Y011681
X049996Y019684
X028556Y019684
X040558Y011681
X060562Y003676
X016005Y005902
X034562Y013904
X016558Y009909
X005996Y019684
X008003Y015676
X052005Y007674
X020005Y005902
X020558Y009909
X026565Y005902
X016558Y011681
X058562Y013904
X029996Y019684
X042003Y001904
X041999Y009909
X062565Y007674
X020558Y011681
X052003Y013904
X033996Y019684
X014562Y013904
X028562Y001904
X041999Y011681
X032005Y007674
X050562Y015676
X004008Y015673
X052556Y017912
X038562Y013904
X009996Y019684
X042565Y007674
X056005Y007674
X004010Y007670
X032003Y013904
X013996Y019684
T102
X033832Y008909
X029832Y008909
T103
X003290Y010297
X003290Y011281
T104
X026810Y022705
X027810Y022705
X036810Y022705
X037810Y022705
X030810Y022705
X028810Y022705
X029810Y022705
X040810Y022705
X038810Y022705
X039810Y022705
X031810Y022705
X032810Y022705
X023810Y022705
X024810Y022705
X025810Y022705
X033810Y022705
X034810Y022705
X035810Y022705
T00
M30
